<?xml version="1.0" encoding="UTF-8" standalone="no"?>
<!-- Generator: Adobe Illustrator 22.0.1, SVG Export Plug-In . SVG Version: 6.00 Build 0)  -->

<svg
   xmlns:dc="http://purl.org/dc/elements/1.1/"
   xmlns:cc="http://creativecommons.org/ns#"
   xmlns:rdf="http://www.w3.org/1999/02/22-rdf-syntax-ns#"
   xmlns:svg="http://www.w3.org/2000/svg"
   xmlns="http://www.w3.org/2000/svg"
   xmlns:sodipodi="http://sodipodi.sourceforge.net/DTD/sodipodi-0.dtd"
   xmlns:inkscape="http://www.inkscape.org/namespaces/inkscape"
   version="1.1"
   id="Capa_1"
   x="0px"
   y="0px"
   viewBox="0 0 512 512"
   style="enable-background:new 0 0 512 512;"
   xml:space="preserve"
   sodipodi:docname="auberge_espagnol.svg"
   inkscape:version="0.92.2 (unknown)"><metadata
     id="metadata2465"><rdf:RDF><cc:Work
         rdf:about=""><dc:format>image/svg+xml</dc:format><dc:type
           rdf:resource="http://purl.org/dc/dcmitype/StillImage" /></cc:Work></rdf:RDF></metadata><defs
     id="defs2463" /><sodipodi:namedview
     pagecolor="#ffffff"
     bordercolor="#666666"
     borderopacity="1"
     objecttolerance="10"
     gridtolerance="10"
     guidetolerance="10"
     inkscape:pageopacity="0"
     inkscape:pageshadow="2"
     inkscape:window-width="1920"
     inkscape:window-height="989"
     id="namedview2461"
     showgrid="false"
     inkscape:zoom="0.4609375"
     inkscape:cx="256"
     inkscape:cy="256"
     inkscape:window-x="0"
     inkscape:window-y="24"
     inkscape:window-maximized="1"
     inkscape:current-layer="Capa_1" /><style
     type="text/css"
     id="style2434">
	.st0{fill:#005C83;}
	.st1{fill:#00263F;}
	.st2{fill:#FFECB3;}
	.st3{fill:#FFD863;}
	.st4{fill:#FF9451;}
	.st5{fill:#F7674F;}
	.st6{fill:#FFB344;}
	.st7{fill:#35CCFF;}
	.st8{fill:#00BAFF;}
</style><polygon
     class="st2"
     points="306.2,222.6 256,183.5 205.8,222.6 205.8,244.1 184.5,244.1 184.5,308.1 205.8,308.1 306.2,308.1 327.5,308.1 327.5,244.1 306.2,244.1 "
     id="polygon2440"
     transform="matrix(3.2951343,0,0,3.4369353,-587.55437,-587.54511)"
     style="fill:#ffecb3" /><polygon
     class="st3"
     points="306.2,222.6 256,183.5 256,183.6 256,308.2 306.2,308.1 327.5,308.1 327.5,244.1 306.2,244.1 "
     id="polygon2442"
     transform="matrix(3.2951343,0,0,3.4369353,-587.55437,-587.54511)"
     style="fill:#ffd863" /><polygon
     class="st4"
     points="256,186.4 200.2,229.8 194.2,222.1 256,174 317.8,222.1 311.8,229.8 "
     id="polygon2444"
     transform="matrix(3.2951343,0,0,3.4369353,-587.55437,-587.54511)"
     style="fill:#ff9451" /><polygon
     class="st5"
     points="256,174 256,186.4 256,186.4 311.8,229.8 317.8,222.1 256,174 "
     id="polygon2446"
     transform="matrix(3.2951343,0,0,3.4369353,-587.55437,-587.54511)"
     style="fill:#f7674f" /><path
     class="st6"
     d="M 308.72215,471.03097 H 203.27785 V 339.39635 c 0,-30.24503 23.72497,-54.99096 52.72215,-54.99096 v 0 c 28.99718,0 52.72215,24.74593 52.72215,54.99096 z"
     id="path2448"
     inkscape:connector-curvature="0"
     style="fill:#ffb344;stroke-width:3.36528802" /><path
     class="st4"
     d="m 308.72215,339.39635 c 0,-30.24503 -23.72497,-54.99096 -52.72215,-54.99096 v 0 c 0,0 0,0 0,0 v 187.31297 l 52.72215,-0.68739 z"
     id="path2450"
     inkscape:connector-curvature="0"
     style="fill:#ff9451;stroke-width:3.36528802" /><rect
     x="68.836365"
     y="292.31033"
     class="st7"
     width="74.799553"
     height="78.018433"
     id="rect2452"
     style="fill:#35ccff;stroke-width:3.36528802" /><rect
     x="368.69363"
     y="292.31033"
     class="st8"
     width="74.799553"
     height="78.018433"
     id="rect2454"
     style="fill:#00baff;stroke-width:3.36528802" /><rect
     x="151.21472"
     y="164.80002"
     class="st7"
     width="61.948521"
     height="76.643654"
     id="rect2456"
     style="fill:#35ccff;stroke-width:3.36528802" /><rect
     x="299.16629"
     y="164.80002"
     class="st8"
     width="61.948521"
     height="76.643654"
     id="rect2458"
     style="fill:#00baff;stroke-width:3.36528802" /></svg>