<?xml version="1.0" encoding="UTF-8" standalone="no"?>
<!-- Generator: Adobe Illustrator 22.0.1, SVG Export Plug-In . SVG Version: 6.00 Build 0)  -->

<svg
   xmlns:dc="http://purl.org/dc/elements/1.1/"
   xmlns:cc="http://creativecommons.org/ns#"
   xmlns:rdf="http://www.w3.org/1999/02/22-rdf-syntax-ns#"
   xmlns:svg="http://www.w3.org/2000/svg"
   xmlns="http://www.w3.org/2000/svg"
   xmlns:sodipodi="http://sodipodi.sourceforge.net/DTD/sodipodi-0.dtd"
   xmlns:inkscape="http://www.inkscape.org/namespaces/inkscape"
   version="1.1"
   id="Capa_1"
   x="0px"
   y="0px"
   viewBox="0 0 512 512"
   style="enable-background:new 0 0 512 512;"
   xml:space="preserve"
   sodipodi:docname="enfants.svg"
   inkscape:version="0.92.2 (unknown)"><metadata
     id="metadata7077"><rdf:RDF><cc:Work
         rdf:about=""><dc:format>image/svg+xml</dc:format><dc:type
           rdf:resource="http://purl.org/dc/dcmitype/StillImage" /></cc:Work></rdf:RDF></metadata><defs
     id="defs7075" /><sodipodi:namedview
     pagecolor="#ffffff"
     bordercolor="#666666"
     borderopacity="1"
     objecttolerance="10"
     gridtolerance="10"
     guidetolerance="10"
     inkscape:pageopacity="0"
     inkscape:pageshadow="2"
     inkscape:window-width="1920"
     inkscape:window-height="989"
     id="namedview7073"
     showgrid="false"
     inkscape:zoom="0.4609375"
     inkscape:cx="-180.0678"
     inkscape:cy="256"
     inkscape:window-x="0"
     inkscape:window-y="24"
     inkscape:window-maximized="1"
     inkscape:current-layer="Capa_1" /><style
     type="text/css"
     id="style6906">
	.st0{opacity:0.37;fill:#6B50DD;enable-background:new    ;}
	.st1{fill:#F1F1F1;}
	.st2{fill:#76C9D2;}
	.st3{fill:#FBAB5F;}
	.st4{fill:#E77587;}
	.st5{opacity:0.1;enable-background:new    ;}
	.st6{fill:#9B7E73;}
	.st7{fill:#F6B47B;}
	.st8{fill:#9BCE7A;}
	.st9{fill:#E2A071;}
	.st10{fill:#6E4439;}
	.st11{fill:#5E342E;}
	.st12{fill:#FDC88E;}
	.st13{fill:#623F33;}
	.st14{fill:#8ABE69;}
	.st15{fill:#43A0C5;}
	.st16{fill:#2C8CB3;}
	.st17{fill:#FFC84A;}
	.st18{fill:#FFD7A3;}
	.st19{fill:#D48F60;}
	.st20{fill:#C57E52;}
	.st21{fill:#FFE1B2;}
	.st22{fill:#E4B07B;}
	.st23{fill:#57B9DD;}
	.st24{fill:#CA8357;}
	.st25{opacity:0.2;enable-background:new    ;}
	.st26{opacity:5.000000e-02;enable-background:new    ;}
	.st27{fill:#F0B0B7;}
	.st28{opacity:0.3;fill:#FFFFFF;enable-background:new    ;}
	.st29{opacity:0.1;fill:#513130;enable-background:new    ;}
	.st30{fill:#4A5058;}
	.st31{fill:#FFFFFF;}
	.st32{fill:#C3000A;}
	.st33{fill:#FF3632;}
	.st34{fill:#3FA689;}
	.st35{fill:#FFA547;}
	.st36{fill:#06CCAB;}
	.st37{fill:#FFD15E;}
</style><path
     class="st0"
     d="m 16.444068,271.41573 c 0,-142.53218 109.183392,-258.339571 243.883792,-258.339571 134.70041,0 243.8838,115.559941 243.8838,258.339571 0,142.77963 -109.18339,232.10969 -243.8838,232.10969 -134.7004,0 -243.883792,-89.57751 -243.883792,-232.10969 z"
     id="path6908"
     inkscape:connector-curvature="0"
     style="opacity:0.37000002;fill:#6b50dd;stroke-width:2.46401596;enable-background:new" /><g
     id="g6958"
     transform="matrix(2.4535593,0,0,2.474517,-380.54183,-521.94393)"><path
       class="st7"
       d="m 244.5,365.7 -2.6,-21.6 c -0.3,-2.3 -1.8,-4.2 -3.9,-5 L 226.2,335 c -1,-0.3 -2.1,0.2 -2.4,1.2 l -2.9,-1 c -1.6,-0.5 -2.6,-2.1 -2.6,-3.8 v -6.5 l 8.4,-3.6 c 4.4,-1.9 7.2,-6.3 7.2,-11.1 v -2 c 3.2,0 5.9,-2.7 5.9,-6 0,-1.6 -0.6,-3 -1.6,-4.1 1,-5.8 3.4,-21.9 1.6,-32.1 -1.1,-6 -3.9,-10 -3.9,-10 0,0 -14.6,0.5 -25.3,4 l -2,-4 c 0,0 -21.5,0 -27.2,10 v 0 c 0,0 -9.7,-0.1 -9.7,12.1 0,4.5 2.4,15.5 3.4,20.1 -0.9,1.1 -1.5,2.5 -1.5,4 0,3.3 2.6,6 5.9,6 v 2 c 0,4.9 2.8,9.2 7.2,11.1 l 8.4,3.6 v 6.5 c 0,1.7 -1.1,3.3 -2.6,3.8 l -2.9,1 c -0.4,-1 -1.4,-1.5 -2.4,-1.2 l -11.8,4.1 c -2.1,0.7 -3.7,2.7 -3.9,5 l -2.7,21.6 c -0.4,3.6 2.3,6.8 5.8,6.8 h 64.6 c 3.1,0 5.8,-3.2 5.3,-6.8 z"
       id="path6924"
       inkscape:connector-curvature="0"
       style="fill:#f6b47b" /><path
       class="st8"
       d="m 187.9,372.5 h 37 v -37.1 c -0.8,0.3 -1.6,0.8 -2.1,1.6 -3.5,5.6 -9.5,9.3 -16.4,9.3 -6.9,0 -13,-3.7 -16.4,-9.3 -0.5,-0.8 -1.2,-1.3 -2.1,-1.6 z"
       id="path6926"
       inkscape:connector-curvature="0"
       style="fill:#9bce7a" /><path
       class="st9"
       d="m 194.8,324.8 v 6.6 c 0,1.4 -0.7,2.7 -1.9,3.4 15.5,2.8 24.4,-9 25.2,-10.1 h -23.3 z"
       id="path6928"
       inkscape:connector-curvature="0"
       style="fill:#e2a071" /><path
       class="st10"
       d="m 175.3,300.1 60.3,-44.2 c 0,0 2.8,4 3.9,10 2.3,12.5 -2,34.2 -2,34.2 z"
       id="path6930"
       inkscape:connector-curvature="0"
       style="fill:#6e4439" /><path
       class="st11"
       d="m 208.4,255.9 c 0,0 -21.5,0 -27.2,10 v 0 c 0,0 -9.7,-0.1 -9.7,12.1 0,5.7 3.9,22.1 3.9,22.1 0,0 41.4,-19 60.3,-44.2 0,0 -14.6,0.5 -25.3,4 z"
       id="path6932"
       inkscape:connector-curvature="0"
       style="fill:#5e342e" /><path
       class="st12"
       d="m 233.7,296.1 v -4 c 0,-5.5 -4.4,-10 -9.7,-10 h -35 c -5.4,0 -9.7,4.5 -9.7,10 v 4 c -3.2,0 -5.9,2.7 -5.9,6 0,3.3 2.6,6 5.9,6 v 2 c 0,4.9 2.8,9.2 7.2,11.1 l 12.6,5.4 c 2.4,1 4.9,1.6 7.5,1.6 v 0 c 2.6,0 5.1,-0.5 7.5,-1.6 l 12.6,-5.4 c 4.4,-1.9 7.2,-6.3 7.2,-11.1 v -2 c 3.2,0 5.9,-2.7 5.9,-6 -0.3,-3.3 -2.9,-6 -6.1,-6 z"
       id="path6934"
       inkscape:connector-curvature="0"
       style="fill:#fdc88e" /><path
       class="st13"
       d="m 192.8,304.1 v 0 c -1.1,0 -2,-0.9 -2,-2 v -2 c 0,-1.1 0.9,-2 2,-2 v 0 c 1.1,0 2,0.9 2,2 v 2 c 0,1.2 -0.9,2 -2,2 z"
       id="path6936"
       inkscape:connector-curvature="0"
       style="fill:#623f33" /><path
       class="st13"
       d="m 220.1,304.1 v 0 c -1.1,0 -2,-0.9 -2,-2 v -2 c 0,-1.1 0.9,-2 2,-2 v 0 c 1.1,0 2,0.9 2,2 v 2 c -0.1,1.2 -1,2 -2,2 z"
       id="path6938"
       inkscape:connector-curvature="0"
       style="fill:#623f33" /><path
       class="st9"
       d="m 206.4,318.3 c -3.5,0 -6.7,-0.9 -8.9,-2.4 -0.9,-0.6 -1.1,-1.9 -0.5,-2.8 0.6,-0.9 1.8,-1.2 2.7,-0.5 1.5,1.1 4,1.7 6.7,1.7 2.6,0 5.2,-0.6 6.7,-1.7 0.9,-0.6 2.1,-0.4 2.7,0.5 0.6,0.9 0.4,2.2 -0.5,2.8 -2.2,1.5 -5.4,2.4 -8.9,2.4 z"
       id="path6940"
       inkscape:connector-curvature="0"
       style="fill:#e2a071" /><path
       class="st7"
       d="m 224,288 v -6 h -35 c -0.7,0 -1.3,0.1 -2,0.2 v 0 c -4.4,0.9 -7.8,5 -7.8,9.8 v 4 c -3.2,0 -5.9,2.7 -5.9,6 0,3.3 2.6,6 5.9,6 v 2 c 0,4.9 2.8,9.2 7.2,11.1 l 12.6,5.4 c 0.6,0.3 1.3,0.5 1.9,0.7 -5.6,-4.2 -9.3,-7.9 -11.4,-10.3 -1.6,-1.8 -2.4,-4 -2.4,-6.4 v -20.8 c 6,-2.7 19.1,-7 36.9,-1.7 z"
       id="path6942"
       inkscape:connector-curvature="0"
       style="fill:#f6b47b" /><path
       class="st14"
       d="m 227.3,335.5 c -1.7,-0.6 -3.5,0 -4.4,1.6 -3.5,5.6 -9.5,9.3 -16.4,9.3 -6.9,0 -13,-3.7 -16.4,-9.3 -0.9,-1.5 -2.8,-2.1 -4.4,-1.6 l -0.6,0.2 c 3.5,8.7 11.8,14.7 21.5,14.7 9.7,0 18,-6 21.5,-14.7 z"
       id="path6944"
       inkscape:connector-curvature="0"
       style="fill:#8abe69" /><path
       class="st15"
       d="m 194.8,372.5 -5.5,-35.8 c -0.2,-1.2 -1.4,-2 -2.5,-1.6 l -11.8,4.1 c -2.1,0.7 -3.7,2.7 -3.9,5 l -2.6,21.6 c -0.4,3.6 2.3,6.8 5.8,6.8 h 20.5 z"
       id="path6946"
       inkscape:connector-curvature="0"
       style="fill:#43a0c5" /><path
       class="st15"
       d="m 218.1,372.5 5.5,-35.8 c 0.2,-1.2 1.4,-2 2.5,-1.6 l 11.8,4.1 c 2.1,0.7 3.7,2.7 3.9,5 l 2.6,21.6 c 0.4,3.6 -2.3,6.8 -5.8,6.8 h -20.5 z"
       id="path6948"
       inkscape:connector-curvature="0"
       style="fill:#43a0c5" /><path
       class="st16"
       d="m 240.7,341.2 c 0.6,0.8 1.1,1.8 1.2,2.9 l 2.6,21.6 c 0.4,3.6 -2.3,6.8 -5.8,6.8 h -10.9 v -11.6 c 0,-2.9 1,-5.8 2.9,-7.9 z"
       id="path6950"
       inkscape:connector-curvature="0"
       style="fill:#2c8cb3" /><path
       class="st17"
       d="m 244.4,364.4 c -3.8,-0.5 -6.8,-3.9 -6.8,-7.9 0,-3.4 2,-6.3 4.9,-7.5 z"
       id="path6952"
       inkscape:connector-curvature="0"
       style="fill:#ffc84a" /><path
       class="st10"
       d="m 209.8,281.5 c 5.9,1.1 12.6,4.2 16.1,10.5 0,0 0.6,-5.9 -0.8,-10.5 z"
       id="path6954"
       inkscape:connector-curvature="0"
       style="fill:#6e4439" /><path
       class="st16"
       d="m 172.1,341.2 c -0.6,0.8 -1.1,1.8 -1.2,2.9 l -2.6,21.6 c -0.4,3.6 2.3,6.8 5.8,6.8 H 185 v -11.6 c 0,-2.9 -1,-5.8 -2.9,-7.9 z"
       id="path6956"
       inkscape:connector-curvature="0"
       style="fill:#2c8cb3" /></g><g
     id="g7020"
     transform="matrix(2.4535593,0,0,2.474517,-380.54183,-521.94393)"><path
       class="st18"
       d="m 361.8,276.3 c 0,-10.1 -5.6,-17.6 -15.2,-17.6 -4.9,0 -8.8,2.1 -11.3,4.1 -0.7,-0.5 -1.7,-0.5 -2.4,0.1 -0.5,0.5 -0.7,1.1 -0.6,1.7 -4.7,-4 -9.8,-5.8 -12.2,-5.8 -6.2,0 -9.5,2 -9.5,2 0,0 -3.3,-2 -9.5,-2 -2.4,0 -7.4,1.9 -12.2,5.8 0.1,-0.6 -0.1,-1.3 -0.6,-1.7 -0.7,-0.6 -1.7,-0.7 -2.4,-0.1 -2.6,-2 -6.5,-4.1 -11.3,-4.1 -9.6,0 -15.2,7.5 -15.2,17.6 0,10.3 11.1,37.9 5.7,54.9 0,0 12.4,-4.4 17.9,-21.7 0.3,0.1 0.7,0.1 1.1,0.1 v 2 c 0,4.7 2.8,9 7,10.8 l 8.2,3.5 v 6.3 c 0,1.7 -1.1,3.2 -2.6,3.7 l -7.7,2.9 -0.1,-0.2 c -0.5,-0.9 -1.7,-1.2 -2.6,-0.6 l -6.2,3.9 c -0.9,0.5 -1.1,1.6 -0.7,2.5 -0.9,1.3 -1.5,2.8 -1.7,4.4 l -2.2,16.9 c -0.4,3.5 2.2,6.7 5.7,6.7 h 59.1 c 3.5,0 6.1,-3.2 5.7,-6.7 l -2.2,-16.9 c -0.2,-1.6 -0.8,-3.1 -1.7,-4.4 0.4,-0.9 0.1,-2 -0.7,-2.5 l -6.2,-3.9 c -0.9,-0.5 -2,-0.3 -2.6,0.6 l -0.1,0.2 -7.7,-2.9 c -1.5,-0.5 -2.6,-2 -2.6,-3.7 v -6.3 l 8.2,-3.5 c 4.2,-1.8 7,-6.1 7,-10.8 v -2 c 0.4,0 0.7,0 1.1,-0.1 5.5,17.2 17.9,21.7 17.9,21.7 -5.7,-17 5.4,-44.7 5.4,-54.9 z"
       id="path6960"
       inkscape:connector-curvature="0"
       style="fill:#ffd7a3" /><path
       class="st12"
       d="m 321.9,325.8 h -22.8 v 6.5 0 0 c 0,0.1 0,0.2 0,0.3 0,0 0,0.1 0,0.1 0,0 0,0.1 0,0.1 0,0.1 0,0.2 0,0.2 v 0 c -0.2,1.1 -0.9,2 -1.7,2.6 15.8,2.9 24.5,-9.8 24.5,-9.8 z"
       id="path6962"
       inkscape:connector-curvature="0"
       style="fill:#fdc88e" /><g
       id="g6966"><path
         class="st19"
         d="m 331.4,266.5 c 0,0 5.6,-7.9 15.2,-7.9 9.6,0 15.2,7.5 15.2,17.6 0,10.3 -11.1,37.9 -5.7,54.9 0,0 -14.2,-5.1 -19,-25.5 -4.4,-18.7 1.9,-31.4 1.9,-31.4 z"
         id="path6964"
         inkscape:connector-curvature="0"
         style="fill:#d48f60" /></g><g
       id="g6970"><path
         class="st20"
         d="m 338,268.4 c 0,0 6.1,-4.7 10.4,-2 9.7,5.9 1.7,22.2 0,31.4 -2.4,12.3 -1.4,24 7.6,33.3 0,0 -14.2,-5.1 -19,-25.5 -4.4,-18.7 0.9,-31.4 0.9,-31.4 v -5.8 z"
         id="path6968"
         inkscape:connector-curvature="0"
         style="fill:#c57e52" /></g><g
       id="g6974"><path
         class="st15"
         d="m 340,271 v 0 c 0.8,-0.7 0.9,-2 0.2,-2.8 l -4.6,-5.3 c -0.7,-0.8 -1.9,-0.9 -2.7,-0.2 v 0 c -0.8,0.7 -0.9,2 -0.2,2.8 l 4.6,5.3 c 0.7,0.9 1.9,0.9 2.7,0.2 z"
         id="path6972"
         inkscape:connector-curvature="0"
         style="fill:#43a0c5" /></g><g
       id="g6978"><path
         class="st19"
         d="m 289.7,266.5 c 0,0 -5.6,-7.9 -15.2,-7.9 -9.6,0 -15.2,7.5 -15.2,17.6 0,10.3 11.1,37.9 5.7,54.9 0,0 14.2,-5.1 19,-25.5 4.4,-18.7 -1.9,-31.4 -1.9,-31.4 z"
         id="path6976"
         inkscape:connector-curvature="0"
         style="fill:#d48f60" /></g><g
       id="g6982"><path
         class="st20"
         d="m 283.2,268.4 c 0,0 -6.3,-4.7 -10.7,-2 -9.7,5.9 -1.7,22.2 0,31.4 2.4,12.3 1.4,24 -7.6,33.3 0,0 14.2,-5.1 19,-25.5 4.4,-18.7 -0.7,-31.4 -0.7,-31.4 z"
         id="path6980"
         inkscape:connector-curvature="0"
         style="fill:#c57e52" /></g><g
       id="g6986"><path
         class="st15"
         d="m 281.1,271 v 0 c -0.8,-0.7 -0.9,-2 -0.2,-2.8 l 4.6,-5.3 c 0.7,-0.8 1.9,-0.9 2.7,-0.2 v 0 c 0.8,0.7 0.9,2 0.2,2.8 l -4.6,5.3 c -0.7,0.9 -1.9,0.9 -2.7,0.2 z"
         id="path6984"
         inkscape:connector-curvature="0"
         style="fill:#43a0c5" /></g><path
       class="st21"
       d="m 337.1,297.8 v -3.9 c 0,-5.4 -4.2,-13.7 -9.5,-13.7 h -34.2 c -5.2,0 -9.5,8.3 -9.5,13.7 v 3.9 c -3.1,0 -5.7,2.6 -5.7,5.9 0,3.3 2.6,5.9 5.7,5.9 v 2 c 0,4.7 2.8,9 7,10.8 l 12.3,5.3 c 2.3,1 4.8,1.5 7.3,1.5 v 0 c 2.5,0 5,-0.5 7.3,-1.5 l 12.3,-5.3 c 4.2,-1.8 7,-6.1 7,-10.8 v -2 c 3.1,0 5.7,-2.6 5.7,-5.9 0,-3.3 -2.6,-5.9 -5.7,-5.9 z"
       id="path6988"
       inkscape:connector-curvature="0"
       style="fill:#ffe1b2" /><g
       id="g6992"><path
         class="st13"
         d="m 297.2,305.7 v 0 c -1.1,0 -1.9,-0.9 -1.9,-2 v -2 c 0,-1.1 0.9,-2 1.9,-2 v 0 c 1.1,0 1.9,0.9 1.9,2 v 2 c 0,1.1 -0.8,2 -1.9,2 z"
         id="path6990"
         inkscape:connector-curvature="0"
         style="fill:#623f33" /></g><g
       id="g6996"><path
         class="st13"
         d="m 323.8,305.7 v 0 c -1.1,0 -1.9,-0.9 -1.9,-2 v -2 c 0,-1.1 0.9,-2 1.9,-2 v 0 c 1.1,0 1.9,0.9 1.9,2 v 2 c 0,1.1 -0.9,2 -1.9,2 z"
         id="path6994"
         inkscape:connector-curvature="0"
         style="fill:#623f33" /></g><g
       id="g7002"><g
         id="g7000"><path
           class="st22"
           d="m 310.5,319.5 c -3.4,0 -6.5,-0.8 -8.7,-2.4 -0.9,-0.6 -1.1,-1.8 -0.5,-2.7 0.6,-0.9 1.8,-1.1 2.6,-0.5 1.5,1.1 3.9,1.7 6.5,1.7 2.6,0 5,-0.6 6.5,-1.7 0.9,-0.6 2,-0.4 2.6,0.5 0.6,0.9 0.4,2.1 -0.5,2.7 -1.9,1.5 -5.1,2.4 -8.5,2.4 z"
           id="path6998"
           inkscape:connector-curvature="0"
           style="fill:#e4b07b" /></g></g><path
       class="st18"
       d="m 284,297.8 c -3.1,0 -5.7,2.6 -5.7,5.9 0,3.3 2.6,5.9 5.7,5.9 v 2 c 0,4.7 2.8,9 7,10.8 l 12.3,5.3 c 0.6,0.3 1.2,0.5 1.8,0.7 -5.4,-4.1 -9,-7.7 -11.1,-10 -1.5,-1.7 -2.4,-3.9 -2.4,-6.3 v -11 c 5.4,-2 20.7,-8.4 20.9,-18.9 0,-2.5 -0.1,-5 -0.4,-6.4 -2.9,15.7 -26.2,22 -28.1,22 z"
       id="path7004"
       inkscape:connector-curvature="0"
       style="fill:#ffd7a3" /><g
       id="g7008"><path
         class="st23"
         d="m 332.3,338.7 -6.8,11.3 c -1.1,1.7 -2.8,2.8 -4.8,2.8 h -20.2 c -2,0 -3.8,-1.1 -4.8,-2.8 l -6.8,-11.3 c -0.5,-0.9 -1.7,-1.2 -2.6,-0.6 l -6.2,3.9 c -0.9,0.5 -1.2,1.8 -0.7,2.7 l 8.5,14 h 45.5 l 8.5,-14 c 0.6,-0.9 0.3,-2.1 -0.7,-2.7 l -6.2,-3.9 c -1,-0.6 -2.2,-0.3 -2.7,0.6 z"
         id="path7006"
         inkscape:connector-curvature="0"
         style="fill:#57b9dd" /></g><g
       id="g7012"><rect
         x="287.79999"
         y="358.60001"
         class="st15"
         width="45.5"
         height="13.7"
         id="rect7010"
         style="fill:#43a0c5" /></g><path
       class="st19"
       d="m 320,258.6 c -6.2,0 -9.5,2 -9.5,2 0,0 -3.3,-2 -9.5,-2 -6.2,0 -29.6,12.3 -20.9,40.7 0,0 30.4,-5.6 30.4,-19.1 0,13.6 30.4,19.1 30.4,19.1 8.7,-28.4 -14.7,-40.7 -20.9,-40.7 z"
       id="path7014"
       inkscape:connector-curvature="0"
       style="fill:#d48f60" /><g
       id="g7018"><path
         class="st24"
         d="m 310.5,260.6 v 0 c 0,0 -3.3,-2 -9.5,-2 -6.2,0 -29.6,12.3 -20.9,40.7 0,0 3.7,-0.7 8.5,-2.1 -5.3,-25.5 16,-36.6 21.9,-36.6 z"
         id="path7016"
         inkscape:connector-curvature="0"
         style="fill:#ca8357" /></g></g></svg>