<?xml version="1.0" encoding="UTF-8" standalone="no"?>
<!-- Generator: Adobe Illustrator 22.0.1, SVG Export Plug-In . SVG Version: 6.00 Build 0)  -->

<svg
   xmlns:dc="http://purl.org/dc/elements/1.1/"
   xmlns:cc="http://creativecommons.org/ns#"
   xmlns:rdf="http://www.w3.org/1999/02/22-rdf-syntax-ns#"
   xmlns:svg="http://www.w3.org/2000/svg"
   xmlns="http://www.w3.org/2000/svg"
   xmlns:sodipodi="http://sodipodi.sourceforge.net/DTD/sodipodi-0.dtd"
   xmlns:inkscape="http://www.inkscape.org/namespaces/inkscape"
   version="1.1"
   id="Capa_1"
   x="0px"
   y="0px"
   viewBox="0 0 512 512"
   style="enable-background:new 0 0 512 512;"
   xml:space="preserve"
   sodipodi:docname="repas.svg"
   inkscape:version="0.92.2 (unknown)"><metadata
     id="metadata8499"><rdf:RDF><cc:Work
         rdf:about=""><dc:format>image/svg+xml</dc:format><dc:type
           rdf:resource="http://purl.org/dc/dcmitype/StillImage" /></cc:Work></rdf:RDF></metadata><defs
     id="defs8497" /><sodipodi:namedview
     pagecolor="#ffffff"
     bordercolor="#666666"
     borderopacity="1"
     objecttolerance="10"
     gridtolerance="10"
     guidetolerance="10"
     inkscape:pageopacity="0"
     inkscape:pageshadow="2"
     inkscape:window-width="1920"
     inkscape:window-height="989"
     id="namedview8495"
     showgrid="false"
     inkscape:zoom="0.4609375"
     inkscape:cx="256"
     inkscape:cy="256"
     inkscape:window-x="0"
     inkscape:window-y="24"
     inkscape:window-maximized="1"
     inkscape:current-layer="Capa_1" /><style
     type="text/css"
     id="style8454">
	.st0{fill:#FFB74D;}
	.st1{fill:#212121;}
	.st2{fill:#EF5350;}
	.st3{fill:#B3E5FC;}
	.st4{fill:#E0E0E0;}
	.st5{fill:#171717;}
	.st6{fill:#D44A47;}
</style><g
     id="g8492"
     transform="matrix(2.4972146,0,0,2.1286999,-383.28693,-289.00361)"><path
       class="st0"
       d="m 256,200.4 c -7.5,0 -15.3,-9.7 0,-44.3 15.3,34.6 7.5,44.3 0,44.3 z"
       id="path8456"
       inkscape:connector-curvature="0"
       style="fill:#ffb74d" /><g
       id="g8470"><path
         class="st1"
         d="m 256,227.2 c -1.7,0 -3,-1.9 -3,-4.3 v -36.8 c 0,-2.4 1.4,-4.3 3,-4.3 1.6,0 3,1.9 3,4.3 V 223 c 0,2.4 -1.3,4.2 -3,4.2 z"
         id="path8458"
         inkscape:connector-curvature="0"
         style="fill:#212121" /><rect
         x="247.5"
         y="262.20001"
         class="st1"
         width="17"
         height="84"
         id="rect8460"
         style="fill:#212121" /><rect
         x="181.10001"
         y="304.20001"
         class="st1"
         width="12.6"
         height="51.799999"
         id="rect8462"
         style="fill:#212121" /><rect
         x="209.60001"
         y="304.20001"
         class="st1"
         width="12.6"
         height="51.799999"
         id="rect8464"
         style="fill:#212121" /><rect
         x="318.29999"
         y="304.20001"
         class="st1"
         width="12.6"
         height="51.799999"
         id="rect8466"
         style="fill:#212121" /><rect
         x="289.79999"
         y="304.20001"
         class="st1"
         width="12.6"
         height="51.799999"
         id="rect8468"
         style="fill:#212121" /></g><path
       class="st2"
       d="m 225.1,314.1 h -49.5 l -19.5,-99 c -0.4,-2.5 0.7,-5 2.4,-5.6 L 169,206 c 1.8,-0.6 3.5,0.9 3.9,3.4 l 16.3,80.1 H 225 c 2.2,0 3.9,2.5 3.9,5.6 v 13.4 c 0.2,3.2 -1.6,5.6 -3.8,5.6 z"
       id="path8472"
       inkscape:connector-curvature="0"
       style="fill:#ef5350" /><path
       class="st3"
       d="m 222.7,240.9 c 0,-0.3 0,-0.6 0,-0.8 v -16.9 c 2.1,-1.3 3.8,-4 4.3,-7.5 l 2.6,-16.8 h -19.8 l 2.6,16.8 c 0.5,3.4 2.1,6.1 4.3,7.5 V 240 c 0,0.3 0,0.6 0,0.8 -2.9,1.7 -4.9,5.6 -4.9,10.3 v 1.1 h 15.7 v -1.1 c 0.1,-4.6 -1.9,-8.6 -4.8,-10.2 z"
       id="path8474"
       inkscape:connector-curvature="0"
       style="fill:#b3e5fc" /><path
       class="st2"
       d="m 286.9,314.1 h 49.5 l 19.5,-99 c 0.4,-2.5 -0.7,-5 -2.4,-5.6 L 343,206 c -1.8,-0.6 -3.5,0.9 -3.9,3.4 l -16.3,80.1 H 287 c -2.2,0 -3.9,2.5 -3.9,5.6 v 13.4 c -0.2,3.2 1.6,5.6 3.8,5.6 z"
       id="path8476"
       inkscape:connector-curvature="0"
       style="fill:#ef5350" /><path
       class="st3"
       d="m 295.2,240.9 c 0,-0.3 0,-0.6 0,-0.8 v -16.9 c 2.1,-1.3 3.8,-4 4.3,-7.5 l 2.6,-16.8 h -19.8 l 2.6,16.8 c 0.5,3.4 2.1,6.1 4.3,7.5 V 240 c 0,0.3 0,0.6 0,0.8 -2.9,1.7 -4.9,5.6 -4.9,10.3 v 1.1 H 300 v -1.1 c 0.1,-4.6 -1.9,-8.6 -4.8,-10.2 z"
       id="path8478"
       inkscape:connector-curvature="0"
       style="fill:#b3e5fc" /><rect
       x="247.5"
       y="213.3"
       class="st4"
       width="17"
       height="38.900002"
       id="rect8480"
       style="fill:#e0e0e0" /><rect
       x="247.5"
       y="262.20001"
       class="st5"
       width="17"
       height="27.1"
       id="rect8482"
       style="fill:#171717" /><path
       class="st2"
       d="M 307.6,252.2 H 204.4 c -3.9,0 -7,4.4 -7,10 0,5.5 3.1,10 7,10 h 103.1 c 3.9,0 7,-4.4 7,-10 0.1,-5.6 -3.1,-10 -6.9,-10 z"
       id="path8484"
       inkscape:connector-curvature="0"
       style="fill:#ef5350" /><path
       class="st6"
       d="m 213.5,262.2 c 0,-5.5 3.1,-10 7,-10 h -16.1 c -3.9,0 -7,4.4 -7,10 0,5.5 3.1,10 7,10 h 16.1 c -3.8,-0.1 -7,-4.6 -7,-10 z"
       id="path8486"
       inkscape:connector-curvature="0"
       style="fill:#d44a47" /><path
       class="st2"
       d="m 258.3,333.9 h -4.6 c -10.3,0 -18.7,7.5 -18.7,22.1 v 0 h 41.9 v 0 c 0.1,-14.6 -8.3,-22.1 -18.6,-22.1 z"
       id="path8488"
       inkscape:connector-curvature="0"
       style="fill:#ef5350" /><path
       class="st6"
       d="m 262.1,334.2 c -1.2,-0.2 -2.5,-0.3 -3.7,-0.3 h -4.6 c -10.3,0 -18.7,7.5 -18.7,22.1 v 0 h 12.1 v 0 c -0.1,-12.8 6.3,-20.2 14.9,-21.8 z"
       id="path8490"
       inkscape:connector-curvature="0"
       style="fill:#d44a47" /></g></svg>