<?xml version="1.0" encoding="UTF-8" standalone="no"?>
<!-- Generator: Adobe Illustrator 22.0.1, SVG Export Plug-In . SVG Version: 6.00 Build 0)  -->

<svg
   xmlns:dc="http://purl.org/dc/elements/1.1/"
   xmlns:cc="http://creativecommons.org/ns#"
   xmlns:rdf="http://www.w3.org/1999/02/22-rdf-syntax-ns#"
   xmlns:svg="http://www.w3.org/2000/svg"
   xmlns="http://www.w3.org/2000/svg"
   xmlns:sodipodi="http://sodipodi.sourceforge.net/DTD/sodipodi-0.dtd"
   xmlns:inkscape="http://www.inkscape.org/namespaces/inkscape"
   version="1.1"
   id="Capa_1"
   x="0px"
   y="0px"
   viewBox="0 0 199.83041 114.3"
   xml:space="preserve"
   sodipodi:docname="soiree.svg"
   width="199.83041"
   height="114.3"
   inkscape:version="0.92.2 (unknown)"><metadata
     id="metadata1418"><rdf:RDF><cc:Work
         rdf:about=""><dc:format>image/svg+xml</dc:format><dc:type
           rdf:resource="http://purl.org/dc/dcmitype/StillImage" /><dc:title></dc:title></cc:Work></rdf:RDF></metadata><defs
     id="defs1416" /><sodipodi:namedview
     pagecolor="#ffffff"
     bordercolor="#666666"
     borderopacity="1"
     objecttolerance="10"
     gridtolerance="10"
     guidetolerance="10"
     inkscape:pageopacity="0"
     inkscape:pageshadow="2"
     inkscape:window-width="1920"
     inkscape:window-height="989"
     id="namedview1414"
     showgrid="false"
     fit-margin-top="0"
     fit-margin-left="0"
     fit-margin-right="0"
     fit-margin-bottom="0"
     inkscape:zoom="1.6621094"
     inkscape:cx="99.905408"
     inkscape:cy="170.55285"
     inkscape:window-x="0"
     inkscape:window-y="24"
     inkscape:window-maximized="1"
     inkscape:current-layer="g1387" /><style
     type="text/css"
     id="style1263">
	.st0{fill:#B9D171;}
	.st1{fill:#FFD9D4;}
	.st2{fill:#FFCB63;}
	.st3{fill:#FFB4A9;}
	.st4{fill:#E18F4E;}
	.st5{fill:#084F6D;}
	.st6{fill:#116F97;}
	.st7{fill:#002F42;}
	.st8{fill:#C27749;}
	.st9{fill:#FFE2A8;}
	.st10{fill:#40211D;}
	.st11{fill:#60312C;}
	.st12{fill:#FFF0D3;}
	.st13{fill:#FF6337;}
	.st14{fill:#FF8646;}
	.st15{fill:#FF4128;}
	.st16{fill:#D5E3AA;}
	.st17{fill:#49C9FF;}
	.st18{fill:#85453D;}
	.st19{fill:#A45E43;}
	.st20{fill:#C3D45F;}
	.st21{fill:#FFC275;}
	.st22{fill:#F44F5C;}
	.st23{fill:#46C99E;}
	.st24{fill:#FF974A;}
	.st25{fill:#7F6E5D;}
	.st26{fill:none;stroke:#CBB292;stroke-width:2;stroke-linecap:round;stroke-miterlimit:10;}
	.st27{fill:#CBB292;}
	.st28{fill:#070707;stroke:#0096E6;stroke-miterlimit:10;}
	.st29{fill:#F4E6CE;}
	.st30{fill:none;stroke:#7F6E5D;stroke-width:2;stroke-linecap:round;stroke-linejoin:round;stroke-miterlimit:10;}
	.st31{fill:#A4E869;}
	.st32{fill:#F0C419;stroke:#F0C419;stroke-width:2;stroke-linecap:round;stroke-linejoin:round;stroke-miterlimit:10;}
</style><g
     id="g1387"
     transform="translate(-156.09459,-165.4)"><path
       class="st0"
       d="m 345.9,203.5 c -1.6,0 -2.8,1.3 -2.8,2.9 v 4.5 c 0,16.4 -12.8,29.7 -28.6,29.7 h -11.3 v 5.8 h 11.3 c 18.9,0 34.3,-15.9 34.3,-35.6 v -4.5 c -0.1,-1.5 -1.4,-2.8 -2.9,-2.8 z"
       id="path1265"
       inkscape:connector-curvature="0"
       style="fill:#b9d171" /><path
       class="st1"
       d="m 158.9,203.5 c 1.6,0 2.8,1.3 2.8,2.9 v 4.5 c 0,16.4 12.8,29.7 28.6,29.7 h 11.3 v 5.8 h -11.2 c -18.9,0 -34.3,-15.9 -34.3,-35.5 v -4.5 c -0.1,-1.6 1.2,-2.9 2.8,-2.9 z"
       id="path1267"
       inkscape:connector-curvature="0"
       style="fill:#ffd9d4" /><rect
       x="266.5"
       y="240.60001"
       class="st2"
       width="16.9"
       height="5.8000002"
       id="rect1269"
       style="fill:#ffcb63" /><rect
       x="221.3"
       y="240.60001"
       class="st3"
       width="16.9"
       height="5.8000002"
       id="rect1271"
       style="fill:#ffb4a9" /><path
       class="st2"
       d="m 261.8,232.8 h -11.3 l 7.5,46.9 h 11.3 v -39.1 c 0,-4.3 -3.4,-7.8 -7.5,-7.8 z"
       id="path1291"
       inkscape:connector-curvature="0"
       style="fill:#ffcb63" /><path
       class="st9"
       d="M 250.5,232.8 H 243 c -4.1,0 -7.5,3.5 -7.5,7.8 v 39.1 H 258 v -39.1 c 0,-4.3 -3.4,-7.8 -7.5,-7.8 z"
       id="path1293"
       inkscape:connector-curvature="0"
       style="fill:#ffe2a8" /><path
       class="st8"
       d="m 268.3,197.6 -16,-7.8 v 31.3 c 9.3,0 16.9,-7.9 16.9,-17.6 0.1,-2.1 -0.2,-4 -0.9,-5.9 z"
       id="path1295"
       inkscape:connector-curvature="0"
       style="fill:#c27749" /><path
       class="st10"
       d="m 252.4,185.9 5.3,11.7 h 10.6 c -2.3,-6.8 -8.6,-11.7 -15.9,-11.7 z"
       id="path1297"
       inkscape:connector-curvature="0"
       style="fill:#40211d" /><path
       class="st4"
       d="m 257.7,197.6 -15.9,-7.8 c -3.8,3.2 -6.3,8.2 -6.3,13.7 0,9.7 7.6,17.6 16.9,17.6 3.1,0 5.6,-7.9 5.6,-17.6 0,-2.1 -0.1,-4 -0.3,-5.9 z"
       id="path1299"
       inkscape:connector-curvature="0"
       style="fill:#e18f4e" /><path
       class="st11"
       d="m 252.4,197.6 h 5.3 c -0.8,-6.8 -2.9,-11.7 -5.3,-11.7 -4,0 -7.7,1.5 -10.6,3.9 1.5,4.6 5.6,7.8 10.6,7.8 z"
       id="path1301"
       inkscape:connector-curvature="0"
       style="fill:#60312c" /><path
       class="st9"
       d="m 216.6,232.8 h -11.3 l -7.5,46.9 26.3,-11.7 v -27.3 c 0.1,-4.4 -3.3,-7.9 -7.5,-7.9 z"
       id="path1303"
       inkscape:connector-curvature="0"
       style="fill:#ffe2a8" /><path
       class="st12"
       d="m 205.3,232.8 h -7.5 c -4.1,0 -7.5,3.5 -7.5,7.8 v 39.1 h 22.6 v -39.1 c 0,-4.3 -3.4,-7.8 -7.6,-7.8 z"
       id="path1305"
       inkscape:connector-curvature="0"
       style="fill:#fff0d3" /><ellipse
       class="st13"
       cx="188.39999"
       cy="211.3"
       rx="9.3999996"
       ry="9.8000002"
       id="ellipse1311"
       style="fill:#ff6337" /><path
       class="st3"
       d="m 212.5,197.4 -5.3,23.6 c 9.3,0 16.9,-7.9 16.9,-17.6 z"
       id="path1313"
       inkscape:connector-curvature="0"
       style="fill:#ffb4a9" /><path
       class="st1"
       d="m 212.9,203.5 c 0,-2.1 -0.1,-4.1 -0.4,-6 l -15.5,-8 c -4.1,3.2 -6.8,8.3 -6.8,14.1 0,9.7 7.6,17.6 16.9,17.6 3.2,-0.1 5.8,-8 5.8,-17.7 z"
       id="path1315"
       inkscape:connector-curvature="0"
       style="fill:#ffd9d4" /><path
       class="st15"
       d="m 207.2,185.9 5.6,15.6 c 3.6,1.3 7.3,2 11.3,2 0.1,-9.7 -7.5,-17.6 -16.9,-17.6 z"
       id="path1317"
       inkscape:connector-curvature="0"
       style="fill:#ff4128" /><path
       class="st13"
       d="m 207.2,185.9 c -3.8,0 -7.3,1.3 -10.2,3.5 3.9,5.5 9.4,9.7 15.8,12 -0.3,-8.7 -2.7,-15.5 -5.6,-15.5 z"
       id="path1319"
       inkscape:connector-curvature="0"
       style="fill:#ff6337" /><path
       class="st0"
       d="m 306.9,232.8 h -11.3 l 7.5,46.9 h 11.3 v -39.1 c 0.1,-4.3 -3.3,-7.8 -7.5,-7.8 z"
       id="path1325"
       inkscape:connector-curvature="0"
       style="fill:#b9d171" /><path
       class="st16"
       d="m 295.6,232.8 h -7.5 c -4.1,0 -7.5,3.5 -7.5,7.8 v 39.1 h 22.6 v -39.1 c 0,-4.3 -3.4,-7.8 -7.6,-7.8 z"
       id="path1327"
       inkscape:connector-curvature="0"
       style="fill:#d5e3aa" /><path
       class="st10"
       d="m 294.7,225 v 43 c 0,1.6 1.2,2.9 2.8,2.9 1.6,0 2.8,-1.3 2.8,-2.9 v -43 z"
       id="path1329"
       inkscape:connector-curvature="0"
       style="fill:#40211d" /><ellipse
       class="st0"
       cx="175.8"
       cy="180"
       rx="5.5999999"
       ry="5.8000002"
       id="ellipse1331"
       style="fill:#b9d171" /><ellipse
       class="st3"
       cx="274.5"
       cy="174.2"
       rx="5.5999999"
       ry="5.8000002"
       id="ellipse1337"
       style="fill:#ffb4a9" /><ellipse
       class="st14"
       cx="197.39999"
       cy="168.3"
       rx="2.8"
       ry="2.9000001"
       id="ellipse1339"
       style="fill:#ff8646" /><ellipse
       class="st17"
       cx="229.8"
       cy="179.60001"
       rx="2.8"
       ry="2.9000001"
       id="ellipse1341"
       style="fill:#49c9ff" /><ellipse
       class="st2"
       cx="307.29999"
       cy="174.2"
       rx="2.8"
       ry="2.9000001"
       id="ellipse1343"
       style="fill:#ffcb63" /><ellipse
       class="st17"
       cx="164.5"
       cy="250.39999"
       rx="2.8"
       ry="2.9000001"
       id="ellipse1345"
       style="fill:#49c9ff" /><g
       id="g1351"><ellipse
         class="st14"
         cx="323.29999"
         cy="185.89999"
         rx="2.8"
         ry="2.9000001"
         id="ellipse1347"
         style="fill:#ff8646" /><ellipse
         class="st14"
         cx="340.20001"
         cy="250.39999"
         rx="2.8"
         ry="2.9000001"
         id="ellipse1349"
         style="fill:#ff8646" /></g><ellipse
       class="st17"
       cx="328.89999"
       cy="262.10001"
       rx="2.8"
       ry="2.9000001"
       id="ellipse1353"
       style="fill:#49c9ff" /><path
       class="st18"
       d="m 297.5,185.9 v 39.5 l 16.9,-18 v -3.9 c 0.1,-9.7 -7.6,-17.6 -16.9,-17.6 z"
       id="path1355"
       inkscape:connector-curvature="0"
       style="fill:#85453d" /><path
       class="st19"
       d="m 297.5,185.9 c -9.3,0 -16.9,7.9 -16.9,17.6 v 3.9 l 22.6,18 v -21.9 c 0,-9.7 -2.6,-17.6 -5.7,-17.6 z"
       id="path1357"
       inkscape:connector-curvature="0"
       style="fill:#a45e43" /><path
       class="st9"
       d="m 304.5,207.4 c -0.4,-0.6 -0.9,-1.2 -1.4,-1.7 l -5.6,27.1 c 9.3,0 16.9,-7.9 16.9,-17.6 v -7.8 z"
       id="path1359"
       inkscape:connector-curvature="0"
       style="fill:#ffe2a8" /><path
       class="st12"
       d="m 303.2,215.2 v -9.5 c -1.5,-1.4 -3.5,-2.2 -5.6,-2.2 -2.9,0 -5.5,1.5 -7,3.9 h -9.9 v 7.8 c 0,9.7 7.6,17.6 16.9,17.6 3,0 5.6,-7.9 5.6,-17.6 z"
       id="path1361"
       inkscape:connector-curvature="0"
       style="fill:#fff0d3" /><g
       id="g1381"><path
         class="st20"
         d="m 298.2,201 c 1.2,-1.2 2.1,-3 2.4,-4.9 0.1,-0.5 0.1,-1 0.1,-1.5 0,-2.6 -1,-4.9 -2.5,-6.4 -1.5,1.5 -2.5,3.9 -2.5,6.4 0,0.5 0,1 0.1,1.5 0.3,1.9 1.2,3.7 2.4,4.9 z"
         id="path1363"
         inkscape:connector-curvature="0"
         style="fill:#c3d45f" /><g
         id="g1369"><path
           class="st21"
           d="m 298.2,201 c -1.2,-1.2 -2.1,-3 -2.4,-4.9 -1.1,-1.2 -2.5,-1.9 -3.8,-2.3 -0.4,1.5 -0.4,3.1 0.1,4.8 0.2,0.7 0.5,1.4 0.9,2.1 0.6,1.1 1.4,2.1 2.3,2.8 0.1,0 0.2,0 0.2,0 0.4,-1.5 1.5,-2.5 2.7,-2.5 z"
           id="path1365"
           inkscape:connector-curvature="0"
           style="fill:#ffc275" /><path
           class="st21"
           d="m 300.6,196.1 c -0.3,2 -1.2,3.7 -2.4,4.9 1.2,0 2.3,1.1 2.7,2.5 0.1,0 0.2,0 0.2,0 0.9,-0.7 1.7,-1.7 2.3,-2.8 0.4,-0.7 0.7,-1.4 0.9,-2.1 0.5,-1.7 0.5,-3.3 0.1,-4.8 -1.4,0.3 -2.7,1.1 -3.8,2.3 z"
           id="path1367"
           inkscape:connector-curvature="0"
           style="fill:#ffc275" /></g><path
         class="st22"
         d="m 300.9,203.5 c -0.4,-1.5 -1.5,-2.5 -2.7,-2.5 -1.2,0 -2.3,1.1 -2.7,2.5 0,0 0,0.1 0,0.1 -0.1,0.4 -0.2,0.9 -0.2,1.3 0,0.4 0,0.8 0.2,1.2 0.4,1.6 1.5,2.7 2.8,2.7 1.3,0 2.4,-1.1 2.8,-2.7 0.1,-0.4 0.2,-0.8 0.2,-1.2 0,-0.4 -0.1,-0.9 -0.2,-1.3 -0.2,0 -0.2,-0.1 -0.2,-0.1 z"
         id="path1371"
         inkscape:connector-curvature="0"
         style="fill:#f44f5c" /><path
         class="st23"
         d="m 300.9,206.1 c -0.4,1.6 -1.5,2.7 -2.8,2.7 -1.3,0 -2.4,-1.1 -2.8,-2.7 -0.1,-0.4 -0.2,-0.8 -0.2,-1.2 0,-0.4 0.1,-0.9 0.2,-1.3 -0.1,0 -0.2,-0.1 -0.2,-0.2 -4.6,-0.9 -10.5,4.3 -14.6,-2.4 0,0 -0.2,7.7 3.5,10.3 0,0 -1.4,1.4 -3.5,2.1 3.9,6.8 10.3,9.8 17.6,5.4 7.3,4.4 13.7,1.4 17.6,-5.4 -2,-0.7 -3.5,-2.1 -3.5,-2.1 3.7,-2.6 3.5,-10.3 3.5,-10.3 -4.1,6.8 -10,1.6 -14.6,2.4 -0.1,0 -0.2,0.1 -0.2,0.2 0.1,0.4 0.2,0.9 0.2,1.3 0,0.4 -0.1,0.8 -0.2,1.2 z m 0.2,6 c 0,0 2.1,-2.8 8.4,-2.3 0,0 0.5,2.9 -1.4,3.3 -1.8,0.4 -4.2,0.2 -7,-1 z m -14.3,-2.3 c 6.2,-0.4 8.4,2.3 8.4,2.3 -2.8,1.3 -5.2,1.4 -7,1 -1.8,-0.4 -1.4,-3.3 -1.4,-3.3 z"
         id="path1373"
         inkscape:connector-curvature="0"
         style="fill:#46c99e" /><g
         id="g1379"><path
           class="st24"
           d="m 290.9,203.8 c 1.5,-0.3 3,-0.6 4.4,-0.4 -0.9,-0.7 -1.7,-1.7 -2.3,-2.8 -0.4,-0.7 -0.7,-1.4 -0.9,-2.1 -1.6,-0.5 -3.2,-0.5 -4.6,-0.1 0.4,2 1.6,4.1 3.4,5.4 z"
           id="path1375"
           inkscape:connector-curvature="0"
           style="fill:#ff974a" /><path
           class="st24"
           d="m 303.4,200.6 c -0.6,1.1 -1.4,2.1 -2.3,2.8 1.4,-0.2 2.9,0 4.4,0.4 1.8,-1.3 3,-3.4 3.4,-5.3 -1.4,-0.4 -3,-0.4 -4.6,0.1 -0.2,0.7 -0.5,1.3 -0.9,2 z"
           id="path1377"
           inkscape:connector-curvature="0"
           style="fill:#ff974a" /></g></g><path
       d="m 290.5,208 c 0,0 0.1,0 0.2,0 v 0 c 0.4,-0.1 0.6,-0.5 0.5,-0.9 -0.1,-0.4 -0.5,-0.6 -0.9,-0.6 v 0 c -0.4,0.1 -0.6,0.5 -0.5,0.9 0.1,0.3 0.4,0.6 0.7,0.6 z"
       id="path1383"
       inkscape:connector-curvature="0" /><path
       d="m 306.2,207.9 v 0 c 0.1,0 0.2,0 0.2,0 0.3,0 0.6,-0.2 0.7,-0.6 0.1,-0.4 -0.2,-0.8 -0.5,-0.9 v 0 c -0.4,-0.1 -0.8,0.2 -0.9,0.6 -0.1,0.5 0.2,0.9 0.5,0.9 z"
       id="path1385"
       inkscape:connector-curvature="0" /></g><g
     id="g1411"
     transform="translate(-156.09459,-165.4)"><path
       class="st25"
       d="m 353,192.8 v 0 c -0.2,2.2 -3.5,4 -7.5,4 -4,0 -7.4,-1.7 -7.5,-4 v 0 c -0.5,1.3 -0.7,2.7 -0.7,4.1 0,5.5 3.7,10 8.3,10 4.6,0 8.3,-4.5 8.3,-10 -0.2,-1.4 -0.4,-2.8 -0.9,-4.1 z"
       id="path1389"
       inkscape:connector-curvature="0"
       style="fill:#7f6e5d" /><path
       class="st26"
       d="m 339.8,198.7 c 0,3 2.3,5.5 5.3,5.5"
       id="path1391"
       inkscape:connector-curvature="0"
       style="fill:none;stroke:#cbb292;stroke-width:2;stroke-linecap:round;stroke-miterlimit:10" /><path
       class="st27"
       d="m 348.2,189.6 c -0.9,-0.2 -1.8,-0.2 -2.7,-0.2 -4.1,0 -7.5,1.7 -7.5,3.7 0,2.1 3.4,3.7 7.5,3.7 4.1,0 7.5,-1.7 7.5,-3.7 0,-1.3 -1.3,-2.4 -3.3,-3"
       id="path1393"
       inkscape:connector-curvature="0"
       style="fill:#cbb292" /><circle
       class="st28"
       cx="341.70001"
       cy="192.89999"
       id="ellipse1395"
       r="0.40000001"
       style="fill:#070707;stroke:#0096e6;stroke-miterlimit:10" /><path
       class="st29"
       d="m 347.4,191 c -0.6,-0.1 -1.2,-0.1 -1.9,-0.1 -3.9,0 -6,1.5 -6,2.1 0,0.6 2.1,2.1 6,2.1 3.9,0 6,-1.5 6,-2.1 0,-0.4 -0.9,-1.2 -2.5,-1.7 z"
       id="path1397"
       inkscape:connector-curvature="0"
       style="fill:#f4e6ce" /><circle
       class="st27"
       cx="343.20001"
       cy="192.89999"
       id="ellipse1399"
       r="0.40000001"
       style="fill:#cbb292" /><circle
       class="st27"
       cx="344.29999"
       cy="193.60001"
       id="ellipse1401"
       r="0.40000001"
       style="fill:#cbb292" /><circle
       class="st27"
       cx="344.70001"
       cy="192.10001"
       id="ellipse1403"
       r="0.40000001"
       style="fill:#cbb292" /><line
       class="st30"
       x1="339.29999"
       y1="187.89999"
       x2="341.70001"
       y2="192.89999"
       id="line1405"
       style="fill:none;stroke:#7f6e5d;stroke-width:2;stroke-linecap:round;stroke-linejoin:round;stroke-miterlimit:10" /><path
       class="st31"
       d="m 347,194.1 c -0.1,0 -0.2,0 -0.4,-0.1 -0.4,-0.2 -0.5,-0.7 -0.3,-1.1 l 4.1,-7.3 c 0.3,-0.6 0.8,-0.9 1.4,-1 0.6,-0.1 1.2,0.1 1.6,0.6 l 2.3,2.4 c 0.3,0.3 0.3,0.8 0,1.1 -0.3,0.3 -0.8,0.3 -1.1,0 l -2.3,-2.4 c -0.1,-0.1 -0.3,-0.1 -0.4,-0.1 -0.1,0 -0.2,0 -0.3,0.2 l -4.1,7.3 c 0,0.3 -0.3,0.4 -0.5,0.4 z"
       id="path1407"
       inkscape:connector-curvature="0"
       style="fill:#a4e869" /><path
       class="st32"
       d="m 336.2,189.9 c -0.2,-0.4 0.1,-0.9 0.5,-1.2 0.4,-0.3 0.9,-0.2 1.1,0.2 -0.2,-0.4 0,-0.9 0.4,-1.1 0.4,-0.2 0.9,-0.2 1.1,0.2 -0.2,-0.4 0,-0.9 0.4,-1.1 0.4,-0.2 0.9,-0.2 1.1,0.2 -0.2,-0.4 0,-0.9 0.4,-1.1 0.4,-0.2 0.9,-0.2 1.1,0.2 -1,-1.8 -3.2,-2.4 -4.9,-1.3 -1.6,0.9 -2.2,3.2 -1.2,5 z"
       id="path1409"
       inkscape:connector-curvature="0"
       style="fill:#f0c419;stroke:#f0c419;stroke-width:2;stroke-linecap:round;stroke-linejoin:round;stroke-miterlimit:10" /></g></svg>