<?xml version="1.0" encoding="UTF-8" standalone="no"?>
<!-- Generator: Adobe Illustrator 22.0.1, SVG Export Plug-In . SVG Version: 6.00 Build 0)  -->

<svg
   xmlns:dc="http://purl.org/dc/elements/1.1/"
   xmlns:cc="http://creativecommons.org/ns#"
   xmlns:rdf="http://www.w3.org/1999/02/22-rdf-syntax-ns#"
   xmlns:svg="http://www.w3.org/2000/svg"
   xmlns="http://www.w3.org/2000/svg"
   xmlns:sodipodi="http://sodipodi.sourceforge.net/DTD/sodipodi-0.dtd"
   xmlns:inkscape="http://www.inkscape.org/namespaces/inkscape"
   version="1.1"
   id="Layer_1"
   x="0px"
   y="0px"
   viewBox="0 0 504.1 504.1"
   style="enable-background:new 0 0 504.1 504.1;"
   xml:space="preserve"
   sodipodi:docname="thematique_journee.svg"
   inkscape:version="0.92.3 (unknown)"><metadata
     id="metadata9926"><rdf:RDF><cc:Work
         rdf:about=""><dc:format>image/svg+xml</dc:format><dc:type
           rdf:resource="http://purl.org/dc/dcmitype/StillImage" /></cc:Work></rdf:RDF></metadata><defs
     id="defs9924" /><sodipodi:namedview
     pagecolor="#ffffff"
     bordercolor="#666666"
     borderopacity="1"
     objecttolerance="10"
     gridtolerance="10"
     guidetolerance="10"
     inkscape:pageopacity="0"
     inkscape:pageshadow="2"
     inkscape:window-width="1920"
     inkscape:window-height="989"
     id="namedview9922"
     showgrid="false"
     inkscape:zoom="1.2405942"
     inkscape:cx="79.955047"
     inkscape:cy="252.05"
     inkscape:window-x="0"
     inkscape:window-y="24"
     inkscape:window-maximized="1"
     inkscape:current-layer="g9919" /><style
     type="text/css"
     id="style9503">
	.st0{fill:#26B99A;}
	.st1{fill:#38454F;}
	.st2{fill:#AFB6BB;}
	.st3{fill:#839594;}
	.st4{fill:#EDEADA;}
	.st5{fill:#CEC9AE;}
	.st6{fill:#334D5C;}
	.st7{fill:#D89C7D;}
	.st8{fill:#EAA786;}
	.st9{fill:#30150C;}
	.st10{fill:#DFA17C;}
	.st11{fill:#1D171B;}
	.st12{fill:#DE8484;}
	.st13{fill:#89342F;}
	.st14{fill:#FAF8FB;}
	.st15{fill:#F8FFFF;}
	.st16{fill:#6395CA;}
	.st17{fill:#BC8871;}
	.st18{fill:#EFE8E8;}
	.st19{fill:#36363D;}
	.st20{fill:#EA990A;}
	.st21{fill:#EFC206;}
	.st22{fill:#1267CC;}
	.st23{fill:#020200;}
	.st24{fill:#CE1332;}
	.st25{fill:#E0B373;}
	.st26{fill:#F4CB89;}
	.st27{fill:#EBF0F2;}
	.st28{fill:#ADB9BC;}
	.st29{fill:#191919;}
	.st30{fill:#5A5C5E;}
	.st31{fill:#4D4F51;}
	.st32{fill:#333435;}
	.st33{fill:#F2EB03;}
	.st34{fill:#CCD6DD;}
	.st35{fill:#AF7E57;}
	.st36{fill:#9B6A49;}
	.st37{fill:#915A34;}
	.st38{fill:#60352A;}
	.st39{fill:#E1E8ED;}
	.st40{fill:#9266CC;}
	.st41{fill:#A8BCCC;}
	.st42{fill:#66757F;}
	.st43{fill:#F5F8FA;}
	.st44{opacity:0.4;}
	.st45{fill:#FFFFFF;}
	.st46{opacity:0.2;enable-background:new    ;}
	.st47{fill:#4A5058;}
	.st48{fill:#F1F1F1;}
	.st49{fill:#BCBCBC;}
	.st50{fill:#FFF78A;}
	.st51{fill:#FBB03B;}
	.st52{fill:#FC611F;}
	.st53{fill:#D7ECED;}
	.st54{fill:#E64500;}
	.st55{fill:#F2CC7B;}
	.st56{fill:#F25F60;}
	.st57{fill:#F2F2F2;}
	.st58{opacity:0.1;enable-background:new    ;}
	.st59{fill:#FFD782;}
	.st60{fill:#FF6465;}
</style><g
     id="g9919"
     transform="matrix(2.3029703,0,0,2.2602501,-326.78496,-336.15272)"><polygon
       class="st0"
       points="297.2,176 204.4,176 150.8,176 150.8,220.9 350.8,220.9 350.8,176 "
       id="polygon9505"
       style="fill:#cecece;fill-opacity:1" /><ellipse
       class="st1"
       cx="218.7"
       cy="189.8"
       rx="7.0999999"
       ry="6.9000001"
       id="ellipse9507"
       style="fill:#38454f" /><ellipse
       class="st1"
       cx="240.10001"
       cy="189.8"
       rx="7.0999999"
       ry="6.9000001"
       id="ellipse9509"
       style="fill:#38454f" /><ellipse
       class="st1"
       cx="261.5"
       cy="189.8"
       rx="7.0999999"
       ry="6.9000001"
       id="ellipse9511"
       style="fill:#38454f" /><ellipse
       class="st1"
       cx="282.89999"
       cy="189.8"
       rx="7.0999999"
       ry="6.9000001"
       id="ellipse9513"
       style="fill:#38454f" /><path
       class="st2"
       d="m 282.9,158.8 c -4,0 -7.7,1.3 -10.7,3.5 1.9,1.4 3.5,3.1 4.7,5.2 1.7,-1.2 3.8,-1.8 6,-1.8 5.9,0 10.7,4.6 10.7,10.4 0,5.7 -4.8,10.4 -10.7,10.4 -2,0 -3.6,1.5 -3.6,3.5 0,1.9 1.6,3.5 3.6,3.5 9.9,0 17.9,-7.7 17.9,-17.3 0,-9.6 -8,-17.4 -17.9,-17.4 z"
       id="path9515"
       inkscape:connector-curvature="0"
       style="fill:#afb6bb" /><path
       class="st3"
       d="m 267.5,167.5 c -1.5,2.5 -2.4,5.4 -2.4,8.5 h 7.1 c 0,-3.5 -1.8,-6.6 -4.7,-8.5 z"
       id="path9517"
       inkscape:connector-curvature="0"
       style="fill:#839594" /><path
       class="st3"
       d="m 246.1,167.5 c -1.5,2.5 -2.4,5.4 -2.4,8.5 h 7.1 c 0,-3.5 -1.9,-6.6 -4.7,-8.5 z"
       id="path9519"
       inkscape:connector-curvature="0"
       style="fill:#839594" /><path
       class="st2"
       d="m 276.9,167.5 c -1.2,-2 -2.8,-3.8 -4.7,-5.2 -3,-2.2 -6.7,-3.5 -10.7,-3.5 -4,0 -7.7,1.3 -10.7,3.5 1.9,1.4 3.5,3.1 4.7,5.2 1.7,-1.2 3.8,-1.8 6,-1.8 2.2,0 4.3,0.7 6,1.8 2.8,1.9 4.7,5 4.7,8.5 0,5.7 -4.8,10.4 -10.7,10.4 -2,0 -3.6,1.5 -3.6,3.5 0,2 1.6,3.5 3.6,3.5 9.9,0 17.9,-7.7 17.9,-17.3 0,-3.2 -1,-6.1 -2.5,-8.6 z"
       id="path9521"
       inkscape:connector-curvature="0"
       style="fill:#afb6bb" /><path
       class="st3"
       d="m 224.7,167.5 c -1.5,2.5 -2.4,5.4 -2.4,8.5 h 7.1 c 0,-3.5 -1.9,-6.6 -4.7,-8.5 z"
       id="path9523"
       inkscape:connector-curvature="0"
       style="fill:#839594" /><path
       class="st2"
       d="m 255.5,167.5 c -1.2,-2 -2.8,-3.8 -4.7,-5.2 -3,-2.2 -6.7,-3.5 -10.7,-3.5 -4,0 -7.7,1.3 -10.7,3.5 1.9,1.4 3.5,3.1 4.7,5.2 1.7,-1.2 3.8,-1.8 6,-1.8 2.2,0 4.3,0.7 6,1.8 2.8,1.9 4.7,5 4.7,8.5 0,5.7 -4.8,10.4 -10.7,10.4 -2,0 -3.6,1.5 -3.6,3.5 0,2 1.6,3.5 3.6,3.5 9.9,0 17.9,-7.7 17.9,-17.3 -0.1,-3.2 -1,-6.1 -2.5,-8.6 z"
       id="path9525"
       inkscape:connector-curvature="0"
       style="fill:#afb6bb" /><path
       class="st2"
       d="m 234.1,167.5 c -1.2,-2 -2.8,-3.8 -4.7,-5.2 -3,-2.2 -6.7,-3.5 -10.7,-3.5 -9.9,0 -17.9,7.7 -17.9,17.3 h 7.1 c 0,-5.7 4.8,-10.4 10.7,-10.4 2.2,0 4.3,0.7 6,1.8 2.8,1.9 4.7,5 4.7,8.6 0,5.7 -4.8,10.4 -10.7,10.4 -2,0 -3.6,1.5 -3.6,3.5 0,1.9 1.6,3.5 3.6,3.5 9.9,0 17.9,-7.7 17.9,-17.3 0,-3.3 -0.9,-6.2 -2.4,-8.7 z"
       id="path9527"
       inkscape:connector-curvature="0"
       style="fill:#afb6bb" /><rect
       x="150.8"
       y="220.89999"
       class="st4"
       width="200"
       height="137.89999"
       id="rect9529"
       style="fill:#ffffff;fill-opacity:1" /><circle
       class="st5"
       cx="307.89999"
       cy="258.79999"
       r="20"
       id="circle9533"
       style="fill:#3b84ad;fill-opacity:1" /><circle
       class="st5"
       cx="193.7"
       cy="313.89999"
       r="20"
       id="circle9535"
       style="fill:#3b84ad;fill-opacity:1" /><circle
       class="st5"
       cx="250.8"
       cy="313.89999"
       r="20"
       id="circle9537"
       style="fill:#3b84ad;fill-opacity:1" /><circle
       class="st0"
       cx="307.89999"
       cy="313.89999"
       r="20"
       id="circle9539"
       style="fill:#3b84ad;fill-opacity:1" /><g
       id="g9545"
       style="fill:#3b84ad;fill-opacity:1"><circle
         class="st5"
         cx="190.60001"
         cy="255.8"
         r="20"
         id="circle9541"
         style="fill:#3b84ad;fill-opacity:1" /></g><g
       id="g9607"
       style="fill:#3b84ad;fill-opacity:1"><path
         class="st6"
         d="m 271.1,256.6 c 0,-11 -9,-20 -20,-20 -11,0 -20,9 -20,20 0,11 9,20 20,20 11,0 20,-8.9 20,-20 z"
         id="path9547"
         inkscape:connector-curvature="0"
         style="fill:#3b84ad;fill-opacity:1" /></g></g></svg>