<?xml version="1.0" encoding="UTF-8" standalone="no"?>
<!-- Generator: Adobe Illustrator 22.0.1, SVG Export Plug-In . SVG Version: 6.00 Build 0)  -->

<svg
   xmlns:dc="http://purl.org/dc/elements/1.1/"
   xmlns:cc="http://creativecommons.org/ns#"
   xmlns:rdf="http://www.w3.org/1999/02/22-rdf-syntax-ns#"
   xmlns:svg="http://www.w3.org/2000/svg"
   xmlns="http://www.w3.org/2000/svg"
   xmlns:sodipodi="http://sodipodi.sourceforge.net/DTD/sodipodi-0.dtd"
   xmlns:inkscape="http://www.inkscape.org/namespaces/inkscape"
   version="1.1"
   id="Layer_1"
   x="0px"
   y="0px"
   viewBox="0 0 504.1 504.1"
   style="enable-background:new 0 0 504.1 504.1;"
   xml:space="preserve"
   sodipodi:docname="thematique_journee.svg"
   inkscape:version="0.92.2 (unknown)"><metadata
     id="metadata9926"><rdf:RDF><cc:Work
         rdf:about=""><dc:format>image/svg+xml</dc:format><dc:type
           rdf:resource="http://purl.org/dc/dcmitype/StillImage" /></cc:Work></rdf:RDF></metadata><defs
     id="defs9924" /><sodipodi:namedview
     pagecolor="#ffffff"
     bordercolor="#666666"
     borderopacity="1"
     objecttolerance="10"
     gridtolerance="10"
     guidetolerance="10"
     inkscape:pageopacity="0"
     inkscape:pageshadow="2"
     inkscape:window-width="1920"
     inkscape:window-height="989"
     id="namedview9922"
     showgrid="false"
     inkscape:zoom="0.46816107"
     inkscape:cx="252.05"
     inkscape:cy="252.05"
     inkscape:window-x="0"
     inkscape:window-y="24"
     inkscape:window-maximized="1"
     inkscape:current-layer="Layer_1" /><style
     type="text/css"
     id="style9503">
	.st0{fill:#26B99A;}
	.st1{fill:#38454F;}
	.st2{fill:#AFB6BB;}
	.st3{fill:#839594;}
	.st4{fill:#EDEADA;}
	.st5{fill:#CEC9AE;}
	.st6{fill:#334D5C;}
	.st7{fill:#D89C7D;}
	.st8{fill:#EAA786;}
	.st9{fill:#30150C;}
	.st10{fill:#DFA17C;}
	.st11{fill:#1D171B;}
	.st12{fill:#DE8484;}
	.st13{fill:#89342F;}
	.st14{fill:#FAF8FB;}
	.st15{fill:#F8FFFF;}
	.st16{fill:#6395CA;}
	.st17{fill:#BC8871;}
	.st18{fill:#EFE8E8;}
	.st19{fill:#36363D;}
	.st20{fill:#EA990A;}
	.st21{fill:#EFC206;}
	.st22{fill:#1267CC;}
	.st23{fill:#020200;}
	.st24{fill:#CE1332;}
	.st25{fill:#E0B373;}
	.st26{fill:#F4CB89;}
	.st27{fill:#EBF0F2;}
	.st28{fill:#ADB9BC;}
	.st29{fill:#191919;}
	.st30{fill:#5A5C5E;}
	.st31{fill:#4D4F51;}
	.st32{fill:#333435;}
	.st33{fill:#F2EB03;}
	.st34{fill:#CCD6DD;}
	.st35{fill:#AF7E57;}
	.st36{fill:#9B6A49;}
	.st37{fill:#915A34;}
	.st38{fill:#60352A;}
	.st39{fill:#E1E8ED;}
	.st40{fill:#9266CC;}
	.st41{fill:#A8BCCC;}
	.st42{fill:#66757F;}
	.st43{fill:#F5F8FA;}
	.st44{opacity:0.4;}
	.st45{fill:#FFFFFF;}
	.st46{opacity:0.2;enable-background:new    ;}
	.st47{fill:#4A5058;}
	.st48{fill:#F1F1F1;}
	.st49{fill:#BCBCBC;}
	.st50{fill:#FFF78A;}
	.st51{fill:#FBB03B;}
	.st52{fill:#FC611F;}
	.st53{fill:#D7ECED;}
	.st54{fill:#E64500;}
	.st55{fill:#F2CC7B;}
	.st56{fill:#F25F60;}
	.st57{fill:#F2F2F2;}
	.st58{opacity:0.1;enable-background:new    ;}
	.st59{fill:#FFD782;}
	.st60{fill:#FF6465;}
</style><g
     id="g9919"
     transform="matrix(2.3029703,0,0,2.2602501,-326.78496,-336.15272)"><polygon
       class="st0"
       points="297.2,176 204.4,176 150.8,176 150.8,220.9 350.8,220.9 350.8,176 "
       id="polygon9505"
       style="fill:#26b99a" /><ellipse
       class="st1"
       cx="218.7"
       cy="189.8"
       rx="7.0999999"
       ry="6.9000001"
       id="ellipse9507"
       style="fill:#38454f" /><ellipse
       class="st1"
       cx="240.10001"
       cy="189.8"
       rx="7.0999999"
       ry="6.9000001"
       id="ellipse9509"
       style="fill:#38454f" /><ellipse
       class="st1"
       cx="261.5"
       cy="189.8"
       rx="7.0999999"
       ry="6.9000001"
       id="ellipse9511"
       style="fill:#38454f" /><ellipse
       class="st1"
       cx="282.89999"
       cy="189.8"
       rx="7.0999999"
       ry="6.9000001"
       id="ellipse9513"
       style="fill:#38454f" /><path
       class="st2"
       d="m 282.9,158.8 c -4,0 -7.7,1.3 -10.7,3.5 1.9,1.4 3.5,3.1 4.7,5.2 1.7,-1.2 3.8,-1.8 6,-1.8 5.9,0 10.7,4.6 10.7,10.4 0,5.7 -4.8,10.4 -10.7,10.4 -2,0 -3.6,1.5 -3.6,3.5 0,1.9 1.6,3.5 3.6,3.5 9.9,0 17.9,-7.7 17.9,-17.3 0,-9.6 -8,-17.4 -17.9,-17.4 z"
       id="path9515"
       inkscape:connector-curvature="0"
       style="fill:#afb6bb" /><path
       class="st3"
       d="m 267.5,167.5 c -1.5,2.5 -2.4,5.4 -2.4,8.5 h 7.1 c 0,-3.5 -1.8,-6.6 -4.7,-8.5 z"
       id="path9517"
       inkscape:connector-curvature="0"
       style="fill:#839594" /><path
       class="st3"
       d="m 246.1,167.5 c -1.5,2.5 -2.4,5.4 -2.4,8.5 h 7.1 c 0,-3.5 -1.9,-6.6 -4.7,-8.5 z"
       id="path9519"
       inkscape:connector-curvature="0"
       style="fill:#839594" /><path
       class="st2"
       d="m 276.9,167.5 c -1.2,-2 -2.8,-3.8 -4.7,-5.2 -3,-2.2 -6.7,-3.5 -10.7,-3.5 -4,0 -7.7,1.3 -10.7,3.5 1.9,1.4 3.5,3.1 4.7,5.2 1.7,-1.2 3.8,-1.8 6,-1.8 2.2,0 4.3,0.7 6,1.8 2.8,1.9 4.7,5 4.7,8.5 0,5.7 -4.8,10.4 -10.7,10.4 -2,0 -3.6,1.5 -3.6,3.5 0,2 1.6,3.5 3.6,3.5 9.9,0 17.9,-7.7 17.9,-17.3 0,-3.2 -1,-6.1 -2.5,-8.6 z"
       id="path9521"
       inkscape:connector-curvature="0"
       style="fill:#afb6bb" /><path
       class="st3"
       d="m 224.7,167.5 c -1.5,2.5 -2.4,5.4 -2.4,8.5 h 7.1 c 0,-3.5 -1.9,-6.6 -4.7,-8.5 z"
       id="path9523"
       inkscape:connector-curvature="0"
       style="fill:#839594" /><path
       class="st2"
       d="m 255.5,167.5 c -1.2,-2 -2.8,-3.8 -4.7,-5.2 -3,-2.2 -6.7,-3.5 -10.7,-3.5 -4,0 -7.7,1.3 -10.7,3.5 1.9,1.4 3.5,3.1 4.7,5.2 1.7,-1.2 3.8,-1.8 6,-1.8 2.2,0 4.3,0.7 6,1.8 2.8,1.9 4.7,5 4.7,8.5 0,5.7 -4.8,10.4 -10.7,10.4 -2,0 -3.6,1.5 -3.6,3.5 0,2 1.6,3.5 3.6,3.5 9.9,0 17.9,-7.7 17.9,-17.3 -0.1,-3.2 -1,-6.1 -2.5,-8.6 z"
       id="path9525"
       inkscape:connector-curvature="0"
       style="fill:#afb6bb" /><path
       class="st2"
       d="m 234.1,167.5 c -1.2,-2 -2.8,-3.8 -4.7,-5.2 -3,-2.2 -6.7,-3.5 -10.7,-3.5 -9.9,0 -17.9,7.7 -17.9,17.3 h 7.1 c 0,-5.7 4.8,-10.4 10.7,-10.4 2.2,0 4.3,0.7 6,1.8 2.8,1.9 4.7,5 4.7,8.6 0,5.7 -4.8,10.4 -10.7,10.4 -2,0 -3.6,1.5 -3.6,3.5 0,1.9 1.6,3.5 3.6,3.5 9.9,0 17.9,-7.7 17.9,-17.3 0,-3.3 -0.9,-6.2 -2.4,-8.7 z"
       id="path9527"
       inkscape:connector-curvature="0"
       style="fill:#afb6bb" /><rect
       x="150.8"
       y="220.89999"
       class="st4"
       width="200"
       height="137.89999"
       id="rect9529"
       style="fill:#edeada" /><ellipse
       class="st5"
       cx="250.8"
       cy="258.79999"
       rx="17.9"
       ry="17.299999"
       id="ellipse9531"
       style="fill:#cec9ae" /><circle
       class="st5"
       cx="307.89999"
       cy="258.79999"
       r="20"
       id="circle9533"
       style="fill:#cec9ae" /><circle
       class="st5"
       cx="193.7"
       cy="313.89999"
       r="20"
       id="circle9535"
       style="fill:#cec9ae" /><circle
       class="st5"
       cx="250.8"
       cy="313.89999"
       r="20"
       id="circle9537"
       style="fill:#cec9ae" /><circle
       class="st0"
       cx="307.89999"
       cy="313.89999"
       r="20"
       id="circle9539"
       style="fill:#26b99a" /><g
       id="g9545"><circle
         class="st5"
         cx="190.60001"
         cy="255.8"
         r="20"
         id="circle9541"
         style="fill:#cec9ae" /><path
         d="m 191,270.8 c 0,0 -0.1,0 -0.1,0 -0.5,0 -2.5,-0.1 -4,-0.4 -1.8,-0.4 -2.8,-0.6 -3.7,-1 -0.7,-0.3 -0.9,-0.8 -0.9,-1 -0.7,-0.1 -2.8,-0.7 -4.5,-2.2 -0.7,-0.7 -1.2,-1.3 -1.4,-1.8 v 0 c -0.4,-1 -0.3,-1.7 -0.2,-1.7 v 0 l 5.2,-11.6 c 0,-0.5 -0.2,-3.4 1.9,-6.3 2,-2.7 5.3,-3 6.4,-3.1 v -0.4 c 0,-0.1 0.1,-0.3 0.3,-0.3 h 2.3 c 0.1,0 0.3,0.1 0.3,0.3 v 0.4 c 1,0 4.5,0.3 6.4,3.1 2.1,2.9 1.9,5.8 1.9,6.3 l 5.2,11.6 v 0 c 0,0 0.1,0.7 -0.2,1.7 v 0 c -0.2,0.5 -0.7,1.1 -1.4,1.8 -1.7,1.5 -3.8,2.1 -4.5,2.2 0,0.3 -0.3,0.8 -0.9,1 -0.8,0.4 -1.9,0.6 -3.7,1 -1.5,0.3 -3.4,0.4 -4,0.4 -0.3,0 -0.4,0 -0.4,0 z m -8.3,-2.8 v 0 c 0,0 0,0.5 0.6,0.8 0.8,0.4 1.8,0.6 3.6,1 1.4,0.3 3.3,0.4 3.9,0.4 0.1,0 0.2,0 0.3,0 0.5,0 2.4,-0.1 3.9,-0.4 1.8,-0.4 2.7,-0.6 3.6,-1 0.6,-0.3 0.6,-0.8 0.6,-0.8 v 0 c 0,-0.3 -0.3,-1.4 -0.9,-2.9 -0.5,-1.3 -1.2,-2.3 -1.5,-2.8 -0.1,0.1 -0.3,0.2 -0.5,0.2 -0.2,0.3 -1,1.4 -2.4,2.3 -1.5,0.9 -2.7,1.3 -2.7,1.3 0,0 0,0 -0.1,0 v 0 0 c 0,0 0,0 -0.1,0 0,0 -1.2,-0.4 -2.7,-1.3 -1.4,-0.9 -2.3,-2 -2.4,-2.3 -0.2,0 -0.4,-0.1 -0.5,-0.2 -0.3,0.5 -1,1.5 -1.5,2.8 -0.9,1.5 -1.1,2.6 -1.2,2.9 z m -5.8,-3.9 c 0.2,0.4 0.6,1 1.2,1.5 1.5,1.3 3.4,1.9 4.1,2 0.1,-0.3 0.2,-0.9 0.5,-1.7 0,-0.2 0.3,-1.3 0.3,-3.6 0,-2.6 -0.8,-5.4 -0.8,-5.5 v 0 0 0 c 0,0 0,-0.1 0,-0.2 v 0 0 0 c 0,0 0.1,-0.1 0.1,-0.1 v 0 0 0 0 0 l 6.7,-1.2 c 0.1,0 0.2,0 0.3,0.1 0.1,0.1 0,0.2 0,0.3 l -3.7,4.4 c 0,0 -0.1,0.1 -0.2,0.1 -0.1,0 -0.1,0 -0.2,-0.1 l -2.3,-2.4 c 0.2,1.1 0.5,2.9 0.5,4.6 0,0.5 0,1 0,1.4 0.5,-0.9 1,-1.7 1.2,-1.9 0,-0.1 0,-0.1 0,-0.2 0,-0.6 0.5,-1 1.1,-1 0.3,0 0.6,0.1 0.8,0.3 l 3.3,-5.5 c 0.2,-0.4 0.6,-0.6 1,-0.6 0.4,0 0.8,0.2 1,0.6 l 0.4,0.7 v 0 l 2.8,4.8 c 0.2,-0.2 0.5,-0.3 0.8,-0.3 0.6,0 1.1,0.5 1.1,1 0,0.1 0,0.2 0,0.2 0.2,0.3 0.8,1 1.3,2.1 0,-0.4 0,-0.9 0,-1.6 0,-1.8 0.3,-3.6 0.6,-4.7 l -2.4,2.5 c 0,0 -0.1,0.1 -0.2,0.1 -0.1,0 -0.1,0 -0.2,-0.1 l -3.7,-4.4 c -0.1,-0.1 -0.1,-0.2 0,-0.3 0,-0.1 0.2,-0.1 0.3,-0.1 l 6.7,1.2 c 0,0 0,0 0.1,0 0.1,0 0.2,0.2 0.2,0.3 0,0 -0.8,2.9 -0.8,5.5 0,2.6 0.3,3.6 0.3,3.6 0,0 0,0.1 0,0.2 0.2,0.7 0.3,1.2 0.4,1.5 0.7,-0.2 2.6,-0.7 4.1,-2 0.6,-0.6 1,-1.1 1.2,-1.5 l -5.6,-12.8 c -0.1,-0.2 -1.5,-1.9 -3.8,-2.1 -2.3,-0.2 -2.9,0.9 -3,1 0,0.2 -0.1,0.7 -0.8,0.9 -0.3,0.1 -0.5,0 -0.7,0 -0.1,0 -0.2,-0.1 -0.2,-0.2 0,0 -0.1,0.1 -0.2,0.2 -0.2,0.1 -0.4,0.1 -0.7,0 -0.6,-0.2 -0.7,-0.8 -0.8,-0.9 -0.1,-0.2 -0.8,-1.3 -3,-1 -2.3,0.2 -3.7,1.9 -3.8,2.1 z m 9.4,-1.6 c 0.3,0.4 1,1.3 2.1,1.9 1.2,0.7 2.3,1.1 2.5,1.2 0.3,-0.1 1.3,-0.5 2.5,-1.2 1.1,-0.6 1.8,-1.5 2.1,-1.9 -0.3,-0.1 -0.5,-0.5 -0.6,-0.8 H 187 c -0.1,0.4 -0.4,0.7 -0.7,0.8 z m -9.7,0.1 c 0,0 0,0.3 0,0.7 l 5.3,-12.2 c 0,0 0,0 0,0 0,-0.1 1.5,-2.2 4.3,-2.4 2.3,-0.2 3.2,0.8 3.5,1.2 0.2,0 0.5,-0.1 0.8,0 0.2,0 0.4,0.1 0.5,0.2 0.1,-0.1 0.3,-0.2 0.5,-0.2 0.2,0 0.6,0 0.8,0 0.3,-0.4 1.3,-1.4 3.5,-1.2 2.7,0.3 4.2,2.3 4.3,2.4 0,0 0,0 0,0 l 5.3,12.2 c 0,-0.3 0,-0.6 0,-0.7 l -5.2,-11.7 c 0,0 0,-0.1 0,-0.1 0,0 0.3,-3 -1.8,-6 -1.8,-2.5 -4.9,-2.8 -5.9,-2.8 v 6.3 c 0.7,-0.5 2,-1.2 3.4,-1.1 2,0.1 3.7,1.6 3.8,1.7 0.1,0.1 0.1,0.3 0,0.4 -0.1,0.1 -0.3,0.1 -0.4,0 0,0 -1.6,-1.5 -3.4,-1.5 -1.8,0 -3.4,1.3 -3.4,1.3 -0.1,0.1 -0.2,0.1 -0.3,0 -0.1,-0.1 -0.2,-0.1 -0.2,-0.2 v -7.1 0 -0.4 h -1.8 v 0.4 0 7.1 c 0,0.1 0,0.2 -0.2,0.2 -0.1,0 -0.2,0 -0.3,0 0,0 -1.6,-1.4 -3.4,-1.3 -1.8,0 -3.4,1.5 -3.4,1.5 -0.1,0.1 -0.3,0.1 -0.4,0 -0.1,-0.1 -0.1,-0.3 0,-0.4 0,0 1.8,-1.6 3.8,-1.7 1.4,0 2.7,0.7 3.4,1.1 V 242 c -1,0 -4.2,0.3 -5.9,2.8 -2.1,3 -1.8,6 -1.8,6 0,0 0,0.1 0,0.1 z m 19.5,-1.5 c -0.3,0 -0.5,0.2 -0.5,0.5 0,0.3 0.2,0.5 0.5,0.5 0.3,0 0.5,-0.2 0.5,-0.5 0,-0.3 -0.3,-0.5 -0.5,-0.5 z m -10.3,0 c -0.3,0 -0.5,0.2 -0.5,0.5 0,0.3 0.2,0.5 0.5,0.5 0.3,0 0.5,-0.2 0.5,-0.5 0,-0.3 -0.2,-0.5 -0.5,-0.5 z m 7.9,0 h 1.1 l -1.1,-1.8 z m -1.3,0 h 0.6 v -2.8 0 l -0.6,-1 z m -1.1,0 h 0.6 v -4.9 l -0.4,-0.7 c 0,-0.1 -0.1,-0.2 -0.2,-0.2 z m -1.3,0 h 0.6 v -5.8 c -0.1,0 -0.2,0.1 -0.2,0.3 l -0.4,0.7 v 0 z m -1.2,0 h 0.6 v -3.9 l -0.6,1.1 v 0 z m -1.7,0 h 1.1 v -1.9 z m 6.3,-5.2 3,3.5 2.4,-2.6 z m -10.3,1 2.4,2.6 3,-3.5 z m 6.8,-6.5 c 0,0.1 0.1,0.2 0.3,0.3 0.1,0 0.2,0 0.2,0 0,0 0.1,-0.1 0.1,-0.1 0,0 -0.1,-0.1 -0.3,-0.1 0,-0.1 -0.2,-0.1 -0.3,-0.1 z m 1.4,0.1 c 0,0 0.1,0.1 0.1,0.1 0,0 0.1,0 0.2,0 0.2,-0.1 0.3,-0.2 0.3,-0.3 -0.1,0 -0.3,0 -0.4,0 0,0.1 -0.1,0.1 -0.2,0.2 z m 4.2,4.5 c -0.6,0 -1.1,0 -1.6,-0.2 -0.9,-0.2 -1.5,-0.9 -1.7,-1.9 0,-0.1 0,-0.1 0,-0.2 0,-0.9 0.5,-1.8 1.4,-2.3 0.7,-0.3 1.5,-0.5 2.3,-0.5 2.4,0 3.3,1.9 3.3,2.9 0,0.8 -0.4,1.8 -1.7,2 -0.5,0.1 -1.2,0.2 -2,0.2 z m 0.5,-4.6 c -0.8,0 -1.5,0.1 -2.1,0.5 -0.7,0.3 -1.1,1 -1.1,1.7 0,0 0,0.1 0,0.2 v 0 c 0.1,0.8 0.5,1.2 1.2,1.4 1.1,0.3 2.6,0.1 3.5,0 1.2,-0.2 1.2,-1.2 1.2,-1.5 0,-0.4 -0.5,-2.3 -2.7,-2.3 z m -9.6,4.6 c -0.7,0 -1.5,-0.1 -2.1,-0.2 -1.3,-0.2 -1.8,-1.2 -1.7,-2 0,-0.9 0.9,-2.9 3.3,-2.9 0.9,0 1.7,0.2 2.3,0.5 0.9,0.5 1.5,1.3 1.4,2.3 0,0.1 0,0.2 0,0.2 -0.1,1 -0.7,1.6 -1.7,1.9 -0.4,0.1 -0.9,0.2 -1.5,0.2 z m -0.5,-4.6 c -2.2,0 -2.7,1.8 -2.7,2.4 0,0.3 0,1.3 1.2,1.5 0.8,0.1 2.4,0.3 3.5,0 0.7,-0.2 1.1,-0.7 1.2,-1.4 0,0 0,-0.1 0,-0.2 v 0 c 0,-0.7 -0.4,-1.4 -1.1,-1.7 -0.6,-0.4 -1.3,-0.6 -2.1,-0.6 z m 5.8,3.7 h -1.5 c -0.1,0 -0.3,-0.1 -0.3,-0.3 0,-0.1 0.1,-0.3 0.3,-0.3 h 1.5 c 0.1,0 0.3,0.1 0.3,0.3 0,0.2 -0.1,0.3 -0.3,0.3 z m -0.3,-0.8 h -0.9 c -0.1,0 -0.3,-0.1 -0.3,-0.3 0,-0.1 0.1,-0.3 0.3,-0.3 h 0.9 c 0.1,0 0.3,0.1 0.3,0.3 0,0.1 -0.1,0.3 -0.3,0.3 z m 0,-0.9 h -0.9 c -0.1,0 -0.3,-0.1 -0.3,-0.3 0,-0.1 0.1,-0.3 0.3,-0.3 h 0.9 c 0.1,0 0.3,0.1 0.3,0.3 0,0.2 -0.1,0.3 -0.3,0.3 z"
         id="path9543"
         inkscape:connector-curvature="0" /></g><g
       id="g9607"><path
         class="st6"
         d="m 271.1,256.6 c 0,-11 -9,-20 -20,-20 -11,0 -20,9 -20,20 0,11 9,20 20,20 11,0 20,-8.9 20,-20 z"
         id="path9547"
         inkscape:connector-curvature="0"
         style="fill:#334d5c" /><path
         class="st7"
         d="m 245.6,265.3 c 0,-0.2 0.2,-3.8 0.2,-3.8 h 1 l 10.7,1.6 -1.9,7.5 z"
         id="path9549"
         inkscape:connector-curvature="0"
         style="fill:#d89c7d" /><path
         class="st8"
         d="m 244.9,258.5 c 0,0 1.7,5 3.6,6 2,1 4.6,2.3 7.3,1.7 2.6,-0.6 3.7,-2 4.4,-4.2 0.7,-2.2 1.1,-8.7 0.4,-9.8 -0.7,-1 -3.7,-11.5 -10.4,-6.5 -6.9,5 -7.3,7.4 -5.3,12.8 z"
         id="path9551"
         inkscape:connector-curvature="0"
         style="fill:#eaa786" /><path
         class="st9"
         d="m 260.3,251.9 c -0.9,-0.2 -2.4,-0.3 -2.7,-0.2 -0.4,0.2 -0.2,0.9 -0.1,1.1 0.1,0.1 2,0.3 3.2,0.4 -0.1,-0.5 -0.2,-0.8 -0.3,-1 0.1,-0.1 0.1,-0.2 -0.1,-0.3 z"
         id="path9553"
         inkscape:connector-curvature="0"
         style="fill:#30150c" /><polygon
         class="st10"
         points="241.6,257.7 245.2,257.9 246.4,261.9 242.6,260.9 "
         id="polygon9555"
         style="fill:#dfa17c" /><path
         class="st11"
         d="m 260.7,252.5 c -0.7,-0.7 -1.1,-0.7 -1.7,-0.9 -0.5,-0.2 -3,-3.1 -3.9,-4.7 0,0 -0.5,3.6 0.9,4.7 0,0 -1.6,-0.6 -1.6,-4.9 0,0 -1.8,0.4 -2.7,5.2 0,0 -1,-2.6 -1,-4.2 0,0 -1.3,1.4 -1.9,4.9 0,0 -0.5,-1.3 -0.3,-1.8 0.2,-0.5 -1.2,1.8 -1,2.6 0.2,0.8 -1.4,-0.6 -1.5,-1 -0.1,-0.4 -0.4,5.3 0.1,5.8 0.5,0.5 -2.4,1.1 -3.5,0.5 -0.3,-0.2 -0.3,0.4 0.1,0.8 0.4,0.4 1.6,2.1 3.1,1.1 l -0.2,1.6 -0.1,2.4 c 0,0 -0.9,-0.1 -1.5,1.5 l -1.6,-1.3 0.2,-1.7 -0.6,-1 -1.1,-2.5 c 0,0 -0.2,-1.9 -0.1,-1.6 0.1,0.3 -0.5,-0.4 -0.6,-1.2 -0.1,-0.8 -0.1,-1.7 -0.1,-1.7 0,0 -0.4,-1.9 -0.4,-2.4 0,-0.5 0.1,-2.9 0.3,-3.8 0.2,-0.9 0.6,-2.3 1.1,-2.9 0.5,-0.6 2.6,-3.3 4.5,-3.5 0,0 3.6,-3.7 10.4,-0.9 0,0 3.8,0.7 5.6,6.2 0,0 0.9,2 0.6,4 0,0 -0.8,5.4 -1.6,6.4"
         id="path9557"
         inkscape:connector-curvature="0"
         style="fill:#1d171b" /><path
         class="st12"
         d="m 256.1,262.4 c 0,0 1.7,0 2.4,-0.8 l -5.8,0.2 c 0.1,0 1.1,0.5 3.4,0.6 z"
         id="path9559"
         inkscape:connector-curvature="0"
         style="fill:#de8484" /><path
         class="st13"
         d="m 252.8,261.8 c 0,0 1.7,-1.2 3.4,-0.7 0,0 1.9,-0.4 2.3,0.6 z"
         id="path9561"
         inkscape:connector-curvature="0"
         style="fill:#89342f" /><path
         class="st14"
         d="m 250.5,254.2 c 0,0 1.8,-1.2 3.2,0.4 0,0 -1.8,0.8 -3.2,0.1 z"
         id="path9563"
         inkscape:connector-curvature="0"
         style="fill:#faf8fb" /><path
         class="st15"
         d="m 245.6,264.8 c -1.5,0.1 -1.8,2.8 -1.8,2.8 4.5,0.6 9.9,6.9 11.3,8.6 1.5,-0.3 2.8,-0.8 4.1,-1.3 -0.8,-1.2 -2,-2.6 -3.4,-4.4 -2.6,-3.5 -10.2,-5.7 -10.2,-5.7 z"
         id="path9565"
         inkscape:connector-curvature="0"
         style="fill:#f8ffff" /><path
         class="st16"
         d="m 243.8,267.5 c -3.2,-0.2 -4.9,2.4 -5.8,4.3 3.5,2.9 8,4.8 13,4.8 1.6,0 3.2,-0.2 4.7,-0.6 v 0 c -1.6,-2.6 -7,-8.1 -11.9,-8.5 z"
         id="path9567"
         inkscape:connector-curvature="0"
         style="fill:#6395ca" /><g
         id="g9575"><path
           class="st17"
           d="m 255.1,259 c 0,0 -0.1,-0.3 0.1,-0.4 0.3,-0.3 0.8,-0.2 1.1,0.5 0,0.1 -1.2,-0.1 -1.2,-0.1 z"
           id="path9569"
           inkscape:connector-curvature="0"
           style="fill:#bc8871" /><path
           class="st17"
           d="m 256.8,259 c 0,0 0.6,-0.8 0.8,-0.6 0.2,0.3 0.2,0.6 0,0.6 -0.2,0.1 -0.8,0 -0.8,0 z"
           id="path9571"
           inkscape:connector-curvature="0"
           style="fill:#bc8871" /><path
           class="st17"
           d="m 254.3,257.3 c 0,0.4 -0.1,0.7 -0.1,1 0,0.2 0,0.3 0.1,0.5 0.1,0.2 0.1,0.3 0.3,0.4 -0.1,0 -0.2,-0.1 -0.3,-0.1 -0.1,-0.1 -0.1,-0.2 -0.2,-0.2 -0.1,-0.2 -0.1,-0.4 -0.1,-0.5 0,-0.2 0.1,-0.4 0.1,-0.5 0.1,-0.3 0.1,-0.5 0.2,-0.6 z"
           id="path9573"
           inkscape:connector-curvature="0"
           style="fill:#bc8871" /></g><path
         class="st9"
         d="m 248.9,253.5 1.5,-1 c 0,0 3.9,0 4,-0.2 0.2,-0.2 0.4,-0.9 0.1,-1.1 -0.4,-0.2 -3.3,-0.1 -3.5,0 -0.3,0.1 -1.8,1.6 -2.1,1.9 -0.4,0.4 -0.2,0.4 0,0.4 z"
         id="path9577"
         inkscape:connector-curvature="0"
         style="fill:#30150c" /><g
         id="g9585"><path
           class="st13"
           d="m 259.1,257 c -1.2,0 -2.3,-1 -2.3,-2.3 0,-1.2 1,-2.3 2.3,-2.3 1.2,0 2.3,1 2.3,2.3 0,1.3 -1.1,2.3 -2.3,2.3 z m 0,-4.3 c -1.1,0 -2.1,0.9 -2.1,2.1 0,1.1 0.9,2.1 2.1,2.1 1.1,0 2.1,-0.9 2.1,-2.1 0,-1.2 -1,-2.1 -2.1,-2.1 z"
           id="path9579"
           inkscape:connector-curvature="0"
           style="fill:#89342f" /><path
           class="st13"
           d="m 254.9,254.5 -0.2,-0.2 c 0.1,0 0.9,-0.7 1.6,-0.5 0.3,0.1 0.6,0.3 0.7,0.6 l -0.2,0.1 c -0.2,-0.3 -0.3,-0.4 -0.6,-0.5 -0.6,-0.1 -1.3,0.5 -1.3,0.5 z"
           id="path9581"
           inkscape:connector-curvature="0"
           style="fill:#89342f" /><rect
           x="247.7"
           y="252.60001"
           transform="matrix(0.00710884,-1,1,0.00710884,-8.3519,500.4722)"
           class="st13"
           width="0.30000001"
           height="3.8"
           id="rect9583"
           style="fill:#89342f" /></g><rect
         x="249.60001"
         y="254.3"
         class="st18"
         width="0.69999999"
         height="0.5"
         id="rect9587"
         style="fill:#efe8e8" /><path
         class="st13"
         d="m 252.6,256.9 c -1.2,0 -2.3,-1 -2.3,-2.3 0,-1.3 1,-2.3 2.3,-2.3 1.2,0 2.3,1 2.3,2.3 0,1.3 -1,2.3 -2.3,2.3 z m 0,-4.4 c -1.1,0 -2.1,0.9 -2.1,2.1 0,1.1 0.9,2.1 2.1,2.1 1.1,0 2.1,-0.9 2.1,-2.1 0,-1.1 -1,-2.1 -2.1,-2.1 z"
         id="path9589"
         inkscape:connector-curvature="0"
         style="fill:#89342f" /><path
         class="st14"
         d="m 257.3,254.5 c 0,0 0.4,1 2.6,0.5 0,-0.1 -0.9,-1.9 -2.6,-0.5 z"
         id="path9591"
         inkscape:connector-curvature="0"
         style="fill:#faf8fb" /><g
         id="g9597"><path
           class="st19"
           d="m 258.7,254.5 c 0,-0.2 -0.1,-0.4 -0.2,-0.5 -0.4,0 -0.7,0.2 -1.2,0.5 0,0 0.2,0.5 1.1,0.6 0.2,-0.2 0.3,-0.4 0.3,-0.6 z"
           id="path9593"
           inkscape:connector-curvature="0"
           style="fill:#36363d" /><path
           class="st19"
           d="m 252.1,254.3 c 0,-0.2 -0.1,-0.4 -0.2,-0.5 -0.5,0 -1,0.2 -1.2,0.3 0,0.1 0,0.1 0,0.2 0,0.2 0.1,0.4 0.3,0.6 0.3,0.1 0.5,0.1 0.7,0.1 0.2,-0.2 0.4,-0.4 0.4,-0.7 z"
           id="path9595"
           inkscape:connector-curvature="0"
           style="fill:#36363d" /></g><g
         id="g9603"><path
           class="st10"
           d="m 257.3,254.9 c 0.2,0.2 0.4,0.3 0.5,0.4 0.2,0.1 0.4,0.2 0.6,0.3 0.2,0.1 0.4,0.1 0.6,0.1 0.2,0.1 0.4,0.1 0.7,0.1 -0.2,0.1 -0.5,0.1 -0.7,0.1 -0.2,0 -0.5,0 -0.7,-0.1 -0.2,-0.1 -0.4,-0.2 -0.6,-0.3 -0.1,-0.2 -0.3,-0.4 -0.4,-0.6 z"
           id="path9599"
           inkscape:connector-curvature="0"
           style="fill:#dfa17c" /><path
           class="st10"
           d="m 253.7,254.9 c -0.1,0.1 -0.1,0.2 -0.2,0.3 -0.1,0.1 -0.2,0.1 -0.3,0.2 -0.2,0.1 -0.4,0.2 -0.6,0.2 -0.2,0.1 -0.4,0.1 -0.6,0.1 -0.2,0 -0.4,-0.1 -0.6,-0.1 0.2,-0.1 0.4,-0.1 0.6,-0.1 0.2,0 0.4,-0.1 0.6,-0.1 0.2,-0.1 0.4,-0.1 0.6,-0.1 0.1,0 0.2,-0.1 0.3,-0.1 0,-0.2 0.1,-0.2 0.2,-0.3 z"
           id="path9601"
           inkscape:connector-curvature="0"
           style="fill:#dfa17c" /></g><path
         class="st17"
         d="m 257.3,256.5 c 0.1,0.1 0.2,0.2 0.3,0.3 0.1,0.1 0.2,0.2 0.2,0.4 0.1,0.1 0.1,0.3 0.2,0.4 0.1,0.1 0.1,0.3 0.1,0.4 -0.1,-0.1 -0.1,-0.3 -0.2,-0.4 l -0.2,-0.4 c -0.1,-0.1 -0.1,-0.3 -0.2,-0.4 -0.1,-0.1 -0.1,-0.2 -0.2,-0.3 z"
         id="path9605"
         inkscape:connector-curvature="0"
         style="fill:#bc8871" /></g><g
       id="g9755"><g
         id="g9681"><g
           id="g9617"><path
             class="st20"
             d="m 300.4,256.1 c 0.5,0.6 0.2,1.7 -0.7,2.5 -0.9,0.8 -5.8,4.4 -6.4,3.8 -0.5,-0.6 3.6,-5.1 4.5,-5.9 1,-0.8 2.1,-1 2.6,-0.4 z"
             id="path9609"
             inkscape:connector-curvature="0"
             style="fill:#ea990a" /><path
             class="st20"
             d="m 301.5,256.1 c -0.5,0.6 -0.2,1.7 0.7,2.5 0.9,0.8 5.8,4.4 6.4,3.8 0.5,-0.6 -3.6,-5.1 -4.5,-5.9 -0.9,-0.8 -2,-1 -2.6,-0.4 z"
             id="path9611"
             inkscape:connector-curvature="0"
             style="fill:#ea990a" /><path
             class="st20"
             d="m 305.8,264.3 c 0,1 -0.8,6.4 -1.8,6.4 -1,0 -1.8,-5.4 -1.8,-6.4 0,-1 0.8,-1.8 1.8,-1.8 1,-0.1 1.8,0.7 1.8,1.8 z"
             id="path9613"
             inkscape:connector-curvature="0"
             style="fill:#ea990a" /><path
             class="st20"
             d="m 299.7,264.3 c 0,1 -0.8,6.4 -1.8,6.4 -1,0 -1.8,-5.4 -1.8,-6.4 0,-1 0.8,-1.8 1.8,-1.8 1,-0.1 1.8,0.7 1.8,1.8 z"
             id="path9615"
             inkscape:connector-curvature="0"
             style="fill:#ea990a" /></g><path
           class="st21"
           d="m 306.1,261.8 c 0,6.5 -2.3,4.4 -5.1,4.4 -2.8,0 -5.1,2.2 -5.1,-4.4 0,-3.7 2.3,-6.7 5.1,-6.7 2.8,0 5.1,3 5.1,6.7 z"
           id="path9619"
           inkscape:connector-curvature="0"
           style="fill:#efc206" /><g
           id="g9625"><path
             class="st22"
             d="m 296.6,267.3 c 0.3,1.4 0.7,2.8 1.1,3.2 h 0.5 c 0.5,-0.4 0.9,-1.8 1.1,-3.2 z"
             id="path9621"
             inkscape:connector-curvature="0"
             style="fill:#1267cc" /><path
             class="st22"
             d="m 302.7,267.3 c 0.3,1.4 0.7,2.8 1.1,3.2 h 0.5 c 0.5,-0.4 0.9,-1.8 1.1,-3.2 z"
             id="path9623"
             inkscape:connector-curvature="0"
             style="fill:#1267cc" /></g><path
           class="st21"
           d="m 307.6,252 c 0,3.2 -3,4.9 -6.6,4.9 -3.7,0 -6.6,-1.6 -6.6,-4.9 0,-3.3 3,-6.4 6.6,-6.4 3.7,0 6.6,3.2 6.6,6.4 z"
           id="path9627"
           inkscape:connector-curvature="0"
           style="fill:#efc206" /><path
           class="st20"
           d="m 307.6,252 c 0,3.2 -3,5.2 -6.6,5.2 -3.7,0 -6.6,-1.9 -6.6,-5.2"
           id="path9629"
           inkscape:connector-curvature="0"
           style="fill:#ea990a" /><g
           id="g9635"><polygon
             class="st23"
             points="293.4,245.9 293.7,251.5 301,254.8 301,250.3 "
             id="polygon9631"
             style="fill:#020200" /><polygon
             class="st23"
             points="308.6,245.9 308.3,251.5 300.9,254.8 300.9,250.3 "
             id="polygon9633"
             style="fill:#020200" /></g><g
           id="g9641"><path
             class="st22"
             d="m 294.4,260.4 c -0.7,1 -1.2,1.8 -1,2 0.2,0.2 1,-0.2 2.1,-0.8 l 0.1,-0.1 z"
             id="path9637"
             inkscape:connector-curvature="0"
             style="fill:#1267cc" /><path
             class="st22"
             d="m 306.5,261.6 c 1.1,0.7 2,1.1 2.2,0.9 0.2,-0.2 -0.3,-1 -1,-2 z"
             id="path9639"
             inkscape:connector-curvature="0"
             style="fill:#1267cc" /></g><path
           class="st24"
           d="m 296.1,264.8 h 9.7 c 0.1,-0.4 0.2,-0.8 0.2,-1.2 h -10.2 c 0.1,0.4 0.3,0.8 0.3,1.2 z"
           id="path9643"
           inkscape:connector-curvature="0"
           style="fill:#ce1332" /><path
           class="st25"
           d="m 298.2,253.2 v 3.3 l 0.1,0.1 c 0.8,0.3 1.7,0.4 2.8,0.4 1,0 1.9,-0.1 2.8,-0.4 l 0.1,-0.1 v -3.3 l -2.8,1.3 z"
           id="path9645"
           inkscape:connector-curvature="0"
           style="fill:#e0b373" /><path
           class="st26"
           d="m 298.2,254 v 2.5 l 0.1,0.1 c 0.8,0.3 1.7,0.4 2.8,0.4 1,0 1.9,-0.1 2.8,-0.4 l 0.1,-0.1 V 254 l -2.8,1.3 z"
           id="path9647"
           inkscape:connector-curvature="0"
           style="fill:#f4cb89" /><polygon
           class="st27"
           points="298.3,250.4 299.6,251.7 299.4,252.7 297,251.4 "
           id="polygon9649"
           style="fill:#ebf0f2" /><polygon
           class="st28"
           points="298.3,251.7 299.6,251.7 299.4,252.7 297,251.4 "
           id="polygon9651"
           style="fill:#adb9bc" /><polygon
           class="st27"
           points="303.7,250.4 302.4,251.7 302.5,252.7 305,251.4 "
           id="polygon9653"
           style="fill:#ebf0f2" /><polygon
           class="st28"
           points="303.7,251.7 302.4,251.7 302.5,252.7 305,251.4 "
           id="polygon9655"
           style="fill:#adb9bc" /><g
           id="g9667"><path
             class="st23"
             d="m 296.2,259.7 c -0.2,0.7 -0.3,1.4 -0.3,2.2 0,0.6 0,1.1 0.1,1.5 l 2.5,-0.9 -1.5,-0.5 1.5,-0.5 -1.5,-0.5 1.5,-0.5 z"
             id="path9657"
             inkscape:connector-curvature="0"
             style="fill:#020200" /><path
             class="st23"
             d="m 306.1,263.3 c 0.1,-0.5 0.1,-0.9 0.1,-1.5 0,-0.8 -0.1,-1.5 -0.3,-2.2 l -2.3,0.8 1.5,0.5 -1.5,0.5 1.5,0.5 -1.5,0.5 z"
             id="path9659"
             inkscape:connector-curvature="0"
             style="fill:#020200" /><polygon
             class="st23"
             points="291.7,262.9 288.7,265.4 291.2,262.3 291.7,262.3 "
             id="polygon9661"
             style="fill:#020200" /><polygon
             class="st23"
             points="292.5,263.6 289.4,266.2 291.9,263.1 292.5,263.1 "
             id="polygon9663"
             style="fill:#020200" /><polygon
             class="st23"
             points="293.3,264.4 290.2,267 292.7,263.8 293.3,263.8 "
             id="polygon9665"
             style="fill:#020200" /></g><circle
           class="st22"
           cx="292.79999"
           cy="262.70001"
           r="1.8"
           id="circle9669"
           style="fill:#1267cc" /><g
           id="g9677"><polygon
             class="st23"
             points="310.2,262.9 313.3,265.4 310.8,262.3 310.2,262.3 "
             id="polygon9671"
             style="fill:#020200" /><polygon
             class="st23"
             points="309.5,263.6 312.6,266.2 310.1,263.1 309.5,263.1 "
             id="polygon9673"
             style="fill:#020200" /><polygon
             class="st23"
             points="308.7,264.4 311.8,267 309.3,263.8 308.7,263.8 "
             id="polygon9675"
             style="fill:#020200" /></g><circle
           class="st22"
           cx="309.20001"
           cy="262.70001"
           r="1.8"
           id="circle9679"
           style="fill:#1267cc" /></g><g
         id="g9753"><polyline
           class="st29"
           points="306.3,262 310.9,260 311.2,261.3 312.2,260.9 311.3,264.7 312.9,263.2 315.7,262.5 314.3,256.3      304.5,256.3    "
           id="polyline9683"
           style="fill:#191919" /><polyline
           class="st29"
           points="304.5,256.3 309.6,258.9 306.3,262    "
           id="polyline9685"
           style="fill:#191919" /><polygon
           class="st29"
           points="320.3,260.9 321.1,264.7 319.5,263.2 316.6,262.5 318.1,256.3 327.9,256.3 322.8,258.9 326.1,262 321.4,260 321.1,261.3 "
           id="polygon9687"
           style="fill:#191919" /><path
           class="st30"
           d="m 308.5,262.5 c -0.5,-0.6 3.6,-5.1 4.5,-5.9 0.9,-0.8 2.1,-1 2.6,-0.4 0.5,0.6 0.2,1.7 -0.7,2.6 -1,0.6 -5.9,4.2 -6.4,3.7"
           id="path9689"
           inkscape:connector-curvature="0"
           style="fill:#5a5c5e" /><path
           class="st30"
           d="m 316.8,256.1 c -0.5,0.6 -0.2,1.7 0.7,2.6 0.9,0.8 5.9,4.4 6.4,3.8 0.5,-0.6 -3.6,-5.1 -4.5,-5.9 -0.9,-0.9 -2.1,-1.1 -2.6,-0.5 z"
           id="path9691"
           inkscape:connector-curvature="0"
           style="fill:#5a5c5e" /><path
           class="st31"
           d="m 319.2,270.7 c -1,0 -1.8,-5.4 -1.8,-6.5 0,-1.1 0.8,-1.8 1.8,-1.8 1,0 1.8,0.8 1.8,1.8 0,1 -0.7,6.5 -1.8,6.5"
           id="path9693"
           inkscape:connector-curvature="0"
           style="fill:#4d4f51" /><path
           class="st31"
           d="m 313.1,270.7 c -1,0 -1.8,-5.4 -1.8,-6.5 0,-1.1 0.8,-1.8 1.8,-1.8 1,0 1.8,0.8 1.8,1.8 0,1 -0.7,6.5 -1.8,6.5"
           id="path9695"
           inkscape:connector-curvature="0"
           style="fill:#4d4f51" /><path
           class="st30"
           d="m 321.3,261.8 c 0,6.5 -2.3,4.4 -5.1,4.4 -2.8,0 -5.1,2.2 -5.1,-4.4 0,-3.7 2.3,-6.8 5.1,-6.8 2.8,0.1 5.1,3.1 5.1,6.8 z"
           id="path9697"
           inkscape:connector-curvature="0"
           style="fill:#5a5c5e" /><path
           class="st31"
           d="m 312.6,257 c 1,0.4 2.3,0.7 3.6,0.7 1.3,0 2.6,-0.2 3.6,-0.7 -0.9,-1.2 -2.2,-1.9 -3.6,-1.9 -1.4,0 -2.7,0.7 -3.6,1.9 z"
           id="path9699"
           inkscape:connector-curvature="0"
           style="fill:#4d4f51" /><path
           class="st32"
           d="m 313.4,270.6 c 0.5,-0.4 0.9,-1.8 1.1,-3.2 h -2.8 c 0.3,1.4 0.7,2.8 1.1,3.2"
           id="path9701"
           inkscape:connector-curvature="0"
           style="fill:#333435" /><path
           class="st32"
           d="m 319.5,270.6 c 0.5,-0.4 0.9,-1.8 1.1,-3.2 h -2.8 c 0.3,1.4 0.7,2.8 1.1,3.2"
           id="path9703"
           inkscape:connector-curvature="0"
           style="fill:#333435" /><path
           class="st32"
           d="m 316.2,245.6 c 3.7,0 6.7,3.2 6.7,6.4 0,3.2 -3,4.9 -6.7,4.9 -3.7,0 -6.7,-1.6 -6.7,-4.9 0,-3.3 3,-6.4 6.7,-6.4"
           id="path9705"
           inkscape:connector-curvature="0"
           style="fill:#333435" /><path
           class="st29"
           d="m 322.9,252 c 0,3.2 -3,5.2 -6.7,5.2 -3.7,0 -6.7,-1.9 -6.7,-5.2"
           id="path9707"
           inkscape:connector-curvature="0"
           style="fill:#191919" /><path
           class="st32"
           d="m 308.5,262.5 c 0.2,0.2 1,-0.2 2.1,-0.8 l 0.1,-0.1 -1.1,-1.1 c -0.8,0.9 -1.3,1.7 -1.1,2"
           id="path9709"
           inkscape:connector-curvature="0"
           style="fill:#333435" /><path
           class="st32"
           d="m 321.7,261.6 c 1.1,0.7 2,1.1 2.2,0.9 0.2,-0.2 -0.3,-1.1 -1,-2 z"
           id="path9711"
           inkscape:connector-curvature="0"
           style="fill:#333435" /><ellipse
           class="st33"
           cx="316.20001"
           cy="260.20001"
           rx="3.4000001"
           ry="2"
           id="ellipse9713"
           style="fill:#f2eb03" /><g
           id="g9719"><path
             class="st21"
             d="m 319.6,260.2 c 0,1.1 -1.5,2 -3.4,2 -1.9,0 -3.4,-0.9 -3.4,-2"
             id="path9715"
             inkscape:connector-curvature="0"
             style="fill:#efc206" /><path
             class="st21"
             d="m 311.3,264.8 h 9.8 c 0.1,-0.4 0.2,-0.8 0.2,-1.2 h -10.2 c 0.1,0.5 0.1,0.9 0.2,1.2 z"
             id="path9717"
             inkscape:connector-curvature="0"
             style="fill:#efc206" /></g><g
           id="g9731"><path
             class="st33"
             d="m 312.8,264.1 c 0,0.2 -0.2,0.3 -0.3,0.3 h -0.6 c -0.2,0 -0.3,-0.2 -0.3,-0.3 v 0 c 0,-0.2 0.2,-0.3 0.3,-0.3 h 0.6 c 0.2,0 0.3,0.2 0.3,0.3 z"
             id="path9721"
             inkscape:connector-curvature="0"
             style="fill:#f2eb03" /><path
             class="st33"
             d="m 314.3,264.1 c 0,0.2 -0.2,0.3 -0.3,0.3 h -0.7 c -0.2,0 -0.3,-0.2 -0.3,-0.3 v 0 c 0,-0.2 0.2,-0.3 0.3,-0.3 h 0.6 c 0.3,0 0.4,0.2 0.4,0.3 z"
             id="path9723"
             inkscape:connector-curvature="0"
             style="fill:#f2eb03" /><path
             class="st33"
             d="m 319.4,264.1 c 0,0.2 -0.2,0.3 -0.3,0.3 h -0.6 c -0.2,0 -0.3,-0.2 -0.3,-0.3 v 0 c 0,-0.2 0.2,-0.3 0.3,-0.3 h 0.6 c 0.1,0 0.3,0.2 0.3,0.3 z"
             id="path9725"
             inkscape:connector-curvature="0"
             style="fill:#f2eb03" /><path
             class="st33"
             d="m 320.9,264.1 c 0,0.2 -0.2,0.3 -0.3,0.3 H 320 c -0.2,0 -0.3,-0.2 -0.3,-0.3 v 0 c 0,-0.2 0.2,-0.3 0.3,-0.3 h 0.6 c 0.1,0 0.3,0.2 0.3,0.3 z"
             id="path9727"
             inkscape:connector-curvature="0"
             style="fill:#f2eb03" /><path
             class="st33"
             d="m 317.7,264.3 c 0,0.5 -0.4,0.8 -0.8,0.8 h -1.5 c -0.5,0 -0.8,-0.4 -0.8,-0.8 V 264 c 0,-0.5 0.4,-0.8 0.8,-0.8 h 1.5 c 0.5,0 0.8,0.4 0.8,0.8 z"
             id="path9729"
             inkscape:connector-curvature="0"
             style="fill:#f2eb03" /></g><path
           class="st25"
           d="m 313.3,253.2 v 3.3 l 0.1,0.1 c 0.8,0.3 1.8,0.4 2.8,0.4 1,0 1.9,-0.1 2.8,-0.4 l 0.1,-0.1 v -3.3 l -2.8,1.3 z"
           id="path9733"
           inkscape:connector-curvature="0"
           style="fill:#e0b373" /><path
           class="st26"
           d="m 313.3,254 v 2.5 l 0.1,0.1 c 0.8,0.3 1.8,0.4 2.8,0.4 1,0 1.9,-0.1 2.8,-0.4 l 0.1,-0.1 V 254 l -2.8,1.3 z"
           id="path9735"
           inkscape:connector-curvature="0"
           style="fill:#f4cb89" /><polygon
           class="st27"
           points="313.4,250.4 314.8,251.7 314.7,252.7 312.2,251.4 "
           id="polygon9737"
           style="fill:#ebf0f2" /><polygon
           class="st28"
           points="313.4,251.7 314.8,251.7 314.7,252.7 312.2,251.4 "
           id="polygon9739"
           style="fill:#adb9bc" /><polygon
           class="st27"
           points="319,250.4 317.6,251.7 317.7,252.7 320.2,251.4 "
           id="polygon9741"
           style="fill:#ebf0f2" /><polygon
           class="st28"
           points="319,251.7 317.6,251.7 317.7,252.7 320.2,251.4 "
           id="polygon9743"
           style="fill:#adb9bc" /><g
           id="g9749"><polygon
             class="st32"
             points="310.1,250.5 310.1,246.7 311.8,248.4 "
             id="polygon9745"
             style="fill:#333435" /><polygon
             class="st32"
             points="322.3,250.5 322.3,246.7 320.6,248.4 "
             id="polygon9747"
             style="fill:#333435" /></g><polygon
           class="st29"
           points="315.8,259.6 314.2,259.6 314.2,258.8 313.4,260.1 314.2,261.5 318.2,261.5 319,260.1 318.2,258.8 318.2,259.6 316.6,259.6 316.6,259 316.2,259.4 315.8,259 "
           id="polygon9751"
           style="fill:#191919" /></g></g><g
       transform="matrix(1.25,0,0,-1.25,0,45)"
       id="g9817"><path
         class="st34"
         d="m 167.6,-225.7 v 2.6 c 0,2.2 -1.7,3.9 -3.9,3.9 h -10.5 c -2.2,0 -3.9,-1.7 -3.9,-3.9 v -2.6 z"
         id="path9757"
         inkscape:connector-curvature="0"
         style="fill:#ccd6dd" /><path
         class="st35"
         d="m 155.9,-219.9 2.6,-2.6 2.6,2.6 v 3.3 h -5.2 z"
         id="path9759"
         inkscape:connector-curvature="0"
         style="fill:#af7e57" /><path
         class="st36"
         d="m 155.9,-217.9 c 0.8,-0.9 1.5,-1.1 2.6,-1.1 1.1,0 1.8,0.2 2.6,1.1 v 2.6 h -5.2 z"
         id="path9761"
         inkscape:connector-curvature="0"
         style="fill:#9b6a49" /><g
         id="g9769"><path
           class="st35"
           d="m 154.2,-211.3 c 0,-0.9 -0.5,-1.7 -1.1,-1.7 -0.6,0 -1.1,0.8 -1.1,1.7 0,0.9 0.5,1.7 1.1,1.7 0.6,0 1.1,-0.8 1.1,-1.7"
           id="path9763"
           inkscape:connector-curvature="0"
           style="fill:#af7e57" /><path
           class="st35"
           d="m 164.9,-211.3 c 0,-0.9 -0.5,-1.7 -1.1,-1.7 -0.6,0 -1.1,0.8 -1.1,1.7 0,0.9 0.5,1.7 1.1,1.7 0.6,0 1.1,-0.8 1.1,-1.7"
           id="path9765"
           inkscape:connector-curvature="0"
           style="fill:#af7e57" /><path
           class="st35"
           d="m 152.9,-212 c 0,3.6 2.5,6.6 5.5,6.6 3.1,0 5.5,-3 5.5,-6.6 0,-3.6 -2.5,-6.6 -5.5,-6.6 -3,0 -5.5,3 -5.5,6.6"
           id="path9767"
           inkscape:connector-curvature="0"
           style="fill:#af7e57" /></g><path
         class="st37"
         d="m 158.5,-216.4 c -1.8,0 -2.4,0.5 -2.5,0.6 -0.2,0.2 -0.2,0.5 0,0.6 0.2,0.2 0.4,0.2 0.6,0 0.1,0 0.5,-0.3 1.8,-0.3 1.4,0 1.8,0.3 1.8,0.3 0.2,0.2 0.4,0.2 0.6,0 0.2,-0.2 0.2,-0.5 0,-0.6 0,-0.2 -0.5,-0.6 -2.3,-0.6"
         id="path9771"
         inkscape:connector-curvature="0"
         style="fill:#915a34" /><g
         id="g9779"><path
           class="st38"
           d="m 158.5,-203.2 c 3.7,0 6,-2.7 6,-5 0,-2.3 -0.5,-3.2 -0.9,-2.3 -0.5,0.9 -0.9,1.8 -0.9,1.8 0,0 -2.8,0 -3.7,0.9 0,0 1.4,-2.7 -1.4,0 0,0 0.5,-1.8 -2.3,0.5 0,0 -1.4,-0.9 -1.8,-3.2 -0.1,-0.6 -0.9,0 -0.9,2.3 -0.1,2.3 1.7,5 5.9,5"
           id="path9773"
           inkscape:connector-curvature="0"
           style="fill:#60352a" /><path
           class="st38"
           d="m 155.9,-212 v 0 c -0.4,0 -0.7,0.3 -0.7,0.7 v 0.7 c 0,0.4 0.3,0.7 0.7,0.7 0.4,0 0.7,-0.3 0.7,-0.7 v -0.7 c -0.1,-0.4 -0.4,-0.7 -0.7,-0.7"
           id="path9775"
           inkscape:connector-curvature="0"
           style="fill:#60352a" /><path
           class="st38"
           d="m 161,-212 v 0 c -0.4,0 -0.7,0.3 -0.7,0.7 v 0.7 c 0,0.4 0.3,0.7 0.7,0.7 0.4,0 0.7,-0.3 0.7,-0.7 v -0.7 c 0,-0.4 -0.3,-0.7 -0.7,-0.7"
           id="path9777"
           inkscape:connector-curvature="0"
           style="fill:#60352a" /></g><path
         class="st37"
         d="m 158.9,-213.8 h -1 c -0.3,0 -0.5,0.2 -0.5,0.5 0,0.3 0.2,0.5 0.5,0.5 h 1 c 0.3,0 0.5,-0.2 0.5,-0.5 0,-0.3 -0.2,-0.5 -0.5,-0.5"
         id="path9781"
         inkscape:connector-curvature="0"
         style="fill:#915a34" /><path
         class="st39"
         d="m 145.4,-225.7 c 0,0 -1.3,0 -1.3,1.3 0,0.1 0.1,0.6 0.7,1.3 l 2.6,3.3 v 3.3 c 0,0 -1.3,0 -1.3,1.3 0,1.3 1.3,1.3 1.3,1.3 h 3.3 c 0,0 1.3,0 1.3,-1.3 0,-1.3 -1.3,-1.3 -1.3,-1.3 v -3.3 l 2.6,-3.3 c 0.8,-0.9 0.7,-1.2 0.7,-1.3 0,-1.3 -1.3,-1.3 -1.3,-1.3 z"
         id="path9783"
         inkscape:connector-curvature="0"
         style="fill:#e1e8ed" /><g
         id="g9793"><path
           class="st40"
           d="m 144.4,-224.5 0.6,-0.9 h 7.9 l 0.7,1.2 -2,2.6 h -5.5 l -1.6,-2.8"
           id="path9785"
           inkscape:connector-curvature="0"
           style="fill:#9266cc" /><path
           class="st40"
           d="m 149.3,-209.4 c 0,-0.4 -0.3,-0.7 -0.7,-0.7 -0.4,0 -0.7,0.3 -0.7,0.7 0,0.4 0.3,0.7 0.7,0.7 0.4,0 0.7,-0.3 0.7,-0.7"
           id="path9787"
           inkscape:connector-curvature="0"
           style="fill:#9266cc" /><path
           class="st40"
           d="m 150.6,-212.7 c 0,-0.4 -0.3,-0.7 -0.7,-0.7 -0.4,0 -0.7,0.3 -0.7,0.7 0,0.4 0.3,0.7 0.7,0.7 0.4,0 0.7,-0.3 0.7,-0.7"
           id="path9789"
           inkscape:connector-curvature="0"
           style="fill:#9266cc" /><path
           class="st40"
           d="m 148.7,-211.7 c 0,-0.6 -0.5,-1 -1,-1 -0.5,0 -1,0.5 -1,1 0,0.6 0.5,1 1,1 0.5,0 1,-0.4 1,-1"
           id="path9791"
           inkscape:connector-curvature="0"
           style="fill:#9266cc" /></g><path
         class="st41"
         d="m 150.6,-214 h -3.3 c 0,0 -1.3,0 -1.3,-1.3 0,-1.3 1.3,-1.3 1.3,-1.3 v -3.3 l -2.6,-3.3 c -0.6,-0.7 -0.7,-1.2 -0.7,-1.3 0,-1.3 1.3,-1.3 1.3,-1.3 h 7.2 c 0,0 1.3,0 1.3,1.3 0,0.1 0.1,0.4 -0.7,1.3 l -2.6,3.3 v 3.3 c 0,0 1.3,0 1.3,1.3 0,1.3 -1.2,1.3 -1.2,1.3 m 0,-0.6 c 0.3,0 0.7,-0.2 0.7,-0.7 0,-0.5 -0.4,-0.7 -0.7,-0.7 H 150 v -0.7 -3.3 -0.2 l 0.2,-0.2 2.6,-3.3 c 0.5,-0.6 0.5,-0.8 0.5,-0.8 v -0.1 -0.1 c 0,-0.5 -0.4,-0.7 -0.7,-0.7 h -7.2 c -0.3,0 -0.7,0.1 -0.7,0.6 0,0 0.1,0.3 0.5,0.9 l 2.6,3.3 0.2,0.2 v 0.2 3.3 0.6 h -0.6 c -0.3,0 -0.7,0.1 -0.7,0.7 0,0.5 0.4,0.7 0.7,0.7 l 3.2,0.3"
         id="path9795"
         inkscape:connector-curvature="0"
         style="fill:#a8bccc" /><path
         class="st42"
         d="m 156.5,-225.7 -0.7,6 c 0,0 0.9,-1.1 2.6,-1.1 1.7,0 2.8,1.1 2.8,1.1 l -0.8,-6 h -1.9 z"
         id="path9797"
         inkscape:connector-curvature="0"
         style="fill:#66757f" /><g
         id="g9803"><path
           class="st43"
           d="m 155.9,-218.7 c 0.4,-0.4 1.9,-7 1.9,-7 h -2.1 l -1.1,1.7 1.1,1.8 -1.3,0.4 0.2,2.6 c 0,0 1.1,0.7 1.3,0.5"
           id="path9799"
           inkscape:connector-curvature="0"
           style="fill:#f5f8fa" /><path
           class="st43"
           d="m 161,-218.7 c -0.4,-0.4 -1.9,-7 -1.9,-7 h 2.1 l 1.1,1.7 -1.1,1.8 1.3,0.4 -0.2,2.6 c 0,0 -1.1,0.7 -1.3,0.5"
           id="path9801"
           inkscape:connector-curvature="0"
           style="fill:#f5f8fa" /></g><g
         id="g9815"><g
           id="g9811"><g
             id="g9809"><g
               class="st44"
               id="g9807"
               style="opacity:0.4"><path
                 class="st45"
                 d="m 153.9,-211.4 v 1.9 h 9.1 v -3.3 h -4.6 -4.6 v 1.4 z"
                 id="path9805"
                 inkscape:connector-curvature="0"
                 style="fill:#ffffff" /></g></g></g><path
           class="st43"
           d="m 163,-211.4 c 0,-0.9 -0.6,-1.3 -1.9,-1.3 -1,0 -1.8,0.7 -2.6,0.7 -0.8,0 -1.6,-0.7 -2.6,-0.7 -1.4,0 -1.9,0.5 -1.9,1.3 v 1.9 h 9.1 v -1.9 z m 0,2.7 h -9.1 c -0.7,0 -0.7,-0.7 -0.7,-0.7 v -2.6 c 0,-1 1.5,-1.3 2.6,-1.3 1.1,0 1.7,0.7 2.6,0.7 0.9,0 1.5,-0.7 2.6,-0.7 1.1,0 2.6,0.4 2.6,1.3 v 2.6 c 0,0.7 -0.6,0.7 -0.6,0.7"
           id="path9813"
           inkscape:connector-curvature="0"
           style="fill:#f5f8fa" /></g></g><g
       id="g9863"><g
         id="g9823"><circle
           class="st45"
           cx="253.60001"
           cy="315.10001"
           r="0.30000001"
           id="circle9819"
           style="fill:#ffffff" /><circle
           class="st45"
           cx="253.60001"
           cy="317.89999"
           r="0.30000001"
           id="circle9821"
           style="fill:#ffffff" /></g><path
         class="st46"
         d="m 253.4,318.4 v -3.9 c 0,-0.2 0.2,-0.4 0.4,-0.4 H 253 c -0.2,0 -0.4,0.2 -0.4,0.4 v 3.9 c 0,0.2 0.2,0.4 0.4,0.4 h 0.8 c -0.2,0.1 -0.4,-0.1 -0.4,-0.4 z"
         id="path9825"
         inkscape:connector-curvature="0"
         style="opacity:0.2;enable-background:new" /><g
         id="g9861"><g
           id="g9831"><path
             class="st47"
             d="m 265.5,326.4 h -11.2 c -0.4,0 -0.8,-0.4 -0.8,-0.8 v -6.8 h 12.8 v 6.8 c 0,0.4 -0.4,0.8 -0.8,0.8 z"
             id="path9827"
             inkscape:connector-curvature="0"
             style="fill:#4a5058" /><path
             class="st47"
             d="m 266.5,316.5 h -12.9 c -0.2,0 -0.4,0.2 -0.4,0.4 v 1.6 c 0,0.2 0.2,0.4 0.4,0.4 h 12.9 c 0.2,0 0.4,-0.2 0.4,-0.4 v -1.6 c 0,-0.2 -0.2,-0.4 -0.4,-0.4 z"
             id="path9829"
             inkscape:connector-curvature="0"
             style="fill:#4a5058" /></g><g
           id="g9837"><polygon
             class="st48"
             points="262.7,318.9 265.1,316.5 262.5,316.5 260.1,318.9 "
             id="polygon9833"
             style="fill:#f1f1f1" /><polygon
             class="st48"
             points="256.6,318.9 258.9,316.5 256.3,316.5 254,318.9 "
             id="polygon9835"
             style="fill:#f1f1f1" /></g><path
           class="st47"
           d="m 265.9,310.4 -12.8,3.9 c -0.2,0.1 -0.3,0.3 -0.3,0.5 l 0.5,1.5 c 0.1,0.2 0.3,0.3 0.5,0.3 l 12.8,-3.9 c 0.2,-0.1 0.3,-0.3 0.3,-0.5 l -0.5,-1.5 c -0.1,-0.3 -0.3,-0.4 -0.5,-0.3 z"
           id="path9839"
           inkscape:connector-curvature="0"
           style="fill:#4a5058" /><g
           id="g9845"><polygon
             class="st48"
             points="263,313.7 264.5,310.8 262,311.6 260.5,314.5 "
             id="polygon9841"
             style="fill:#f1f1f1" /><polygon
             class="st48"
             points="257.1,315.5 258.6,312.6 256.2,313.4 254.6,316.3 "
             id="polygon9843"
             style="fill:#f1f1f1" /></g><path
           class="st49"
           d="M 255.1,314.2 H 253 c -0.2,0 -0.4,0.2 -0.4,0.4 v 3.9 c 0,0.2 0.2,0.4 0.4,0.4 h 3.7 c 0.3,0 0.5,-0.3 0.4,-0.5 l -1.7,-3.9 c 0,-0.3 -0.1,-0.3 -0.3,-0.3 z"
           id="path9847"
           inkscape:connector-curvature="0"
           style="fill:#bcbcbc" /><rect
           x="253.5"
           y="318.89999"
           class="st46"
           width="12.8"
           height="0.89999998"
           id="rect9849"
           style="opacity:0.2;enable-background:new" /><g
           id="g9859"><path
             class="st45"
             d="m 261.1,322.9 c -0.2,0 -0.3,-0.1 -0.3,-0.3 v -1.9 c 0,-0.2 0.1,-0.3 0.3,-0.3 0.2,0 0.3,0.1 0.3,0.3 v 1.9 c -0.1,0.2 -0.2,0.3 -0.3,0.3 z"
             id="path9851"
             inkscape:connector-curvature="0"
             style="fill:#ffffff" /><path
             class="st45"
             d="m 258.6,324.8 c -0.2,0 -0.3,-0.1 -0.3,-0.3 v -1.9 c 0,-0.2 0.1,-0.3 0.3,-0.3 0.2,0 0.3,0.1 0.3,0.3 v 1.9 c 0,0.2 -0.2,0.3 -0.3,0.3 z"
             id="path9853"
             inkscape:connector-curvature="0"
             style="fill:#ffffff" /><path
             class="st45"
             d="M 263.7,324.8 H 256 c -0.2,0 -0.3,-0.1 -0.3,-0.3 0,-0.2 0.1,-0.3 0.3,-0.3 h 7.6 c 0.2,0 0.3,0.1 0.3,0.3 0,0.2 -0.1,0.3 -0.2,0.3 z"
             id="path9855"
             inkscape:connector-curvature="0"
             style="fill:#ffffff" /><path
             class="st45"
             d="M 263.7,322.9 H 256 c -0.2,0 -0.3,-0.1 -0.3,-0.3 0,-0.2 0.1,-0.3 0.3,-0.3 h 7.6 c 0.2,0 0.3,0.1 0.3,0.3 0,0.2 -0.1,0.3 -0.2,0.3 z"
             id="path9857"
             inkscape:connector-curvature="0"
             style="fill:#ffffff" /></g></g></g><g
       id="g9885"><path
         class="st50"
         d="m 233.4,314.1 h 13.8 c -0.1,-0.3 -0.4,-0.4 -0.6,-0.5 -0.1,-0.2 -0.1,-0.7 -0.4,-0.7 -0.3,-0.1 -0.4,0.2 -0.5,0.4 -0.1,-0.1 -0.1,-0.2 -0.2,-0.3 0.1,-0.2 0.3,-0.6 0,-0.8 -0.3,-0.2 -0.6,0.1 -0.8,0.2 v 0 l -0.1,-0.1 c 0.1,-0.2 0.3,-0.6 0,-0.8 -0.3,-0.2 -0.6,0.1 -0.8,0.2 h -0.1 c -0.1,-0.1 -0.2,-0.2 -0.3,-0.3 0.1,-0.2 0.1,-0.7 -0.2,-0.8 -0.3,-0.1 -0.6,0.2 -0.7,0.4 -0.1,0 -0.3,-0.1 -0.4,0 0.1,-0.2 0.1,-0.5 -0.2,-0.7 -0.3,-0.2 -0.6,0.2 -0.8,0.3 0,0 -0.1,0 -0.1,0 l -0.1,-0.1 c 0.1,-0.2 0.4,-0.6 0.2,-0.8 -0.2,-0.2 -0.6,-0.1 -0.8,0.1 -0.2,-0.2 -0.6,-0.4 -0.8,-0.2 -0.2,0.2 -0.2,0.4 -0.1,0.5 -0.1,0 -0.1,0.1 -0.1,0.1 -0.2,-0.2 -0.6,-0.4 -0.8,-0.2 -0.1,0.1 -0.2,0.3 -0.1,0.4 -0.1,0 -0.2,0 -0.3,0 -0.2,-0.2 -0.4,-0.6 -0.7,-0.5 -0.3,0.1 -0.3,0.6 -0.3,0.8 -0.1,0.1 -0.2,0.2 -0.3,0.3 -0.2,-0.2 -0.4,-0.3 -0.6,-0.3 -0.3,0.1 -0.3,0.6 -0.3,0.8 -0.1,0.1 -0.3,0.2 -0.4,0.3 -0.2,-0.2 -0.3,-0.3 -0.5,-0.2 -0.3,0.1 -0.3,0.6 -0.3,0.8 -0.1,0.1 -0.3,0.2 -0.4,0.3 -0.2,-0.2 -0.3,-0.3 -0.5,-0.2 -0.3,0.1 -0.3,0.6 -0.3,0.8 0.2,0.3 -0.1,0.5 -0.1,0.8 z"
         id="path9865"
         inkscape:connector-curvature="0"
         style="fill:#fff78a" /><path
         class="st51"
         d="m 238.4,310.9 c -0.2,0 -0.3,0.1 -0.3,0.3 0,0.2 0.1,0.3 0.3,0.3 0.2,0 0.3,-0.1 0.3,-0.3 0,-0.1 -0.2,-0.3 -0.3,-0.3 z m -1.2,0.6 c -0.2,0 -0.3,0.1 -0.3,0.3 0,0.2 0.1,0.3 0.3,0.3 0.2,0 0.3,-0.1 0.3,-0.3 0,-0.2 -0.2,-0.3 -0.3,-0.3 z m -0.8,1.1 c -0.2,0 -0.3,0.1 -0.3,0.3 0,0.2 0.1,0.3 0.3,0.3 0.2,0 0.3,-0.1 0.3,-0.3 0,-0.2 -0.1,-0.3 -0.3,-0.3 z m 2.8,-0.7 c -0.2,0 -0.3,0.1 -0.3,0.3 0,0.2 0.1,0.3 0.3,0.3 0.2,0 0.3,-0.1 0.3,-0.3 0,-0.2 -0.1,-0.3 -0.3,-0.3 z m 1.5,0.4 c -0.2,0 -0.3,0.1 -0.3,0.3 0,0.2 0.1,0.3 0.3,0.3 0.2,0 0.3,-0.1 0.3,-0.3 0.1,-0.2 -0.1,-0.3 -0.3,-0.3 z m -0.6,-1.5 c -0.2,0 -0.3,0.1 -0.3,0.3 0,0.2 0.1,0.3 0.3,0.3 0.2,0 0.3,-0.1 0.3,-0.3 -0.1,-0.2 -0.2,-0.3 -0.3,-0.3 z m 2.2,1 c -0.2,0 -0.3,0.1 -0.3,0.3 0,0.2 0.1,0.3 0.3,0.3 0.2,0 0.3,-0.1 0.3,-0.3 0,-0.2 -0.1,-0.3 -0.3,-0.3 z m -1,-0.4 c -0.2,0 -0.3,0.1 -0.3,0.3 0,0.2 0.1,0.3 0.3,0.3 0.2,0 0.3,-0.1 0.3,-0.3 0,-0.2 -0.1,-0.3 -0.3,-0.3 z m -3.3,1.2 c -0.2,0 -0.3,0.1 -0.3,0.3 0,0.2 0.1,0.3 0.3,0.3 0.2,0 0.3,-0.1 0.3,-0.3 0,-0.2 -0.1,-0.3 -0.3,-0.3 z m 4.3,0.1 c -0.2,0 -0.3,0.1 -0.3,0.3 0,0.2 0.1,0.3 0.3,0.3 0.2,0 0.3,-0.1 0.3,-0.3 0,-0.2 -0.1,-0.3 -0.3,-0.3 z m 1.8,-0.7 c -0.2,0 -0.3,0.1 -0.3,0.3 0,0.2 0.1,0.3 0.3,0.3 0.2,0 0.3,-0.1 0.3,-0.3 0,-0.2 -0.1,-0.3 -0.3,-0.3 z m -0.4,0.9 c -0.2,0 -0.3,0.1 -0.3,0.3 0,0.2 0.1,0.3 0.3,0.3 0.2,0 0.3,-0.1 0.3,-0.3 0,-0.1 -0.1,-0.3 -0.3,-0.3 z m -3.9,-0.2 c -0.2,0 -0.3,0.1 -0.3,0.3 0,0.2 0.1,0.3 0.3,0.3 0.2,0 0.3,-0.1 0.3,-0.3 0,-0.2 -0.2,-0.3 -0.3,-0.3 z"
         id="path9867"
         inkscape:connector-curvature="0"
         style="fill:#fbb03b" /><path
         class="st45"
         d="m 247.6,313.8 c 0.1,-0.4 -0.2,-0.8 -0.5,-0.8 -0.4,0 -0.7,0.4 -0.8,0.8 v 0 c 0.1,-0.4 -0.2,-0.8 -0.6,-0.8 -0.4,0 -0.7,0.4 -0.8,0.8 v 0 c 0.1,-0.4 -0.2,-0.8 -0.6,-0.8 -0.4,0 -0.7,0.4 -0.7,0.8 v 0 c 0,-0.4 -0.3,-0.8 -0.6,-0.8 -0.4,0 -0.7,0.4 -0.7,0.8 v 0 c 0,-0.4 -0.3,-0.8 -0.6,-0.8 -0.4,0 -0.7,0.4 -0.7,0.8 v 0 c 0,-0.4 -0.3,-0.8 -0.7,-0.8 -0.4,0 -0.7,0.4 -0.7,0.8 v 0 c 0,-0.4 -0.3,-0.8 -0.7,-0.8 -0.4,0 -0.6,0.4 -0.6,0.8 v 0 c -0.1,-0.4 -0.4,-0.8 -0.7,-0.8 -0.4,0 -0.6,0.4 -0.6,0.8 v 0 c -0.1,-0.4 -0.4,-0.8 -0.7,-0.8 -0.4,0 -0.6,0.4 -0.6,0.8 v 0 c -0.1,-0.4 -0.4,-0.8 -0.8,-0.8 -0.4,0 -0.6,0.4 -0.6,0.8 v 0 c -0.1,-0.4 -0.4,-0.8 -0.8,-0.8 -0.4,0 -0.6,0.4 -0.5,0.8 v 0 l 2.2,12.2 h 10.1 z"
         id="path9869"
         inkscape:connector-curvature="0"
         style="fill:#ffffff" /><path
         class="st52"
         d="m 234.4,313.8 c -0.1,-0.4 -0.4,-0.8 -0.8,-0.8 -0.4,0 -0.6,0.4 -0.5,0.8 v 0 l 2.2,12.2 h 0.9 z m 2.7,0 c -0.1,-0.4 -0.4,-0.8 -0.7,-0.8 -0.4,0 -0.6,0.4 -0.6,0.8 v 0 l 1.4,12.2 h 0.9 z m 2.6,0 c 0,-0.4 -0.3,-0.8 -0.7,-0.8 -0.4,0 -0.6,0.4 -0.6,0.8 v 0 L 239,326 h 0.9 z"
         id="path9871"
         inkscape:connector-curvature="0"
         style="fill:#fc611f" /><path
         class="st53"
         d="m 247,313 c -0.4,0 -0.7,0.4 -0.8,0.8 v 0 c 0.1,-0.4 -0.2,-0.8 -0.6,-0.8 -0.4,0 -0.7,0.4 -0.8,0.8 v 0 c 0.1,-0.4 -0.2,-0.8 -0.6,-0.8 -0.4,0 -0.7,0.4 -0.7,0.8 v 0 c 0,-0.4 -0.3,-0.8 -0.6,-0.8 -0.4,0 -0.7,0.4 -0.7,0.8 v 0 c 0,-0.4 -0.3,-0.8 -0.6,-0.8 -0.4,0 -0.7,0.4 -0.7,0.8 v 0 c 0,-0.4 -0.3,-0.8 -0.7,-0.8 v 13 h 5 l 2.2,-12.2 v -0.1 c 0.2,-0.3 0,-0.7 -0.4,-0.7 z"
         id="path9873"
         inkscape:connector-curvature="0"
         style="fill:#d7eced" /><path
         class="st54"
         d="m 242.3,313.8 c 0,-0.4 -0.3,-0.8 -0.6,-0.8 -0.4,0 -0.7,0.4 -0.7,0.8 v 0 l -0.2,12.2 h 0.9 z m 2.7,0 v 0 c 0.1,-0.4 -0.2,-0.8 -0.6,-0.8 -0.4,0 -0.7,0.4 -0.7,0.8 v 0 l -1,12.2 h 0.9 z m 2.6,0 c 0.1,-0.4 -0.2,-0.8 -0.5,-0.8 -0.4,0 -0.7,0.4 -0.8,0.8 v 0 l -1.8,12.2 h 0.9 z"
         id="path9875"
         inkscape:connector-curvature="0"
         style="fill:#e64500" /><ellipse
         class="st52"
         cx="240.39999"
         cy="320.70001"
         rx="4.4000001"
         ry="2.3"
         id="ellipse9877"
         style="fill:#fc611f" /><path
         class="st54"
         d="m 240.3,318.4 v 4.6 c 2.5,0 4.4,-1 4.4,-2.3 0.1,-1.3 -1.9,-2.3 -4.4,-2.3 z"
         id="path9879"
         inkscape:connector-curvature="0"
         style="fill:#e64500" /><ellipse
         class="st45"
         cx="240.3"
         cy="320.70001"
         rx="3.5999999"
         ry="1.5"
         id="ellipse9881"
         style="fill:#ffffff" /><path
         class="st53"
         d="m 240.4,319.1 v 3.1 c 1.9,0 3.6,-0.7 3.6,-1.5 0,-0.9 -1.7,-1.6 -3.6,-1.6 z"
         id="path9883"
         inkscape:connector-curvature="0"
         style="fill:#d7eced" /></g><g
       id="g9917"><path
         class="st55"
         d="m 256.7,301.7 -1,-0.7 c -0.2,0.2 -0.6,0.3 -0.8,0.1 l -5.2,7.5 c 0.3,0.2 0.4,0.5 0.2,0.8 l 1,0.7 c 0.2,-0.2 0.6,-0.3 0.8,-0.1 v 0 c 0.3,0.2 0.4,0.5 0.2,0.8 l 1,0.7 c 0.2,-0.2 0.6,-0.3 0.8,-0.1 v 0 0 l 5.2,-7.5 v 0 0 c -0.3,-0.2 -0.4,-0.5 -0.2,-0.8 l -1,-0.7 c -0.2,0.2 -0.6,0.3 -0.8,0.1 v 0 c -0.3,-0.2 -0.4,-0.6 -0.2,-0.8 z"
         id="path9887"
         inkscape:connector-curvature="0"
         style="fill:#f2cc7b" /><rect
         x="250.7"
         y="305"
         transform="matrix(0.5692,-0.8222,0.8222,0.5692,-142.9056,340.8825)"
         class="st56"
         width="6.1999998"
         height="3.5"
         id="rect9889"
         style="fill:#f25f60" /><polygon
         class="st57"
         points="254.4,308 253.8,307.3 253,307.6 253.5,306.9 253,306.1 253.8,306.4 254.3,305.7 254.3,306.6 255.2,306.9 254.3,307.2 "
         id="polygon9891"
         style="fill:#f2f2f2" /><path
         class="st58"
         d="m 252.7,311.3 1.9,-8.4 -0.6,-0.2 0.1,-0.6 -0.1,-0.1 -4.4,6.3 c 0.3,0.2 0.4,0.5 0.2,0.8 l 1,0.7 c 0.2,-0.2 0.6,-0.3 0.8,-0.1 v 0 c 0.3,0.2 0.4,0.5 0.2,0.8 z"
         id="path9893"
         inkscape:connector-curvature="0"
         style="opacity:0.1;enable-background:new" /><path
         class="st59"
         d="m 251,302.2 -1.2,-0.3 c -0.1,0.3 -0.4,0.5 -0.7,0.4 l -2.1,8.9 c 0.3,0.1 0.5,0.4 0.5,0.7 l 1.2,0.3 c 0.1,-0.3 0.4,-0.5 0.7,-0.4 v 0 c 0.3,0.1 0.5,0.4 0.5,0.7 l 1.2,0.3 c 0.1,-0.3 0.4,-0.5 0.7,-0.4 v 0 0 l 2.1,-8.9 v 0 0 c -0.3,-0.1 -0.5,-0.4 -0.5,-0.7 l -1.2,-0.3 c -0.1,0.3 -0.4,0.5 -0.7,0.4 v 0 c -0.3,-0.1 -0.5,-0.4 -0.5,-0.7 z"
         id="path9895"
         inkscape:connector-curvature="0"
         style="fill:#ffd782" /><g
         id="g9905"><path
           class="st60"
           d="m 249.1,303.9 v 0 l -0.5,-0.1 c -0.1,0 -0.2,-0.2 -0.2,-0.3 0,-0.1 0.2,-0.2 0.3,-0.2 l 0.4,0.1 c 0.1,0 0.2,0.2 0.2,0.3 0,0.1 -0.1,0.2 -0.2,0.2 z"
           id="path9897"
           inkscape:connector-curvature="0"
           style="fill:#ff6465" /><path
           class="st60"
           d="m 252.3,304.7 v 0 l -0.9,-0.2 c -0.1,0 -0.2,-0.2 -0.2,-0.3 0,-0.1 0.2,-0.2 0.3,-0.2 l 0.8,0.2 c 0.1,0 0.2,0.2 0.2,0.3 0,0.1 -0.1,0.2 -0.2,0.2 z m -1.6,-0.4 c 0,0 0,0 0,0 l -0.9,-0.2 c -0.1,0 -0.2,-0.2 -0.2,-0.3 0,-0.1 0.2,-0.2 0.3,-0.2 l 0.8,0.2 c 0.1,0 0.2,0.2 0.2,0.3 0,0.1 0,0.2 -0.2,0.2 z"
           id="path9899"
           inkscape:connector-curvature="0"
           style="fill:#ff6465" /><path
           class="st60"
           d="m 253.6,305 c 0,0 -0.1,0 0,0 l -0.5,-0.1 c -0.1,0 -0.2,-0.2 -0.2,-0.3 0,-0.1 0.2,-0.2 0.3,-0.2 l 0.4,0.1 c 0.1,0 0.2,0.2 0.2,0.3 -0.1,0.1 -0.1,0.2 -0.2,0.2 z"
           id="path9901"
           inkscape:connector-curvature="0"
           style="fill:#ff6465" /><rect
           x="247.10001"
           y="306.20001"
           transform="matrix(0.2285,-0.9735,0.9735,0.2285,-106.8149,481.2271)"
           class="st60"
           width="6.1999998"
           height="3.5"
           id="rect9903"
           style="fill:#ff6465" /></g><polygon
         class="st45"
         points="251.2,309 250.4,308.6 249.7,309.1 249.9,308.2 249.2,307.8 250,307.7 250.2,306.8 250.6,307.6 251.5,307.6 250.8,308.1 "
         id="polygon9907"
         style="fill:#ffffff" /><g
         id="g9915"><path
           class="st56"
           d="m 254.4,302.6 c -0.1,0 -0.1,0 -0.1,-0.1 l -0.3,-0.2 c -0.1,-0.1 -0.1,-0.2 -0.1,-0.3 0.1,-0.1 0.2,-0.1 0.3,-0.1 l 0.3,0.2 c 0.1,0.1 0.1,0.2 0.1,0.3 -0.1,0.2 -0.1,0.2 -0.2,0.2 z"
           id="path9909"
           inkscape:connector-curvature="0"
           style="fill:#f25f60" /><path
           class="st56"
           d="m 257.2,304.4 c -0.1,0 -0.1,0 -0.1,-0.1 l -0.7,-0.5 c -0.1,-0.1 -0.1,-0.2 -0.1,-0.3 0.1,-0.1 0.2,-0.1 0.3,-0.1 l 0.7,0.5 c 0.1,0.1 0.1,0.2 0.1,0.3 -0.1,0.2 -0.2,0.2 -0.2,0.2 z m -1.4,-0.9 c -0.1,0 -0.1,0 -0.1,-0.1 L 255,303 c -0.1,-0.1 -0.1,-0.2 -0.1,-0.3 0.1,-0.1 0.2,-0.1 0.3,-0.1 l 0.7,0.5 c 0.1,0.1 0.1,0.2 0.1,0.3 -0.1,0.1 -0.2,0.1 -0.2,0.1 z"
           id="path9911"
           inkscape:connector-curvature="0"
           style="fill:#f25f60" /><path
           class="st56"
           d="m 258.2,305.2 c -0.1,0 -0.1,0 -0.1,-0.1 l -0.3,-0.2 c -0.1,-0.1 -0.1,-0.2 -0.1,-0.3 0.1,-0.1 0.2,-0.1 0.3,-0.1 l 0.3,0.2 c 0.1,0.1 0.1,0.2 0.1,0.3 -0.1,0.1 -0.2,0.2 -0.2,0.2 z"
           id="path9913"
           inkscape:connector-curvature="0"
           style="fill:#f25f60" /></g></g></g></svg>