<?xml version="1.0" encoding="UTF-8" standalone="no"?>
<!-- Created with Inkscape (http://www.inkscape.org/) -->

<svg
   xmlns:dc="http://purl.org/dc/elements/1.1/"
   xmlns:cc="http://creativecommons.org/ns#"
   xmlns:rdf="http://www.w3.org/1999/02/22-rdf-syntax-ns#"
   xmlns:svg="http://www.w3.org/2000/svg"
   xmlns="http://www.w3.org/2000/svg"
   xmlns:sodipodi="http://sodipodi.sourceforge.net/DTD/sodipodi-0.dtd"
   xmlns:inkscape="http://www.inkscape.org/namespaces/inkscape"
   width="760mm"
   height="333mm"
   viewBox="0 0 760 333"
   version="1.1"
   id="svg8"
   sodipodi:docname="dessin.svg"
   inkscape:version="0.92.2 (unknown)">
  <defs
     id="defs2" />
  <sodipodi:namedview
     id="base"
     pagecolor="#ffffff"
     bordercolor="#666666"
     borderopacity="1.0"
     inkscape:pageopacity="0.0"
     inkscape:pageshadow="2"
     inkscape:zoom="0.24748737"
     inkscape:cx="514.2829"
     inkscape:cy="187.52548"
     inkscape:document-units="mm"
     inkscape:current-layer="layer2"
     showgrid="false"
     inkscape:snap-grids="true"
     inkscape:window-width="1920"
     inkscape:window-height="989"
     inkscape:window-x="0"
     inkscape:window-y="24"
     inkscape:window-maximized="1"
     showguides="false"
     inkscape:snap-text-baseline="true" />
  <metadata
     id="metadata5">
    <rdf:RDF>
      <cc:Work
         rdf:about="">
        <dc:format>image/svg+xml</dc:format>
        <dc:type
           rdf:resource="http://purl.org/dc/dcmitype/StillImage" />
        <dc:title />
      </cc:Work>
    </rdf:RDF>
  </metadata>
  <g
     inkscape:label="Fond"
     inkscape:groupmode="layer"
     id="layer1"
     transform="translate(0,36)">
    <ellipse
       style="fill:#3b84ad;fill-opacity:0.94117647;stroke-width:0.24939726"
       id="path815"
       cx="384.0238"
       cy="131.06845"
       rx="352.2738"
       ry="138.71725" />
  </g>
  <g
     inkscape:groupmode="layer"
     id="layer3"
     inkscape:label="Navion1">
    <path
       style="fill:#ffd871;fill-opacity:1;stroke:none;stroke-width:0.17745136px;stroke-linecap:butt;stroke-linejoin:miter;stroke-opacity:1"
       d="m 325.12738,217.09546 52.94789,113.79799 88.21176,-114.58087 z"
       id="path4556"
       inkscape:connector-curvature="0" />
  </g>
  <g
     inkscape:groupmode="layer"
     id="layer2"
     inkscape:label="Navion2">
    <path
       style="fill:#e0b647;fill-opacity:1;stroke:none;stroke-width:0.25009134;stroke-linecap:butt;stroke-linejoin:miter;stroke-miterlimit:4;stroke-dasharray:none;stroke-opacity:1"
       d="m 343.33019,255.14576 -2.62615,41.22432 125.58299,-80.0575 z"
       id="path4552"
       inkscape:connector-curvature="0"
       sodipodi:nodetypes="cccc" />
    <path
       style="fill:#e0b83c;fill-opacity:1;stroke:none;stroke-width:0.26458332px;stroke-linecap:butt;stroke-linejoin:miter;stroke-opacity:1"
       d="m 340.70404,296.37008 17.47591,-12.75928 1.03574,7.45271 z"
       id="path4560"
       inkscape:connector-curvature="0"
       sodipodi:nodetypes="cccc" />
    <text
       xml:space="preserve"
       style="font-style:normal;font-weight:normal;font-size:10.58333302px;line-height:1.25;font-family:sans-serif;letter-spacing:0px;word-spacing:0px;fill:#000000;fill-opacity:1;stroke:none;stroke-width:0.26458332"
       x="225.57547"
       y="130.94423"
       id="text4583"><tspan
         sodipodi:role="line"
         id="tspan4581"
         x="225.57547"
         y="140.308"
         style="stroke-width:0.26458332" /></text>
    <text
       xml:space="preserve"
       style="font-style:normal;font-variant:normal;font-weight:normal;font-stretch:normal;font-size:21.16666603px;line-height:1.25;font-family:'Indiana Personal Use';-inkscape-font-specification:'Indiana Personal Use, Normal';font-variant-ligatures:normal;font-variant-caps:normal;font-variant-numeric:normal;font-feature-settings:normal;text-align:start;letter-spacing:0px;word-spacing:0px;writing-mode:lr-tb;text-anchor:start;fill:#000000;fill-opacity:1;stroke:none;stroke-width:0.26458332"
       x="114.39135"
       y="163.01657"
       id="text4591"><tspan
         sodipodi:role="line"
         id="tspan4589"
         x="114.39135"
         y="181.5374"
         style="stroke-width:0.26458332" /></text>
    <g
       aria-label="Quali Paper"
       style="font-style:normal;font-variant:normal;font-weight:normal;font-stretch:normal;font-size:98.77777863px;line-height:1.25;font-family:'Indiana Personal Use';-inkscape-font-specification:'Indiana Personal Use, Normal';font-variant-ligatures:normal;font-variant-caps:normal;font-variant-numeric:normal;font-feature-settings:normal;text-align:start;letter-spacing:0px;word-spacing:0px;writing-mode:lr-tb;text-anchor:start;fill:#ffffff;fill-opacity:1;stroke:none;stroke-width:0.26458332"
       id="text5337">
      <path
         d="m 144.13645,206.45445 q -0.79022,0.49389 -1.58045,0.19756 -0.69144,-0.19756 -1.18533,-0.889 -0.49389,-0.59267 -0.69144,-1.48167 -0.0988,-0.889 0.39511,-1.67922 1.67922,-1.97556 3.16089,-3.45722 1.58044,-1.38289 3.06211,-2.37067 -4.24745,-1.67922 -8.29734,-4.54378 -4.04988,-2.86455 -7.21077,-7.112 -3.06211,-4.24744 -4.84011,-9.87777 -1.67923,-5.72912 -1.28412,-13.13745 0.29634,-7.80344 2.76578,-15.01422 2.56822,-7.30956 6.71689,-13.73011 4.14867,-6.51934 9.68022,-11.95211 5.53156,-5.53156 11.75456,-9.779 4.93889,-3.35845 11.45822,-6.42056 -4.93889,-1.28411 -9.779,-2.76578 -4.84011,-1.58044 -9.68022,-2.864553 -4.84011,-1.382888 -9.779,-2.271888 -4.93889,-0.889001 -10.07533,-0.790223 -5.82789,0.09878 -10.37167,1.778 -4.445,1.679223 -7.50711,4.247444 -2.96334,2.56822 -4.445,5.72911 -1.48167,3.16089 -1.28411,6.223 0.0988,1.778 0.49389,3.556 0.49388,1.67922 1.48166,3.06211 1.08656,1.38289 2.76578,2.27189 1.67922,0.79022 4.24744,0.69145 0.98778,0 2.27189,-0.0988 1.28411,-0.19756 2.86456,-0.79022 1.58044,-0.59267 3.45722,-1.778 1.97556,-1.18534 4.24745,-3.35845 0.69144,-0.59266 1.67922,0.0988 0.98778,0.59267 1.778,2.17311 0.79022,1.48167 1.18533,3.75356 0.39511,2.17311 -0.19755,4.64255 -1.58045,7.21078 -7.21078,11.65578 -5.53156,4.34622 -13.82889,4.445 -8.19856,0 -13.335002,-2.76578 -5.037666,-2.86455 -7.902222,-6.81566 -2.864555,-4.04989 -3.951111,-8.49489 -1.086556,-4.54378 -1.185333,-7.80345 -0.197556,-4.84011 1.975555,-10.668 2.173111,-5.92666 6.815667,-10.964331 4.741333,-5.037667 12.149666,-8.396112 7.40833,-3.457222 17.78,-3.556 6.02545,-0.09878 12.446,1.382889 6.51933,1.481667 13.03867,3.753556 6.61811,2.271889 13.03866,4.938889 6.51934,2.568222 12.54478,4.741329 1.48167,-0.592663 3.06211,-0.888996 1.58045,-0.395111 3.06211,-0.493889 1.58045,-0.197555 2.76578,0 1.28411,0.09878 1.97556,0.592667 0.98778,0.987778 0.889,1.876778 -0.49389,2.27189 -3.25967,3.75356 -2.667,1.48166 -5.72911,1.778 -6.02544,3.65477 -11.557,8.89 -5.53156,5.13644 -9.87778,11.75455 -4.24744,6.51933 -7.112,14.32278 -2.86455,7.80344 -3.556,16.69344 -1.08655,12.64356 4.84011,19.75556 5.92667,7.112 17.18734,7.60589 7.21077,0.29633 13.92766,-1.778 6.81567,-2.07434 12.84111,-5.92667 6.02545,-3.85233 10.96434,-9.08755 5.03766,-5.23523 8.59366,-11.16189 3.65478,-6.02545 5.72912,-12.446 2.07433,-6.42056 2.17311,-12.54478 0.0988,-6.51933 -1.28411,-10.96433 -1.38289,-4.54378 -4.04989,-7.30956 -2.667,-2.76578 -6.51934,-4.04989 -3.75355,-1.28411 -8.29733,-1.48167 -8.39611,-0.19755 -15.70567,3.16089 -7.30955,3.25967 -13.335,9.08756 -6.02544,5.72911 -10.668,13.335 -4.54377,7.60589 -7.50711,16.002 -0.49389,0.98778 -1.28411,1.38289 -0.69144,0.29633 -1.38289,0.0988 -0.69144,-0.19756 -1.08655,-0.889 -0.39511,-0.69145 -0.0988,-1.778 0.889,-4.34623 3.06211,-9.58145 2.27189,-5.23522 5.63033,-10.47044 3.45723,-5.334 8.001,-10.17411 4.64256,-4.93889 10.17411,-8.69245 5.63034,-3.85233 12.14967,-6.12422 6.51933,-2.37067 13.82889,-2.37067 6.12422,0 11.06311,1.87678 5.03767,1.87678 8.49489,5.82789 3.45722,3.85233 5.23522,9.87778 1.778,5.92666 1.48167,14.02644 -0.29633,7.60589 -2.667,15.31056 -2.27189,7.70466 -6.32178,14.81666 -4.04989,7.01323 -9.68022,13.335 -5.63033,6.223 -12.54478,10.96434 -6.81567,4.74133 -14.81667,7.70466 -8.001,3.06211 -16.79222,3.65478 3.65478,3.25967 7.30956,7.50711 3.75355,4.24745 7.70466,8.09978 4.04989,3.85233 8.39612,6.51933 4.445,2.667 9.58144,2.76578 1.58044,0 2.667,0 1.18533,0 2.27189,-0.29633 1.08655,-0.29633 2.37067,-0.98778 1.28411,-0.69144 3.35844,-2.07433 1.97556,-1.28411 3.16089,-0.98778 1.28411,0.29633 1.97555,1.38289 0.69145,1.18533 0.889,2.667 0.19756,1.58044 0.0988,2.667 -0.29633,2.96333 -1.48166,5.82789 -1.08656,2.86455 -3.16089,5.13644 -2.07434,2.27189 -5.23523,3.65478 -3.16088,1.38289 -7.60588,1.38289 -4.54378,0 -8.39612,-2.37067 -3.75355,-2.27189 -7.112,-5.92666 -3.35844,-3.65478 -6.42055,-8.19856 -2.96333,-4.445 -5.92667,-8.69244 -2.86455,-4.24745 -5.82789,-7.90223 -2.86455,-3.556 -6.02544,-5.43278 -3.06211,-1.87677 -6.61811,-1.58044 -3.45722,0.29633 -7.60589,3.85233 z"
         style="font-style:normal;font-variant:normal;font-weight:normal;font-stretch:normal;font-size:98.77777863px;font-family:'Indiana Personal Use';-inkscape-font-specification:'Indiana Personal Use, Normal';font-variant-ligatures:normal;font-variant-caps:normal;font-variant-numeric:normal;font-feature-settings:normal;text-align:start;writing-mode:lr-tb;text-anchor:start;fill:#ffffff;fill-opacity:1;stroke-width:0.26458332"
         id="path5339" />
      <path
         d="m 237.08788,143.82934 q 0.59267,-0.889 2.46945,-0.98778 1.87678,-0.19755 3.75355,0.19756 1.97556,0.39511 3.35845,1.28411 1.48167,0.79022 1.08655,1.778 -0.19755,0.69145 -1.87677,3.25967 -1.67923,2.56822 -3.85234,5.92666 -2.17311,3.35845 -4.445,7.112 -2.27189,3.75356 -3.75355,6.91445 -1.48167,3.16089 -1.778,5.23522 -0.19756,1.97556 1.67922,1.97556 1.87678,0 4.14867,-1.58045 2.27189,-1.67922 4.445,-3.95111 2.27189,-2.37067 4.24744,-4.84011 1.97556,-2.46944 3.16089,-4.14867 l 10.96433,-18.17511 q 0.49389,-0.889 2.37067,-0.98778 1.87678,-0.19755 3.85233,0.19756 1.97556,0.39511 3.35845,1.28411 1.38289,0.79022 0.98778,1.778 0,0.69145 -1.48167,3.25967 -1.48167,2.56822 -3.556,6.02544 -2.07433,3.35845 -4.34622,7.112 -2.17311,3.75356 -3.75356,6.91445 -1.58044,3.16089 -2.07433,5.23522 -0.39511,1.97555 1.18533,1.87678 1.778,-0.0988 4.14867,-2.17311 2.37066,-2.17312 4.64255,-4.84012 2.27189,-2.76577 4.14867,-5.43277 1.97556,-2.667 2.96333,-3.85234 0.69145,-0.889 1.48167,-0.98777 0.79022,-0.19756 1.38289,0.19755 0.69144,0.29633 0.98778,1.08656 0.29633,0.79022 -0.0988,1.778 -2.86456,4.64255 -6.12422,9.08755 -3.25967,4.34622 -6.71689,8.09978 -0.98778,0.98778 -2.56822,2.667 -1.58045,1.67922 -3.556,3.25967 -1.87678,1.48166 -4.14867,2.56822 -2.27189,1.08655 -4.54378,0.98778 -2.07433,-0.0988 -3.45722,-0.69145 -1.38289,-0.69144 -2.17311,-1.67922 -0.69145,-0.98778 -1.08656,-2.17311 -0.29633,-1.18533 -0.29633,-2.37067 0,-2.46944 0.59267,-5.03766 l -2.37067,2.46944 q -0.98778,0.98778 -2.56822,2.667 -1.58045,1.67922 -3.556,3.25967 -1.87678,1.48166 -4.14867,2.56822 -2.27189,1.08655 -4.54378,0.98778 -2.07433,-0.0988 -3.45722,-0.79023 -1.38289,-0.69144 -2.17311,-1.67922 -0.79022,-0.98778 -1.18533,-2.17311 -0.39512,-1.28411 -0.39512,-2.46944 -0.0988,-3.45723 1.18534,-7.112 1.18533,-3.65478 2.86455,-6.51934 z"
         style="font-style:normal;font-variant:normal;font-weight:normal;font-stretch:normal;font-size:98.77777863px;font-family:'Indiana Personal Use';-inkscape-font-specification:'Indiana Personal Use, Normal';font-variant-ligatures:normal;font-variant-caps:normal;font-variant-numeric:normal;font-feature-settings:normal;text-align:start;writing-mode:lr-tb;text-anchor:start;fill:#ffffff;fill-opacity:1;stroke-width:0.26458332"
         id="path5341" />
      <path
         d="m 291.59316,182.74779 q 0,-0.59267 0,-1.18534 0.0988,-0.59266 0.19755,-1.28411 -1.58044,1.67922 -3.16089,3.25967 -1.48166,1.48167 -3.16089,2.667 -1.67922,1.08655 -3.556,1.778 -1.778,0.59267 -3.85233,0.59267 -4.24744,-0.0988 -6.71689,-3.06212 -2.37066,-3.06211 -2.56822,-8.98877 -0.0988,-3.75356 0.98778,-7.90223 1.08655,-4.14866 3.06211,-8.19855 2.07433,-4.04989 4.93889,-7.70467 2.86455,-3.75355 6.32178,-6.42055 3.45722,-2.76578 7.30955,-4.24745 3.95111,-1.58044 8.001,-1.38289 0.98778,0 2.27189,0.39511 1.28411,0.29634 2.46944,1.18534 1.28412,0.889 2.17312,2.46944 0.98777,1.58045 1.18533,4.14867 l 2.96333,-5.03767 q 0.59267,-0.889 2.46945,-0.98778 1.87677,-0.19755 3.85233,0.19756 1.97556,0.39511 3.35844,1.28411 1.38289,0.79022 0.98778,1.778 -0.19755,0.69145 -1.87678,3.25967 -1.67922,2.56822 -3.85233,6.02544 -2.17311,3.35845 -4.445,7.112 -2.27189,3.75356 -3.75355,6.91445 -1.48167,3.16089 -1.778,5.23522 -0.19756,1.97555 1.67922,1.87678 1.18533,0 2.667,-0.98778 1.48166,-1.08656 2.96333,-2.56822 1.58045,-1.58045 3.16089,-3.45723 1.58044,-1.87677 2.86456,-3.65477 1.38288,-1.778 2.46944,-3.25967 1.08656,-1.58044 1.67922,-2.37067 0.69145,-0.889 1.48167,-0.98777 0.889,-0.19756 1.48167,0.19755 0.69144,0.29633 0.98777,1.08656 0.29634,0.79022 -0.0988,1.778 -2.86456,4.64255 -6.12423,9.08755 -3.25966,4.34622 -6.71689,8.09978 -0.98777,0.98778 -2.56822,2.667 -1.58044,1.67922 -3.556,3.25967 -1.87678,1.48166 -4.14866,2.56822 -2.27189,1.08655 -4.54378,0.98778 -4.24745,-0.19756 -5.82789,-1.97556 -1.58045,-1.87678 -1.67922,-4.24744 z m -6.81567,-5.92667 q 0.69144,0 1.97556,-0.79022 1.38288,-0.79022 2.96333,-2.07434 1.67922,-1.38288 3.45722,-3.16088 1.87678,-1.87678 3.65478,-4.14867 l 4.14867,-7.01322 q 0.0988,-0.0988 0.0988,-0.0988 0.0988,0 0.19756,-0.19756 l -0.29633,0.29634 0.79022,-1.28411 q 0.39511,-1.18534 0.69144,-2.96334 0.29634,-1.778 0.19756,-3.45722 -0.0988,-1.778 -0.79022,-2.96333 -0.59267,-1.28411 -1.97556,-1.38289 -1.08656,-0.0988 -3.45722,1.08655 -2.27189,1.18534 -4.93889,3.85234 -2.56822,2.667 -5.13645,6.91444 -2.46944,4.14867 -3.95111,10.17411 -0.29633,0.98778 -0.49389,2.27189 -0.0988,1.28411 0,2.46945 0.19756,1.08655 0.79023,1.87677 0.69144,0.69145 2.07433,0.59267 z"
         style="font-style:normal;font-variant:normal;font-weight:normal;font-stretch:normal;font-size:98.77777863px;font-family:'Indiana Personal Use';-inkscape-font-specification:'Indiana Personal Use, Normal';font-variant-ligatures:normal;font-variant-caps:normal;font-variant-numeric:normal;font-feature-settings:normal;text-align:start;writing-mode:lr-tb;text-anchor:start;fill:#ffffff;fill-opacity:1;stroke-width:0.26458332"
         id="path5343" />
      <path
         d="m 347.20042,120.61656 q 0.49389,-0.98777 2.37067,-1.08655 1.87677,-0.19756 3.85233,0.19755 1.97555,0.39512 3.35844,1.28412 1.38289,0.889 0.98778,1.87677 -0.0988,0.39511 -1.67922,3.06211 -1.58045,2.667 -4.04989,6.71689 -2.37067,3.95111 -5.334,8.69245 -2.86456,4.64255 -5.63033,9.18633 -2.667,4.445 -4.93889,8.19856 -2.17311,3.65477 -3.25967,5.63033 -1.38289,2.46944 -2.667,4.74133 -1.18533,2.17311 -1.778,3.85234 -0.59267,1.67922 -0.49389,2.667 0.19756,0.889 1.48167,0.889 1.778,-0.0988 4.14867,-2.17311 2.37066,-2.07434 4.64255,-4.84012 2.27189,-2.76577 4.14867,-5.43277 1.87678,-2.667 2.86455,-3.85234 0.69145,-0.889 1.48167,-0.98777 0.79022,-0.19756 1.38289,0.19755 0.69144,0.29633 0.98778,1.08656 0.29633,0.79022 -0.0988,1.778 -2.76578,4.64255 -6.12422,9.08755 -3.25967,4.34622 -6.71689,8.09978 -0.98778,0.98778 -2.56822,2.667 -1.58045,1.67922 -3.556,3.25967 -1.87678,1.48166 -4.14867,2.56822 -2.27189,1.08655 -4.54378,0.98778 -2.07433,-0.0988 -3.45722,-0.79023 -1.38289,-0.69144 -2.17311,-1.67922 -0.79022,-0.98778 -1.18534,-2.17311 -0.39511,-1.28411 -0.39511,-2.46944 0,-2.667 1.08656,-6.02545 1.08655,-3.35844 2.667,-6.61811 1.48167,-3.25967 3.06211,-6.02544 1.58044,-2.76578 2.46944,-4.14867 z"
         style="font-style:normal;font-variant:normal;font-weight:normal;font-stretch:normal;font-size:98.77777863px;font-family:'Indiana Personal Use';-inkscape-font-specification:'Indiana Personal Use, Normal';font-variant-ligatures:normal;font-variant-caps:normal;font-variant-numeric:normal;font-feature-settings:normal;text-align:start;writing-mode:lr-tb;text-anchor:start;fill:#ffffff;fill-opacity:1;stroke-width:0.26458332"
         id="path5345" />
      <path
         d="m 354.56553,143.82934 q 0.59267,-0.889 2.46944,-0.98778 1.87678,-0.19755 3.85234,0.19756 1.97555,0.39511 3.35844,1.28411 1.38289,0.79022 0.98778,1.778 0,0.69145 -1.48167,3.25967 -1.48166,2.56822 -3.65477,6.02544 -2.07434,3.35845 -4.34623,7.112 -2.17311,3.75356 -3.75355,6.91445 -1.58045,3.16089 -1.97556,5.23522 -0.39511,1.97555 1.18534,1.87678 1.778,-0.0988 4.14866,-2.17311 2.37067,-2.17312 4.64256,-4.84012 2.27189,-2.76577 4.14866,-5.43277 1.87678,-2.667 2.86456,-3.85234 0.69144,-0.889 1.48167,-0.98777 0.889,-0.19756 1.48166,0.19755 0.69145,0.29633 0.98778,1.08656 0.29633,0.79022 -0.0988,1.778 -2.86455,4.64255 -6.12422,9.08755 -3.25967,4.34622 -6.71689,8.09978 -0.98778,0.98778 -2.56822,2.667 -1.58044,1.67922 -3.556,3.25967 -1.97556,1.48166 -4.24744,2.56822 -2.17312,1.08655 -4.445,0.98778 -2.07434,-0.0988 -3.45723,-0.69145 -1.38289,-0.59266 -2.17311,-1.48166 -0.889,-0.889 -1.18533,-1.97556 -0.39511,-1.18533 -0.49389,-2.37067 -0.19756,-1.58044 0.49389,-3.95111 0.69144,-2.37066 1.67922,-4.74133 0.98778,-2.46945 2.17311,-4.74133 1.08656,-2.27189 1.97556,-3.75356 z m 9.87778,-19.95311 q 0.98778,-1.48167 2.27189,-2.46944 1.28411,-1.08656 2.667,-1.48167 1.38289,-0.49389 2.76577,-0.39511 1.38289,0.0988 2.56823,0.79022 2.37066,1.58045 2.667,4.84011 0.29633,3.16089 -1.67923,6.12422 -0.98777,1.48167 -2.27188,2.46945 -1.28412,0.98778 -2.667,1.48167 -1.38289,0.39511 -2.76578,0.29633 -1.38289,-0.0988 -2.56822,-0.889 -2.46945,-1.58045 -2.76578,-4.64256 -0.19756,-3.16089 1.778,-6.12422 z"
         style="font-style:normal;font-variant:normal;font-weight:normal;font-stretch:normal;font-size:98.77777863px;font-family:'Indiana Personal Use';-inkscape-font-specification:'Indiana Personal Use, Normal';font-variant-ligatures:normal;font-variant-caps:normal;font-variant-numeric:normal;font-feature-settings:normal;text-align:start;writing-mode:lr-tb;text-anchor:start;fill:#ffffff;fill-opacity:1;stroke-width:0.26458332"
         id="path5347" />
      <path
         d="m 456.47795,151.33645 q -0.19756,-2.667 -0.0988,-3.75355 0.19756,-1.18534 0.79022,-1.38289 0.59267,-0.19756 1.778,0.39511 1.18534,0.59267 3.06211,1.28411 1.87678,0.69145 4.445,1.28411 2.667,0.49389 6.223,0.39511 4.14867,-0.0988 8.29734,-2.07433 4.24744,-2.07433 7.60589,-5.334 3.45722,-3.25967 5.63033,-7.30956 2.17311,-4.14866 2.17311,-8.49488 0,-4.445 -2.27189,-7.70467 -2.17311,-3.25967 -6.223,-3.556 -2.46944,-0.19756 -5.334,0.19755 -2.76578,0.39512 -5.43278,1.38289 -2.667,0.98778 -4.93888,2.56823 -2.27189,1.48166 -3.45723,3.35844 -0.19755,0.19756 -0.29633,0.19756 -1.38289,2.27188 -2.56822,4.24744 -1.18534,1.87678 -1.97556,3.25967 -4.14866,7.01322 -8.79122,14.61911 -4.64256,7.50711 -9.779,14.81666 -5.03767,7.30956 -10.56922,13.92767 -5.43278,6.51933 -11.16189,11.45822 -5.72911,4.93889 -11.65578,7.70467 -5.82789,2.86456 -11.75455,2.667 -2.667,-0.0988 -5.334,-0.98778 -2.667,-0.79022 -4.93889,-2.37066 -2.17311,-1.48167 -3.75356,-3.65478 -1.48167,-2.17311 -1.67922,-4.84011 -0.0988,-0.69145 0,-2.17311 0.19755,-1.48167 0.59267,-2.86456 0.49388,-1.48167 1.18533,-2.37067 0.79022,-0.98777 1.97555,-0.59266 2.96334,0.79022 5.82789,1.48166 2.96334,0.69145 6.02545,0.59267 5.23522,0 10.37166,-2.46944 5.23523,-2.46945 10.27289,-6.61812 5.13645,-4.14866 10.07534,-9.58144 4.93889,-5.53156 9.68022,-11.65578 4.74133,-6.12422 9.18633,-12.34722 4.445,-6.32178 8.59367,-12.05089 4.14867,-5.82789 7.90222,-10.668 3.85233,-4.93889 7.21078,-8.09978 0.98778,-0.98777 2.37067,-2.07433 -3.95112,-1.28411 -7.80345,-2.469445 -3.75355,-1.185333 -7.60589,-2.173111 -3.85233,-0.987778 -7.90222,-1.481667 -3.95111,-0.592666 -8.39611,-0.592666 -5.82789,0.09878 -10.37167,1.778 -4.445,1.679222 -7.40833,4.247449 -2.96333,2.56822 -4.445,5.72911 -1.48167,3.16089 -1.28411,6.223 0.0988,1.778 0.49389,3.556 0.49389,1.67922 1.48166,3.06211 0.98778,1.38289 2.667,2.27189 1.778,0.79022 4.34623,0.69144 0.98777,0 2.27188,-0.0988 1.28412,-0.19755 2.86456,-0.79022 1.58044,-0.59267 3.45722,-1.778 1.87678,-1.18533 4.14867,-3.35844 0.69144,-0.59267 1.67922,0.0988 0.98778,0.59267 1.778,2.17312 0.889,1.48166 1.18533,3.75355 0.39512,2.17311 -0.0988,4.64256 -1.58045,7.21077 -7.21078,11.65577 -5.53156,4.34623 -13.92767,4.34623 -5.43278,0 -9.48266,-1.18534 -4.04989,-1.28411 -7.01323,-3.25966 -2.86455,-2.07434 -4.84011,-4.74134 -1.87678,-2.667 -2.96333,-5.53155 -1.08656,-2.96334 -1.58045,-5.72911 -0.39511,-2.86456 -0.39511,-5.334 -0.0988,-5.43278 1.97556,-11.35945 2.17311,-5.92666 6.81567,-10.865554 4.74133,-4.938889 12.14966,-8.099778 7.40834,-3.259666 17.78,-3.358444 5.03767,0 10.07534,1.086556 5.03766,1.086555 9.97655,2.864555 5.03767,1.679222 9.87778,3.852333 4.93889,2.074334 9.87778,4.148667 l 4.24744,1.975556 q 3.556,-1.876778 7.50711,-2.963334 4.04989,-1.086555 8.001,-0.790222 1.97556,0.197556 3.45722,1.086556 1.58045,0.790222 2.37067,2.074333 0.889,1.284111 0.889,2.864556 0.0988,1.58044 -0.79022,3.06211 -1.67922,2.667 -4.54378,3.35845 -2.86455,0.59266 -6.32178,0 -2.27189,-0.39512 -4.74133,-0.98778 -2.46944,-0.69145 -4.93889,-1.48167 l -1.58044,1.08656 q -1.28411,0.98777 -2.76578,2.667 -1.48167,1.67922 -3.06211,3.85233 2.86455,-1.778 6.223,-2.76578 3.35844,-0.98778 7.21078,-0.889 3.25966,0.0988 6.61811,1.28411 3.35844,1.18534 6.12422,3.45723 2.76578,2.27188 4.54378,5.53155 1.87678,3.25967 2.17311,7.50711 0.59267,8.69245 -2.46945,16.002 -2.96333,7.30956 -8.09977,12.64356 -5.13645,5.334 -11.75456,8.29733 -6.61811,2.96333 -13.335,2.86456 -3.16089,0 -6.02544,-1.08656 -2.76578,-1.08655 -5.03767,-2.96333 -2.17311,-1.97556 -3.65478,-4.64256 -1.38289,-2.667 -1.67922,-5.82789 z m 38.72089,-52.055886 q -1.38289,0.197556 -2.76578,0.592667 -1.28411,0.395109 -2.667,0.888999 0.59267,0.19756 1.18533,0.29633 0.59267,0.0988 1.28411,0.19756 1.48167,0.29633 2.76578,0 1.28411,-0.29633 1.87678,-0.69144 0.69144,-0.49389 0.39511,-0.889005 -0.29633,-0.395111 -2.07433,-0.395111 z"
         style="font-style:normal;font-variant:normal;font-weight:normal;font-stretch:normal;font-size:98.77777863px;font-family:'Indiana Personal Use';-inkscape-font-specification:'Indiana Personal Use, Normal';font-variant-ligatures:normal;font-variant-caps:normal;font-variant-numeric:normal;font-feature-settings:normal;text-align:start;writing-mode:lr-tb;text-anchor:start;fill:#bcdef1;fill-opacity:1;stroke-width:0.26458332"
         id="path5349" />
      <path
         d="m 522.5248,182.74779 q 0,-0.59267 0,-1.18534 0.0988,-0.59266 0.19755,-1.28411 -1.58044,1.67922 -3.16089,3.25967 -1.48166,1.48167 -3.16089,2.667 -1.67922,1.08655 -3.556,1.778 -1.778,0.59267 -3.85233,0.59267 -4.24744,-0.0988 -6.71689,-3.06212 -2.37066,-3.06211 -2.56822,-8.98877 -0.0988,-3.75356 0.98778,-7.90223 1.08655,-4.14866 3.06211,-8.19855 2.07433,-4.04989 4.93889,-7.70467 2.86455,-3.75355 6.32178,-6.42055 3.45722,-2.76578 7.30955,-4.24745 3.95111,-1.58044 8.001,-1.38289 0.98778,0 2.27189,0.39511 1.28411,0.29634 2.46945,1.18534 1.28411,0.889 2.17311,2.46944 0.98777,1.58045 1.18533,4.14867 l 2.96333,-5.03767 q 0.59267,-0.889 2.46945,-0.98778 1.87678,-0.19755 3.85233,0.19756 1.97556,0.39511 3.35845,1.28411 1.38288,0.79022 0.98777,1.778 -0.19755,0.69145 -1.87677,3.25967 -1.67923,2.56822 -3.85234,6.02544 -2.17311,3.35845 -4.445,7.112 -2.27189,3.75356 -3.75355,6.91445 -1.48167,3.16089 -1.778,5.23522 -0.19756,1.97555 1.67922,1.87678 1.18533,0 2.667,-0.98778 1.48167,-1.08656 2.96333,-2.56822 1.58045,-1.58045 3.16089,-3.45723 1.58045,-1.87677 2.86456,-3.65477 1.38289,-1.778 2.46944,-3.25967 1.08656,-1.58044 1.67922,-2.37067 0.69145,-0.889 1.48167,-0.98777 0.889,-0.19756 1.48167,0.19755 0.69144,0.29633 0.98777,1.08656 0.29634,0.79022 -0.0988,1.778 -2.86456,4.64255 -6.12423,9.08755 -3.25966,4.34622 -6.71688,8.09978 -0.98778,0.98778 -2.56823,2.667 -1.58044,1.67922 -3.556,3.25967 -1.87677,1.48166 -4.14866,2.56822 -2.27189,1.08655 -4.54378,0.98778 -4.24745,-0.19756 -5.82789,-1.97556 -1.58044,-1.87678 -1.67922,-4.24744 z m -6.81567,-5.92667 q 0.69144,0 1.97556,-0.79022 1.38288,-0.79022 2.96333,-2.07434 1.67922,-1.38288 3.45722,-3.16088 1.87678,-1.87678 3.65478,-4.14867 l 4.14867,-7.01322 q 0.0988,-0.0988 0.0988,-0.0988 0.0988,0 0.19756,-0.19756 l -0.29633,0.29634 0.79022,-1.28411 q 0.39511,-1.18534 0.69144,-2.96334 0.29634,-1.778 0.19756,-3.45722 -0.0988,-1.778 -0.79022,-2.96333 -0.59267,-1.28411 -1.97556,-1.38289 -1.08655,-0.0988 -3.45722,1.08655 -2.27189,1.18534 -4.93889,3.85234 -2.56822,2.667 -5.13645,6.91444 -2.46944,4.14867 -3.95111,10.17411 -0.29633,0.98778 -0.49389,2.27189 -0.0988,1.28411 0,2.46945 0.19756,1.08655 0.79023,1.87677 0.69144,0.69145 2.07433,0.59267 z"
         style="font-style:normal;font-variant:normal;font-weight:normal;font-stretch:normal;font-size:98.77777863px;font-family:'Indiana Personal Use';-inkscape-font-specification:'Indiana Personal Use, Normal';font-variant-ligatures:normal;font-variant-caps:normal;font-variant-numeric:normal;font-feature-settings:normal;text-align:start;writing-mode:lr-tb;text-anchor:start;fill:#bcdef1;fill-opacity:1;stroke-width:0.26458332"
         id="path5351" />
      <path
         d="m 597.69006,173.16634 q -5.53156,7.21078 -10.86556,10.86556 -5.334,3.556 -9.87777,4.84011 -4.54378,1.28411 -8.19856,0.889 -3.556,-0.29633 -5.72911,-1.08656 -3.35845,-1.08655 -5.03767,-3.45722 -1.08655,-1.18533 -1.778,-3.16089 -0.59266,-2.07433 -0.39511,-5.13644 l -19.85433,31.90522 q -0.49389,0.98778 -2.37067,1.08656 -1.87678,0.19755 -3.85233,-0.19756 -1.97556,-0.39511 -3.35845,-1.28411 -1.38289,-0.79022 -0.98777,-1.87678 0.0988,-0.19755 1.58044,-2.76578 1.48167,-2.46944 3.85233,-6.32177 2.37067,-3.85234 5.334,-8.59367 2.86456,-4.64256 5.72911,-9.28511 2.86456,-4.64256 5.334,-8.69245 2.46945,-4.14866 4.04989,-6.71689 l 13.73011,-22.12622 q 0.59267,-0.98778 2.46945,-1.08655 1.87678,-0.19756 3.85233,0.19755 1.97556,0.39511 3.35845,1.28411 1.38289,0.889 0.98777,1.87678 0,0.0988 -0.59266,0.59267 -0.49389,0.49389 -1.18534,1.28411 -0.69144,0.79022 -1.48166,1.67922 -0.69145,0.889 -1.08656,1.67922 2.96334,-2.96333 6.51934,-5.82789 3.556,-2.86455 7.40833,-3.75355 2.07433,-0.49389 3.75356,0.29633 1.67922,0.69145 2.86455,2.37067 1.18533,1.58044 1.778,3.95111 0.69145,2.37067 0.79022,5.334 0.0988,3.95111 -1.08655,8.29733 -1.18534,4.34623 -3.35845,8.59367 -2.17311,4.14867 -5.23522,7.90222 -3.06211,3.65478 -6.71689,6.32178 3.25967,-1.58044 7.21078,-4.64256 3.95111,-3.16088 8.49489,-8.49488 2.46944,-2.86456 4.445,-5.63034 2.07433,-2.76578 3.16089,-4.04989 0.69144,-0.889 1.48166,-0.98777 0.79023,-0.19756 1.38289,0.19755 0.69145,0.29633 0.98778,1.08656 0.29633,0.79022 -0.0988,1.778 -1.67922,2.76577 -3.556,5.53155 -1.87677,2.76578 -3.85233,5.334 z m -34.96733,-7.30955 -2.07434,3.25966 q -0.29633,0.98778 -0.19755,2.46945 0.0988,1.38289 0.69144,2.667 0.59267,1.28411 1.778,2.17311 1.18533,0.79022 3.16089,0.59267 1.08656,-0.0988 3.16089,-1.38289 2.07433,-1.38289 4.445,-4.14867 2.37067,-2.76578 4.64255,-7.01322 2.37067,-4.34622 3.85234,-10.37167 0.29633,-0.98778 0.39511,-2.27189 0.19755,-1.28411 0,-2.37066 -0.0988,-1.18534 -0.79022,-1.87678 -0.69145,-0.79022 -2.07434,-0.69145 -0.889,0.0988 -2.56822,1.38289 -1.67922,1.18534 -3.75355,3.25967 -2.07434,2.07433 -4.34623,4.74133 -2.17311,2.667 -4.04989,5.43278 -0.49388,1.08656 -1.08655,2.17311 -0.59267,0.98778 -1.28411,2.07433 z m -1.38289,2.17311 q -0.29634,0.19755 -0.49389,0.69144 z"
         style="font-style:normal;font-variant:normal;font-weight:normal;font-stretch:normal;font-size:98.77777863px;font-family:'Indiana Personal Use';-inkscape-font-specification:'Indiana Personal Use, Normal';font-variant-ligatures:normal;font-variant-caps:normal;font-variant-numeric:normal;font-feature-settings:normal;text-align:start;writing-mode:lr-tb;text-anchor:start;fill:#bcdef1;fill-opacity:1;stroke-width:0.26458332"
         id="path5353" />
      <path
         d="m 638.42817,149.16334 q -0.0988,2.76578 -2.17311,6.12422 -1.97555,3.35845 -5.63033,6.42056 -3.65478,3.06211 -8.79122,5.43278 -5.13645,2.27189 -11.35945,2.86455 -0.19755,0.889 -0.29633,1.67923 -0.0988,0.79022 -0.0988,1.58044 0,3.35844 0.889,5.72911 0.98778,2.27189 4.14867,2.46945 1.58044,0 3.556,-0.69145 1.97555,-0.69144 4.74133,-2.07433 2.96333,-1.58045 5.43278,-3.75356 2.56822,-2.27189 4.93889,-4.84011 1.48166,-1.58044 2.37066,-2.76578 0.98778,-1.18533 1.778,-2.27189 0.889,-1.08655 1.67923,-2.27188 0.889,-1.28412 2.17311,-3.06212 0.69144,-0.59266 1.48166,-0.59266 0.79023,-0.0988 1.28411,0.29633 0.49389,0.29633 0.69145,1.08656 0.19755,0.69144 -0.0988,1.58044 -2.37067,3.85233 -5.43278,8.49489 -3.06211,4.64256 -7.01322,8.69244 -3.85233,4.04989 -8.69244,6.91445 -4.74134,2.86455 -10.47045,3.25967 -4.04989,0.29633 -7.112,-0.79023 -3.06211,-1.08655 -5.13644,-2.96333 -2.07434,-1.87678 -3.16089,-4.34622 -1.08656,-2.46945 -1.18533,-5.13645 -0.29634,-4.84011 1.18533,-9.48266 1.58044,-4.64256 4.24744,-8.79123 2.667,-4.14866 6.12423,-7.70466 3.556,-3.556 7.21077,-6.12422 2.37067,-1.67923 5.92667,-2.76578 3.556,-1.18534 7.01322,-1.18534 4.24745,0 7.01322,2.37067 2.86456,2.37067 2.76578,6.61811 z m -8.79122,-2.76578 q -1.48167,0 -3.75356,1.58045 -2.17311,1.58044 -4.64255,4.14867 -2.46945,2.46944 -4.84011,5.82788 -2.37067,3.25967 -3.95111,6.61812 3.35844,-0.889 6.71689,-2.56823 3.35844,-1.778 6.12422,-3.75355 2.76578,-1.97556 4.54378,-3.85234 1.87677,-1.97555 2.37066,-3.35844 0.0988,-0.39511 0.19756,-1.18533 0.19755,-0.79023 0,-1.58045 -0.19756,-0.79022 -0.889,-1.28411 -0.59267,-0.59267 -1.87678,-0.59267 z"
         style="font-style:normal;font-variant:normal;font-weight:normal;font-stretch:normal;font-size:98.77777863px;font-family:'Indiana Personal Use';-inkscape-font-specification:'Indiana Personal Use, Normal';font-variant-ligatures:normal;font-variant-caps:normal;font-variant-numeric:normal;font-feature-settings:normal;text-align:start;writing-mode:lr-tb;text-anchor:start;fill:#bcdef1;fill-opacity:1;stroke-width:0.26458332"
         id="path5355" />
      <path
         d="m 675.30161,150.34868 q -0.0988,0.59266 -1.38289,2.76577 -1.18533,2.17311 -2.86456,5.13645 -1.67922,2.86455 -3.556,6.12422 -1.778,3.25967 -3.06211,6.02544 -1.28411,2.667 -1.778,4.445 -0.49389,1.778 0.49389,1.67923 1.778,-0.0988 4.14867,-2.17311 2.37066,-2.17312 4.64255,-4.84012 2.27189,-2.76577 4.14867,-5.43277 1.97556,-2.667 2.96333,-3.85234 0.69145,-0.889 1.48167,-0.98777 0.79022,-0.19756 1.38289,0.19755 0.69144,0.29633 0.98778,1.08656 0.29633,0.79022 -0.0988,1.778 -2.86456,4.64255 -6.12422,9.08755 -3.25967,4.34622 -6.71689,8.09978 -0.98778,0.98778 -2.56822,2.667 -1.58045,1.67922 -3.556,3.25967 -1.87678,1.48166 -4.14867,2.56822 -2.27189,1.08655 -4.54378,0.98778 -2.07433,-0.0988 -3.45722,-0.69145 -1.38289,-0.59266 -2.27189,-1.48166 -0.79022,-0.889 -1.18533,-1.97556 -0.29634,-1.18533 -0.39511,-2.37067 -0.29634,-2.96333 1.08655,-6.71689 1.48167,-3.85233 3.65478,-7.70466 2.17311,-3.85234 4.445,-7.40834 2.27189,-3.556 3.65478,-6.12422 1.18533,-2.27189 0.29633,-3.556 -0.889,-1.28411 -2.86456,-1.08655 l -4.14866,0.49389 -1.38289,1.97555 q -0.889,1.18533 -2.07433,2.76578 -1.08656,1.48167 -2.27189,3.16089 -1.08656,1.58044 -2.17311,3.16089 -0.98778,1.48166 -1.778,2.56822 -0.69145,0.889 -1.58045,0.889 -0.889,-0.0988 -1.58044,-0.59267 -0.59267,-0.49389 -0.889,-1.38289 -0.19756,-0.889 0.39511,-1.778 0.59266,-0.889 1.48166,-2.07433 0.889,-1.28411 1.87678,-2.667 0.98778,-1.48167 2.07434,-2.96333 1.08655,-1.58045 2.17311,-2.96334 -1.778,-0.69144 -1.87678,-2.46944 -0.0988,-1.87678 0.79022,-3.65478 0.98778,-1.778 2.667,-2.96333 1.67922,-1.28411 3.35845,-0.79022 2.07433,0.69144 2.56822,1.97555 0.59266,1.28411 0.29633,2.96333 1.87678,-0.29633 4.04989,-0.69144 2.27189,-0.49389 4.445,-0.98778 1.67922,-0.39511 3.75356,-0.39511 2.17311,0 3.85233,0.69145 1.778,0.69144 2.76578,2.27188 0.98777,1.48167 0.39511,3.95112 z"
         style="font-style:normal;font-variant:normal;font-weight:normal;font-stretch:normal;font-size:98.77777863px;font-family:'Indiana Personal Use';-inkscape-font-specification:'Indiana Personal Use, Normal';font-variant-ligatures:normal;font-variant-caps:normal;font-variant-numeric:normal;font-feature-settings:normal;text-align:start;writing-mode:lr-tb;text-anchor:start;fill:#bcdef1;fill-opacity:1;stroke-width:0.26458332"
         id="path5357" />
      <g
         aria-label="Commité d'entreprise"
         style="font-style:normal;font-variant:normal;font-weight:normal;font-stretch:normal;font-size:21.16666603px;line-height:1.25;font-family:'Indiana Personal Use';-inkscape-font-specification:'Indiana Personal Use, Normal';font-variant-ligatures:normal;font-variant-caps:normal;font-variant-numeric:normal;font-feature-settings:normal;text-align:start;letter-spacing:0px;word-spacing:0px;writing-mode:lr-tb;text-anchor:start;fill:#cee0f4;fill-opacity:1;stroke:none;stroke-width:0.07000434"
         id="text1064">
        <path
           d="m 170.9727,300.58202 4.01009,1.01286 q -1.26091,4.94027 -4.54753,7.54476 -3.26595,2.58382 -7.99951,2.58382 -4.89893,0 -7.97884,-1.98437 -3.05925,-2.00505 -4.67155,-5.78776 -1.59164,-3.78272 -1.59164,-8.12354 0,-4.73356 1.79834,-8.24756 1.81901,-3.53467 5.14698,-5.35368 3.34863,-1.83968 7.35872,-1.83968 4.54753,0 7.64811,2.31511 3.10059,2.3151 4.32015,6.51123 l -3.94808,0.93017 q -1.0542,-3.30729 -3.05924,-4.81624 -2.00505,-1.50895 -5.04362,-1.50895 -3.49333,0 -5.84977,1.67432 -2.33578,1.67431 -3.28662,4.50618 -0.95085,2.8112 -0.95085,5.80843 0,3.8654 1.11621,6.75928 1.13688,2.87321 3.514,4.29948 2.37711,1.42627 5.14697,1.42627 3.3693,0 5.70508,-1.94304 2.33577,-1.94303 3.1626,-5.76709 z"
           style="font-style:normal;font-variant:normal;font-weight:normal;font-stretch:normal;font-size:42.33333588px;font-family:Arial;-inkscape-font-specification:Arial;fill:#cee0f4;fill-opacity:1;stroke-width:0.07000434"
           id="path1078"
           inkscape:connector-curvature="0" />
        <path
           d="m 178.08337,300.23062 q 0,-6.09781 3.38998,-9.03304 2.83187,-2.43912 6.90397,-2.43912 4.52686,0 7.40007,2.97656 2.87321,2.95589 2.87321,8.18555 0,4.23746 -1.28158,6.67659 -1.26091,2.41846 -3.70003,3.76205 -2.41846,1.34358 -5.29167,1.34358 -4.60954,0 -7.46208,-2.95589 -2.83187,-2.95589 -2.83187,-8.51628 z m 3.82406,0 q 0,4.2168 1.83968,6.3252 1.83968,2.08773 4.63021,2.08773 2.76986,0 4.60954,-2.1084 1.83968,-2.1084 1.83968,-6.42855 0,-4.0721 -1.86035,-6.15983 -1.83968,-2.1084 -4.58887,-2.1084 -2.79053,0 -4.63021,2.08773 -1.83968,2.08773 -1.83968,6.30452 z"
           style="font-style:normal;font-variant:normal;font-weight:normal;font-stretch:normal;font-size:42.33333588px;font-family:Arial;-inkscape-font-specification:Arial;fill:#cee0f4;fill-opacity:1;stroke-width:0.07000434"
           id="path1080"
           inkscape:connector-curvature="0" />
        <path
           d="m 203.03276,311.2067 v -21.95215 h 3.32796 v 3.07992 q 1.03353,-1.61231 2.74919,-2.58383 1.71566,-0.99218 3.90674,-0.99218 2.43912,0 3.98942,1.01285 1.57096,1.01286 2.21175,2.83187 2.60449,-3.84472 6.77995,-3.84472 3.26595,0 5.02295,1.81901 1.757,1.79834 1.757,5.56038 v 15.06885 h -3.70004 v -13.82861 q 0,-2.23243 -0.37207,-3.20394 -0.3514,-0.99219 -1.30224,-1.59164 -0.95085,-0.59944 -2.23243,-0.59944 -2.3151,0 -3.84472,1.55029 -1.52963,1.52962 -1.52963,4.9196 v 12.75374 h -3.7207 V 296.944 q 0,-2.48047 -0.9095,-3.7207 -0.90951,-1.24023 -2.97657,-1.24023 -1.57096,0 -2.91455,0.82682 -1.32291,0.82682 -1.92236,2.41846 -0.59945,1.59163 -0.59945,4.58886 v 11.38949 z"
           style="font-style:normal;font-variant:normal;font-weight:normal;font-stretch:normal;font-size:42.33333588px;font-family:Arial;-inkscape-font-specification:Arial;fill:#cee0f4;fill-opacity:1;stroke-width:0.07000434"
           id="path1082"
           inkscape:connector-curvature="0" />
        <path
           d="m 238.3381,311.2067 v -21.95215 h 3.32796 v 3.07992 q 1.03353,-1.61231 2.74918,-2.58383 1.71566,-0.99218 3.90674,-0.99218 2.43913,0 3.98942,1.01285 1.57097,1.01286 2.21175,2.83187 2.6045,-3.84472 6.77995,-3.84472 3.26595,0 5.02295,1.81901 1.757,1.79834 1.757,5.56038 v 15.06885 h -3.70003 v -13.82861 q 0,-2.23243 -0.37207,-3.20394 -0.3514,-0.99219 -1.30225,-1.59164 -0.95084,-0.59944 -2.23242,-0.59944 -2.3151,0 -3.84473,1.55029 -1.52962,1.52962 -1.52962,4.9196 v 12.75374 h -3.7207 V 296.944 q 0,-2.48047 -0.90951,-3.7207 -0.9095,-1.24023 -2.97656,-1.24023 -1.57096,0 -2.91455,0.82682 -1.32292,0.82682 -1.92236,2.41846 -0.59945,1.59163 -0.59945,4.58886 v 11.38949 z"
           style="font-style:normal;font-variant:normal;font-weight:normal;font-stretch:normal;font-size:42.33333588px;font-family:Arial;-inkscape-font-specification:Arial;fill:#cee0f4;fill-opacity:1;stroke-width:0.07000434"
           id="path1084"
           inkscape:connector-curvature="0" />
        <path
           d="m 273.66411,285.18245 v -4.27881 h 3.7207 v 4.27881 z m 0,26.02425 v -21.95215 h 3.7207 v 21.95215 z"
           style="font-style:normal;font-variant:normal;font-weight:normal;font-stretch:normal;font-size:42.33333588px;font-family:Arial;-inkscape-font-specification:Arial;fill:#cee0f4;fill-opacity:1;stroke-width:0.07000434"
           id="path1086"
           inkscape:connector-curvature="0" />
        <path
           d="m 291.19275,307.87874 0.53743,3.28662 q -1.57096,0.33073 -2.8112,0.33073 -2.02571,0 -3.14192,-0.64079 -1.11621,-0.64079 -1.57097,-1.67432 -0.45475,-1.0542 -0.45475,-4.40283 v -12.62972 h -2.72851 v -2.89388 h 2.72851 v -5.43636 l 3.70003,-2.23242 v 7.66878 h 3.74138 v 2.89388 h -3.74138 v 12.83643 q 0,1.59163 0.18604,2.04638 0.20671,0.45476 0.64079,0.72347 0.45475,0.26872 1.28157,0.26872 0.62012,0 1.63298,-0.14469 z"
           style="font-style:normal;font-variant:normal;font-weight:normal;font-stretch:normal;font-size:42.33333588px;font-family:Arial;-inkscape-font-specification:Arial;fill:#cee0f4;fill-opacity:1;stroke-width:0.07000434"
           id="path1088"
           inkscape:connector-curvature="0" />
        <path
           d="m 309.83761,304.13736 3.84473,0.47543 q -0.90951,3.3693 -3.36931,5.22965 -2.45979,1.86035 -6.28385,1.86035 -4.81624,0 -7.64811,-2.95589 -2.8112,-2.97656 -2.8112,-8.33024 0,-5.53971 2.85254,-8.59896 2.85254,-3.05924 7.40006,-3.05924 4.40284,0 7.19336,2.99723 2.79053,2.99723 2.79053,8.43359 0,0.33073 -0.0207,0.99219 h -16.37109 q 0.2067,3.61735 2.04638,5.53971 1.83968,1.92237 4.58887,1.92237 2.04639,0 3.49333,-1.07487 1.44694,-1.07487 2.29443,-3.43132 z m -12.21631,-6.01513 h 12.25765 q -0.24805,-2.76986 -1.4056,-4.15479 -1.77767,-2.14974 -4.60954,-2.14974 -2.56315,0 -4.32015,1.71566 -1.73632,1.71566 -1.92236,4.58887 z m 4.01009,-11.5962 2.74919,-5.78776 h 4.87825 l -4.54752,5.78776 z"
           style="font-style:normal;font-variant:normal;font-weight:normal;font-stretch:normal;font-size:42.33333588px;font-family:Arial;-inkscape-font-specification:Arial;fill:#cee0f4;fill-opacity:1;stroke-width:0.07000434"
           id="path1090"
           inkscape:connector-curvature="0" />
        <path
           d="m 456.61067,311.2067 v -2.76986 q -2.08773,3.26595 -6.13916,3.26595 -2.62516,0 -4.83691,-1.44694 -2.19108,-1.44694 -3.41065,-4.03076 -1.19889,-2.60449 -1.19889,-5.9738 0,-3.28662 1.09554,-5.95312 1.09554,-2.68718 3.28662,-4.11344 2.19108,-1.42627 4.89893,-1.42627 1.98437,0 3.53467,0.84749 1.55029,0.82682 2.52181,2.17041 v -10.87272 h 3.70003 v 30.30306 z m -11.76155,-10.95541 q 0,4.2168 1.77766,6.30453 1.77767,2.08773 4.19613,2.08773 2.43913,0 4.13412,-1.98438 1.71565,-2.00504 1.71565,-6.09782 0,-4.50618 -1.73632,-6.61458 -1.73633,-2.1084 -4.27881,-2.1084 -2.48047,0 -4.15479,2.02572 -1.65364,2.02571 -1.65364,6.3872 z"
           style="font-style:normal;font-variant:normal;font-weight:normal;font-stretch:normal;font-size:42.33333588px;font-family:Arial;-inkscape-font-specification:Arial;fill:#cee0f4;fill-opacity:1;stroke-width:0.07000434"
           id="path1092"
           inkscape:connector-curvature="0" />
        <path
           d="m 465.95377,291.63167 -0.95085,-5.66374 v -5.06429 h 4.23747 v 5.06429 l -0.99219,5.66374 z"
           style="font-style:normal;font-variant:normal;font-weight:normal;font-stretch:normal;font-size:42.33333588px;font-family:Arial;-inkscape-font-specification:Arial;fill:#cee0f4;fill-opacity:1;stroke-width:0.07000434"
           id="path1094"
           inkscape:connector-curvature="0" />
        <path
           d="m 489.06347,304.13736 3.84472,0.47543 q -0.9095,3.3693 -3.3693,5.22965 -2.4598,1.86035 -6.28385,1.86035 -4.81625,0 -7.64812,-2.95589 -2.8112,-2.97656 -2.8112,-8.33024 0,-5.53971 2.85254,-8.59896 2.85254,-3.05924 7.40007,-3.05924 4.40283,0 7.19336,2.99723 2.79053,2.99723 2.79053,8.43359 0,0.33073 -0.0207,0.99219 h -16.3711 q 0.20671,3.61735 2.04639,5.53971 1.83968,1.92237 4.58887,1.92237 2.04638,0 3.49332,-1.07487 1.44694,-1.07487 2.29444,-3.43132 z m -12.21631,-6.01513 h 12.25765 q -0.24805,-2.76986 -1.4056,-4.15479 -1.77767,-2.14974 -4.60954,-2.14974 -2.56315,0 -4.32015,1.71566 -1.73633,1.71566 -1.92236,4.58887 z"
           style="font-style:normal;font-variant:normal;font-weight:normal;font-stretch:normal;font-size:42.33333588px;font-family:Arial;-inkscape-font-specification:Arial;fill:#cee0f4;fill-opacity:1;stroke-width:0.07000434"
           id="path1096"
           inkscape:connector-curvature="0" />
        <path
           d="m 497.60043,311.2067 v -21.95215 h 3.34863 v 3.12126 q 2.41846,-3.61735 6.98665,-3.61735 1.98438,0 3.63803,0.72347 1.67431,0.7028 2.50114,1.86035 0.82682,1.15755 1.15755,2.74918 0.2067,1.03353 0.2067,3.61735 v 13.49789 h -3.7207 v -13.35319 q 0,-2.27376 -0.43408,-3.38998 -0.43408,-1.13688 -1.5503,-1.79834 -1.09554,-0.68212 -2.58382,-0.68212 -2.37711,0 -4.11344,1.50895 -1.71566,1.50895 -1.71566,5.72575 v 11.98893 z"
           style="font-style:normal;font-variant:normal;font-weight:normal;font-stretch:normal;font-size:42.33333588px;font-family:Arial;-inkscape-font-specification:Arial;fill:#cee0f4;fill-opacity:1;stroke-width:0.07000434"
           id="path1098"
           inkscape:connector-curvature="0" />
        <path
           d="m 529.28842,307.87874 0.53743,3.28662 q -1.57096,0.33073 -2.8112,0.33073 -2.02571,0 -3.14192,-0.64079 -1.11622,-0.64079 -1.57097,-1.67432 -0.45475,-1.0542 -0.45475,-4.40283 v -12.62972 h -2.72852 v -2.89388 h 2.72852 v -5.43636 l 3.70003,-2.23242 v 7.66878 h 3.74138 v 2.89388 h -3.74138 v 12.83643 q 0,1.59163 0.18604,2.04638 0.2067,0.45476 0.64079,0.72347 0.45475,0.26872 1.28157,0.26872 0.62012,0 1.63298,-0.14469 z"
           style="font-style:normal;font-variant:normal;font-weight:normal;font-stretch:normal;font-size:42.33333588px;font-family:Arial;-inkscape-font-specification:Arial;fill:#cee0f4;fill-opacity:1;stroke-width:0.07000434"
           id="path1100"
           inkscape:connector-curvature="0" />
        <path
           d="m 532.86441,311.2067 v -21.95215 h 3.34864 v 3.32796 q 1.28157,-2.33577 2.35644,-3.07991 1.09554,-0.74414 2.39779,-0.74414 1.88102,0 3.82406,1.19889 l -1.28158,3.45198 q -1.36426,-0.80615 -2.72852,-0.80615 -1.21956,0 -2.19108,0.74414 -0.97151,0.72347 -1.38492,2.02572 -0.62012,1.98437 -0.62012,4.34082 v 11.49284 z"
           style="font-style:normal;font-variant:normal;font-weight:normal;font-stretch:normal;font-size:42.33333588px;font-family:Arial;-inkscape-font-specification:Arial;fill:#cee0f4;fill-opacity:1;stroke-width:0.07000434"
           id="path1102"
           inkscape:connector-curvature="0" />
        <path
           d="m 562.07194,304.13736 3.84472,0.47543 q -0.9095,3.3693 -3.3693,5.22965 -2.4598,1.86035 -6.28386,1.86035 -4.81624,0 -7.64811,-2.95589 -2.8112,-2.97656 -2.8112,-8.33024 0,-5.53971 2.85254,-8.59896 2.85254,-3.05924 7.40007,-3.05924 4.40283,0 7.19336,2.99723 2.79053,2.99723 2.79053,8.43359 0,0.33073 -0.0207,0.99219 H 549.6489 q 0.20671,3.61735 2.04639,5.53971 1.83968,1.92237 4.58886,1.92237 2.04639,0 3.49333,-1.07487 1.44694,-1.07487 2.29444,-3.43132 z m -12.21631,-6.01513 h 12.25765 q -0.24805,-2.76986 -1.4056,-4.15479 -1.77767,-2.14974 -4.60954,-2.14974 -2.56315,0 -4.32015,1.71566 -1.73633,1.71566 -1.92236,4.58887 z"
           style="font-style:normal;font-variant:normal;font-weight:normal;font-stretch:normal;font-size:42.33333588px;font-family:Arial;-inkscape-font-specification:Arial;fill:#cee0f4;fill-opacity:1;stroke-width:0.07000434"
           id="path1104"
           inkscape:connector-curvature="0" />
        <path
           d="m 570.60888,319.61962 v -30.36507 h 3.38998 v 2.85254 q 1.19889,-1.67432 2.70784,-2.50114 1.50895,-0.84749 3.65869,-0.84749 2.8112,0 4.96094,1.44694 2.14974,1.44694 3.24528,4.09277 1.09554,2.62516 1.09554,5.76709 0,3.3693 -1.21956,6.07715 -1.1989,2.68717 -3.514,4.13411 -2.29443,1.42627 -4.83692,1.42627 -1.86035,0 -3.34863,-0.78548 -1.46761,-0.78548 -2.41846,-1.98437 v 10.68668 z m 3.3693,-19.26497 q 0,4.23747 1.71566,6.26318 1.71566,2.02572 4.15479,2.02572 2.48047,0 4.23747,-2.08773 1.77766,-2.1084 1.77766,-6.51123 0,-4.19613 -1.73632,-6.28386 -1.71566,-2.08772 -4.11345,-2.08772 -2.37711,0 -4.21679,2.23242 -1.81902,2.21175 -1.81902,6.44922 z"
           style="font-style:normal;font-variant:normal;font-weight:normal;font-stretch:normal;font-size:42.33333588px;font-family:Arial;-inkscape-font-specification:Arial;fill:#cee0f4;fill-opacity:1;stroke-width:0.07000434"
           id="path1106"
           inkscape:connector-curvature="0" />
        <path
           d="m 594.13199,311.2067 v -21.95215 h 3.34864 v 3.32796 q 1.28157,-2.33577 2.35644,-3.07991 1.09554,-0.74414 2.39779,-0.74414 1.88102,0 3.82405,1.19889 l -1.28157,3.45198 q -1.36426,-0.80615 -2.72852,-0.80615 -1.21956,0 -2.19108,0.74414 -0.97151,0.72347 -1.38493,2.02572 -0.62011,1.98437 -0.62011,4.34082 v 11.49284 z"
           style="font-style:normal;font-variant:normal;font-weight:normal;font-stretch:normal;font-size:42.33333588px;font-family:Arial;-inkscape-font-specification:Arial;fill:#cee0f4;fill-opacity:1;stroke-width:0.07000434"
           id="path1108"
           inkscape:connector-curvature="0" />
        <path
           d="m 608.33268,285.18245 v -4.27881 h 3.7207 v 4.27881 z m 0,26.02425 v -21.95215 h 3.7207 v 21.95215 z"
           style="font-style:normal;font-variant:normal;font-weight:normal;font-stretch:normal;font-size:42.33333588px;font-family:Arial;-inkscape-font-specification:Arial;fill:#cee0f4;fill-opacity:1;stroke-width:0.07000434"
           id="path1110"
           inkscape:connector-curvature="0" />
        <path
           d="m 616.24951,304.65413 3.67936,-0.57878 q 0.31006,2.21175 1.71566,3.38998 1.42627,1.17822 3.96875,1.17822 2.56315,0 3.80338,-1.03353 1.24024,-1.0542 1.24024,-2.4598 0,-1.2609 -1.09554,-1.98437 -0.76482,-0.4961 -3.80339,-1.26091 -4.09277,-1.03353 -5.68441,-1.77767 -1.57096,-0.76481 -2.39778,-2.08773 -0.80616,-1.34358 -0.80616,-2.95589 0,-1.46761 0.66146,-2.70784 0.68213,-1.26091 1.83968,-2.08773 0.86817,-0.64079 2.35645,-1.07487 1.50895,-0.45475 3.22461,-0.45475 2.58382,0 4.52685,0.74414 1.96371,0.74414 2.89388,2.02571 0.93018,1.26091 1.28158,3.38998 l -3.63802,0.49609 q -0.24805,-1.69499 -1.44694,-2.64583 -1.17822,-0.95085 -3.34863,-0.95085 -2.56316,0 -3.6587,0.84749 -1.09554,0.8475 -1.09554,1.98438 0,0.72347 0.45476,1.30225 0.45475,0.59944 1.42627,0.99218 0.5581,0.20671 3.28662,0.95085 3.94808,1.0542 5.49837,1.73633 1.57096,0.66146 2.4598,1.94303 0.88883,1.28158 0.88883,3.18327 0,1.86035 -1.09554,3.514 -1.07487,1.63297 -3.12125,2.54248 -2.04639,0.88883 -4.63021,0.88883 -4.27881,0 -6.5319,-1.77767 -2.23243,-1.77767 -2.85254,-5.27099 z"
           style="font-style:normal;font-variant:normal;font-weight:normal;font-stretch:normal;font-size:42.33333588px;font-family:Arial;-inkscape-font-specification:Arial;fill:#cee0f4;fill-opacity:1;stroke-width:0.07000434"
           id="path1112"
           inkscape:connector-curvature="0" />
        <path
           d="m 653.93198,304.13736 3.84473,0.47543 q -0.90951,3.3693 -3.36931,5.22965 -2.45979,1.86035 -6.28385,1.86035 -4.81624,0 -7.64811,-2.95589 -2.8112,-2.97656 -2.8112,-8.33024 0,-5.53971 2.85254,-8.59896 2.85254,-3.05924 7.40006,-3.05924 4.40284,0 7.19336,2.99723 2.79053,2.99723 2.79053,8.43359 0,0.33073 -0.0207,0.99219 h -16.37109 q 0.2067,3.61735 2.04638,5.53971 1.83968,1.92237 4.58887,1.92237 2.04639,0 3.49333,-1.07487 1.44694,-1.07487 2.29443,-3.43132 z m -12.21631,-6.01513 h 12.25765 q -0.24804,-2.76986 -1.4056,-4.15479 -1.77767,-2.14974 -4.60953,-2.14974 -2.56316,0 -4.32015,1.71566 -1.73633,1.71566 -1.92237,4.58887 z"
           style="font-style:normal;font-variant:normal;font-weight:normal;font-stretch:normal;font-size:42.33333588px;font-family:Arial;-inkscape-font-specification:Arial;fill:#cee0f4;fill-opacity:1;stroke-width:0.07000434"
           id="path1114"
           inkscape:connector-curvature="0" />
      </g>
      <text
         xml:space="preserve"
         style="font-style:normal;font-variant:normal;font-weight:normal;font-stretch:normal;font-size:21.16666603px;line-height:1.25;font-family:'Indiana Personal Use';-inkscape-font-specification:'Indiana Personal Use, Normal';font-variant-ligatures:normal;font-variant-caps:normal;font-variant-numeric:normal;font-feature-settings:normal;text-align:start;letter-spacing:0px;word-spacing:0px;writing-mode:lr-tb;text-anchor:start;fill:#000000;fill-opacity:1;stroke:none;stroke-width:0.07000434"
         x="595.4765"
         y="307.99948"
         id="text1072"><tspan
           sodipodi:role="line"
           id="tspan1070"
           x="595.4765"
           y="326.52032"
           style="stroke-width:0.07000434" /></text>
    </g>
  </g>
</svg>
